<svg width="120" height="41" viewBox="0 0 120 41" fill="none" xmlns="http://www.w3.org/2000/svg">
<path d="M48.0997 9.21957V9.16864C48.0997 7.91219 47.8709 6.74914 47.4133 5.67946C46.9557 4.59281 46.3032 3.65048 45.4557 2.85246C44.6253 2.05445 43.6253 1.43472 42.4559 0.993268C41.3034 0.534836 40.0323 0.30562 38.6426 0.30562H31.7023V18.1335H38.6426C40.0323 18.1335 41.3034 17.9043 42.4559 17.4459C43.6253 16.9874 44.6253 16.3592 45.4557 15.5612C46.3032 14.7632 46.9557 13.8209 47.4133 12.7342C47.8709 11.6476 48.0997 10.476 48.0997 9.21957ZM44.0067 9.27051C44.0067 10.0685 43.8711 10.7901 43.5999 11.4353C43.3457 12.0805 42.9813 12.6408 42.5068 13.1162C42.0492 13.5917 41.4899 13.9567 40.8289 14.2114C40.1679 14.4661 39.4391 14.5934 38.6426 14.5934H35.6173V3.84573H38.6426C39.4391 3.84573 40.1679 3.98156 40.8289 4.25323C41.4899 4.50791 42.0492 4.87296 42.5068 5.34837C42.9813 5.82378 43.3457 6.39258 43.5999 7.05476C43.8711 7.71694 44.0067 8.43854 44.0067 9.21957V9.27051Z" fill="#293978"/>
<path d="M64.1526 18.1335L57.2321 0.178278H53.6221L45.9954 18.1335H49.9867L51.6137 14.135H59.1387L60.7658 18.1335H64.1526ZM57.7405 10.6713H53.0119L55.3762 4.88994L57.7405 10.6713Z" fill="#293978"/>
<path d="M71.4696 0.30562H67.2495L62.5972 12.8616L57.2387 0.30562H53.6231L60.8176 18.2609H64.275L71.4696 0.30562Z" fill="#293978"/>
<path d="M75.5117 18.1335V0.30562H71.5967V18.1335H75.5117Z" fill="#293978"/>
<path d="M93.8142 9.21957V9.16864C93.8142 7.91219 93.5854 6.74914 93.1278 5.67946C92.6702 4.59281 92.0177 3.65048 91.1703 2.85246C90.3398 2.05445 89.3399 1.43472 88.1704 0.993268C87.018 0.534836 85.7468 0.30562 84.3571 0.30562H77.4168V18.1335H84.3571C85.7468 18.1335 87.018 17.9043 88.1704 17.4459C89.3399 16.9874 90.3398 16.3592 91.1703 15.5612C92.0177 14.7632 92.6702 13.8209 93.1278 12.7342C93.5854 11.6476 93.8142 10.476 93.8142 9.21957ZM89.7212 9.27051C89.7212 10.0685 89.5856 10.7901 89.3144 11.4353C89.0602 12.0805 88.6958 12.6408 88.2213 13.1162C87.7637 13.5917 87.2044 13.9567 86.5434 14.2114C85.8824 14.4661 85.1537 14.5934 84.3571 14.5934H81.3318V3.84573H84.3571C85.1537 3.84573 85.8824 3.98156 86.5434 4.25323C87.2044 4.50791 87.7637 4.87296 88.2213 5.34837C88.6958 5.82378 89.0602 6.39258 89.3144 7.05476C89.5856 7.71694 89.7212 8.43854 89.7212 9.21957V9.27051Z" fill="#293978"/>
<path d="M120 9.21957V9.16864C120 7.89521 119.763 6.70669 119.288 5.60306C118.831 4.48244 118.178 3.51464 117.331 2.69965C116.5 1.86769 115.509 1.214 114.356 0.738584C113.204 0.246195 111.941 0 110.568 0C109.196 0 107.924 0.246195 106.755 0.738584C105.602 1.214 104.603 1.87617 103.755 2.72512C102.925 3.55709 102.272 4.53338 101.798 5.65399C101.323 6.75763 101.086 7.94615 101.086 9.21957V9.27051C101.086 10.5439 101.315 11.7409 101.772 12.8616C102.247 13.9652 102.899 14.933 103.73 15.765C104.577 16.58 105.577 17.2336 106.73 17.726C107.882 18.2014 109.145 18.4391 110.517 18.4391C111.89 18.4391 113.153 18.2014 114.305 17.726C115.475 17.2336 116.475 16.5715 117.305 15.7395C118.153 14.8905 118.814 13.9143 119.288 12.8106C119.763 11.69 120 10.493 120 9.21957ZM115.907 9.27051C115.907 10.0346 115.771 10.7562 115.5 11.4353C115.246 12.0975 114.882 12.6833 114.407 13.1926C113.949 13.702 113.39 14.101 112.729 14.3897C112.068 14.6783 111.348 14.8226 110.568 14.8226C109.772 14.8226 109.043 14.6783 108.382 14.3897C107.738 14.084 107.17 13.6766 106.679 13.1672C106.204 12.6578 105.831 12.0635 105.56 11.3844C105.306 10.7052 105.179 9.98363 105.179 9.21957V9.16864C105.179 8.40458 105.306 7.69147 105.56 7.02929C105.831 6.35013 106.196 5.75587 106.653 5.2465C107.128 4.73713 107.687 4.33812 108.331 4.04948C108.992 3.76084 109.721 3.61652 110.517 3.61652C111.297 3.61652 112.017 3.76933 112.678 4.07495C113.339 4.36359 113.907 4.7626 114.382 5.27197C114.873 5.78134 115.246 6.3756 115.5 7.05476C115.771 7.73392 115.907 8.45552 115.907 9.21957V9.27051Z" fill="#293978"/>
<path d="M14.084 34.7927V34.7418C14.084 33.9607 13.9569 33.2901 13.7026 32.7298C13.4654 32.1695 13.101 31.6856 12.6095 31.2781C12.1349 30.8536 11.5417 30.497 10.8299 30.2084C10.135 29.9028 9.33847 29.6311 8.44022 29.3934C7.67755 29.1897 7.04199 29.0114 6.53354 28.8586C6.04204 28.7058 5.65223 28.5445 5.36411 28.3747C5.07599 28.2049 4.87262 28.0181 4.75398 27.8144C4.65229 27.5936 4.60144 27.339 4.60144 27.0503V26.9994C4.60144 26.5579 4.78787 26.1929 5.16074 25.9042C5.55055 25.5986 6.12678 25.4458 6.88945 25.4458C7.65212 25.4458 8.4148 25.6071 9.17747 25.9297C9.94014 26.2353 10.7198 26.6598 11.5163 27.2031L13.5501 24.2488C12.6349 23.5187 11.6265 22.9584 10.5248 22.5679C9.44016 22.1773 8.24531 21.9821 6.9403 21.9821C6.0251 21.9821 5.18616 22.1094 4.42349 22.3641C3.66082 22.6188 2.99984 22.9839 2.44054 23.4593C1.8982 23.9347 1.4745 24.5035 1.16943 25.1656C0.86436 25.8108 0.711826 26.5409 0.711826 27.3559V27.4069C0.711826 28.2898 0.847411 29.0284 1.11858 29.6226C1.4067 30.2169 1.80499 30.7178 2.31343 31.1253C2.82188 31.5158 3.44049 31.8469 4.16926 32.1185C4.89804 32.3902 5.71155 32.6364 6.60981 32.8571C7.35553 33.0439 7.95719 33.2222 8.4148 33.392C8.88935 33.5617 9.25373 33.7315 9.50796 33.9013C9.77913 34.0711 9.95708 34.2579 10.0418 34.4616C10.1435 34.6484 10.1944 34.8691 10.1944 35.1238V35.1747C10.1944 35.7011 9.96556 36.1171 9.50796 36.4227C9.0673 36.7113 8.44022 36.8557 7.6267 36.8557C6.60981 36.8557 5.66918 36.6604 4.80482 36.2699C3.95741 35.8794 3.12695 35.353 2.31343 34.6908L0 37.4669C1.06774 38.4347 2.25411 39.1563 3.55913 39.6317C4.86414 40.0901 6.19458 40.3194 7.55044 40.3194C8.51648 40.3194 9.39779 40.2005 10.1944 39.9628C10.9909 39.7081 11.6773 39.3516 12.2536 38.8931C12.8298 38.4177 13.2789 37.8404 13.601 37.1613C13.923 36.4651 14.084 35.6756 14.084 34.7927Z" fill="#293978"/>
<path d="M30.6758 32.2968V22.2368H26.7608V32.4496C26.7608 33.8759 26.4218 34.9455 25.7439 35.6586C25.066 36.3718 24.1253 36.7283 22.922 36.7283C21.7187 36.7283 20.7781 36.3633 20.1001 35.6332C19.4222 34.8861 19.0832 33.7825 19.0832 32.3223V22.2368H15.1682V32.4242C15.1682 35.0559 15.8546 37.0339 17.2274 38.3583C18.6002 39.6827 20.4815 40.3448 22.8712 40.3448C24.0575 40.3448 25.1338 40.1835 26.0998 39.8609C27.0659 39.5214 27.8878 39.0205 28.5658 38.3583C29.2437 37.6791 29.7606 36.8387 30.1165 35.8369C30.4894 34.8352 30.6758 33.6551 30.6758 32.2968Z" fill="#293978"/>
<path d="M42.5925 40.0647V36.4991H36.5448V22.2368H32.6298V40.0647H42.5925Z" fill="#293978"/>
<path d="M53.7565 40.0647V36.4991H47.7088V22.2368H43.7938V40.0647H53.7565Z" fill="#293978"/>
<path d="M59.0507 40.0647V22.2368H55.1357V40.0647H59.0507Z" fill="#293978"/>
<path d="M77.0227 22.2368H73.5088L68.1503 34.7927L63.4981 22.2368H59.1763L66.3708 40.192H69.8282L77.0227 22.2368Z" fill="#293978"/>
<path d="M84.6495 40.0647L77.0227 22.1094H73.4128L66.4922 40.0647H69.7774L71.4044 36.0661H78.9294L80.5564 40.0647H84.6495ZM77.5312 32.6024H72.8026L75.1669 26.8211L77.5312 32.6024Z" fill="#293978"/>
<path d="M100.667 40.0647V22.2368H96.8023V33.2137L88.4638 22.2368H84.8538V40.0647H88.718V28.7312L97.3362 40.0647H100.667Z" fill="#293978"/>
</svg>
