<svg width="702" height="268" viewBox="0 0 702 268" fill="none" xmlns="http://www.w3.org/2000/svg">
<path d="M66.7089 85.1V85.072C66.7089 84.3813 66.5829 83.742 66.3309 83.154C66.0789 82.5567 65.7196 82.0387 65.2529 81.6C64.7956 81.1613 64.2449 80.8207 63.6009 80.578C62.9663 80.326 62.2663 80.2 61.5009 80.2H57.6789V90H61.5009C62.2663 90 62.9663 89.874 63.6009 89.622C64.2449 89.37 64.7956 89.0247 65.2529 88.586C65.7196 88.1473 66.0789 87.6293 66.3309 87.032C66.5829 86.4347 66.7089 85.7907 66.7089 85.1ZM64.4549 85.128C64.4549 85.5667 64.3803 85.9633 64.2309 86.318C64.0909 86.6727 63.8903 86.9807 63.6289 87.242C63.3769 87.5033 63.0689 87.704 62.7049 87.844C62.3409 87.984 61.9396 88.054 61.5009 88.054H59.8349V82.146H61.5009C61.9396 82.146 62.3409 82.2207 62.7049 82.37C63.0689 82.51 63.3769 82.7107 63.6289 82.972C63.8903 83.2333 64.0909 83.546 64.2309 83.91C64.3803 84.274 64.4549 84.6707 64.4549 85.1V85.128ZM70.8841 90V80.2H68.7281V90H70.8841ZM80.4172 87.102V87.074C80.4172 86.6447 80.3472 86.276 80.2072 85.968C80.0766 85.66 79.8759 85.394 79.6052 85.17C79.3439 84.9367 79.0172 84.7407 78.6252 84.582C78.2426 84.414 77.8039 84.2647 77.3092 84.134C76.8892 84.022 76.5392 83.924 76.2592 83.84C75.9886 83.756 75.7739 83.6673 75.6152 83.574C75.4566 83.4807 75.3446 83.378 75.2792 83.266C75.2232 83.1447 75.1952 83.0047 75.1952 82.846V82.818C75.1952 82.5753 75.2979 82.3747 75.5032 82.216C75.7179 82.048 76.0352 81.964 76.4552 81.964C76.8752 81.964 77.2952 82.0527 77.7152 82.23C78.1352 82.398 78.5646 82.6313 79.0032 82.93L80.1232 81.306C79.6192 80.9047 79.0639 80.5967 78.4572 80.382C77.8599 80.1673 77.2019 80.06 76.4832 80.06C75.9792 80.06 75.5172 80.13 75.0972 80.27C74.6772 80.41 74.3132 80.6107 74.0052 80.872C73.7066 81.1333 73.4732 81.446 73.3052 81.81C73.1372 82.1647 73.0532 82.566 73.0532 83.014V83.042C73.0532 83.5273 73.1279 83.9333 73.2772 84.26C73.4359 84.5867 73.6552 84.862 73.9352 85.086C74.2152 85.3007 74.5559 85.4827 74.9572 85.632C75.3586 85.7813 75.8066 85.9167 76.3012 86.038C76.7119 86.1407 77.0432 86.2387 77.2952 86.332C77.5566 86.4253 77.7572 86.5187 77.8972 86.612C78.0466 86.7053 78.1446 86.808 78.1912 86.92C78.2472 87.0227 78.2752 87.144 78.2752 87.284V87.312C78.2752 87.6013 78.1492 87.83 77.8972 87.998C77.6546 88.1567 77.3092 88.236 76.8612 88.236C76.3012 88.236 75.7832 88.1287 75.3072 87.914C74.8406 87.6993 74.3832 87.41 73.9352 87.046L72.6612 88.572C73.2492 89.104 73.9026 89.5007 74.6212 89.762C75.3399 90.014 76.0726 90.14 76.8192 90.14C77.3512 90.14 77.8366 90.0747 78.2752 89.944C78.7139 89.804 79.0919 89.608 79.4092 89.356C79.7266 89.0947 79.9739 88.7773 80.1512 88.404C80.3286 88.0213 80.4172 87.5873 80.4172 87.102ZM90.8983 88.418L89.5263 87.032C89.1436 87.3867 88.7563 87.6667 88.3643 87.872C87.9816 88.0773 87.5103 88.18 86.9503 88.18C86.5303 88.18 86.143 88.1007 85.7883 87.942C85.443 87.774 85.1443 87.55 84.8923 87.27C84.6496 86.99 84.4583 86.6633 84.3183 86.29C84.1783 85.9167 84.1083 85.52 84.1083 85.1V85.072C84.1083 84.652 84.1783 84.26 84.3183 83.896C84.4583 83.5227 84.6543 83.196 84.9063 82.916C85.1583 82.636 85.457 82.4167 85.8023 82.258C86.157 82.0993 86.5396 82.02 86.9503 82.02C87.445 82.02 87.8883 82.118 88.2803 82.314C88.6816 82.51 89.0736 82.7807 89.4563 83.126L90.8283 81.544C90.6043 81.32 90.3616 81.1147 90.1003 80.928C89.839 80.7413 89.5543 80.5827 89.2463 80.452C88.9383 80.3213 88.593 80.2187 88.2103 80.144C87.837 80.0693 87.4216 80.032 86.9643 80.032C86.2083 80.032 85.5176 80.1673 84.8923 80.438C84.267 80.6993 83.7303 81.0633 83.2823 81.53C82.8343 81.9873 82.4843 82.524 82.2323 83.14C81.9803 83.7467 81.8543 84.4 81.8543 85.1V85.128C81.8543 85.828 81.9803 86.486 82.2323 87.102C82.4843 87.718 82.8343 88.2547 83.2823 88.712C83.7303 89.16 84.2623 89.5147 84.8783 89.776C85.4943 90.0373 86.1616 90.168 86.8803 90.168C87.3563 90.168 87.7856 90.126 88.1683 90.042C88.551 89.9673 88.901 89.8553 89.2183 89.706C89.545 89.5473 89.8436 89.3607 90.1143 89.146C90.385 88.9313 90.6463 88.6887 90.8983 88.418ZM102.606 85.1V85.072C102.606 84.372 102.476 83.7187 102.214 83.112C101.962 82.496 101.603 81.964 101.136 81.516C100.679 81.0587 100.133 80.6993 99.4982 80.438C98.8636 80.1673 98.1682 80.032 97.4122 80.032C96.6562 80.032 95.9562 80.1673 95.3122 80.438C94.6776 80.6993 94.1269 81.0633 93.6602 81.53C93.2029 81.9873 92.8436 82.524 92.5822 83.14C92.3209 83.7467 92.1902 84.4 92.1902 85.1V85.128C92.1902 85.828 92.3162 86.486 92.5682 87.102C92.8296 87.7087 93.1889 88.2407 93.6462 88.698C94.1129 89.146 94.6636 89.5053 95.2982 89.776C95.9329 90.0373 96.6282 90.168 97.3842 90.168C98.1402 90.168 98.8356 90.0373 99.4702 89.776C100.114 89.5053 100.665 89.1413 101.122 88.684C101.589 88.2173 101.953 87.6807 102.214 87.074C102.476 86.458 102.606 85.8 102.606 85.1ZM100.352 85.128C100.352 85.548 100.278 85.9447 100.128 86.318C99.9882 86.682 99.7876 87.004 99.5262 87.284C99.2742 87.564 98.9662 87.7833 98.6022 87.942C98.2382 88.1007 97.8416 88.18 97.4122 88.18C96.9736 88.18 96.5722 88.1007 96.2082 87.942C95.8536 87.774 95.5409 87.55 95.2702 87.27C95.0089 86.99 94.8036 86.6633 94.6542 86.29C94.5142 85.9167 94.4442 85.52 94.4442 85.1V85.072C94.4442 84.652 94.5142 84.26 94.6542 83.896C94.8036 83.5227 95.0042 83.196 95.2562 82.916C95.5176 82.636 95.8256 82.4167 96.1802 82.258C96.5442 82.0993 96.9456 82.02 97.3842 82.02C97.8136 82.02 98.2102 82.104 98.5742 82.272C98.9382 82.4307 99.2509 82.65 99.5122 82.93C99.7829 83.21 99.9882 83.5367 100.128 83.91C100.278 84.2833 100.352 84.68 100.352 85.1V85.128ZM113.507 80.2H111.183L108.621 87.102L106.059 80.2H103.679L107.641 90.07H109.545L113.507 80.2ZM122.481 90V88.082H117.161V86.024H121.781V84.106H117.161V82.118H122.411V80.2H115.019V90H122.481ZM132.868 90L130.474 86.5C131.099 86.2667 131.603 85.9027 131.986 85.408C132.378 84.904 132.574 84.2553 132.574 83.462V83.434C132.574 82.4167 132.247 81.6233 131.594 81.054C130.95 80.4847 130.044 80.2 128.878 80.2H124.398V90H126.554V86.864H128.248L130.348 90H132.868ZM130.39 83.574C130.39 83.994 130.245 84.33 129.956 84.582C129.676 84.834 129.27 84.96 128.738 84.96H126.554V82.146H128.696C129.228 82.146 129.643 82.2627 129.942 82.496C130.24 82.7293 130.39 83.0793 130.39 83.546V83.574ZM148.26 90L144.06 80.13H142.072L137.872 90H140.07L140.966 87.802H145.11L146.006 90H148.26ZM144.34 85.898H141.736L143.038 82.72L144.34 85.898ZM157.529 83.616V83.588C157.529 83.084 157.44 82.6267 157.263 82.216C157.095 81.796 156.847 81.4367 156.521 81.138C156.203 80.8393 155.811 80.6107 155.345 80.452C154.887 80.284 154.365 80.2 153.777 80.2H149.773V90H151.929V87.06H153.567C154.117 87.06 154.631 86.99 155.107 86.85C155.592 86.7007 156.012 86.4813 156.367 86.192C156.731 85.9027 157.015 85.5433 157.221 85.114C157.426 84.6847 157.529 84.1853 157.529 83.616ZM155.345 83.658C155.345 84.078 155.195 84.4327 154.897 84.722C154.598 85.002 154.178 85.142 153.637 85.142H151.929V82.146H153.595C154.136 82.146 154.561 82.272 154.869 82.524C155.186 82.776 155.345 83.1447 155.345 83.63V83.658ZM166.88 83.616V83.588C166.88 83.084 166.792 82.6267 166.614 82.216C166.446 81.796 166.199 81.4367 165.872 81.138C165.555 80.8393 165.163 80.6107 164.696 80.452C164.239 80.284 163.716 80.2 163.128 80.2H159.124V90H161.28V87.06H162.918C163.469 87.06 163.982 86.99 164.458 86.85C164.944 86.7007 165.364 86.4813 165.718 86.192C166.082 85.9027 166.367 85.5433 166.572 85.114C166.778 84.6847 166.88 84.1853 166.88 83.616ZM164.696 83.658C164.696 84.078 164.547 84.4327 164.248 84.722C163.95 85.002 163.53 85.142 162.988 85.142H161.28V82.146H162.946C163.488 82.146 163.912 82.272 164.22 82.524C164.538 82.776 164.696 83.1447 164.696 83.63V83.658ZM79.6853 103.1V103.072C79.6853 102.372 79.5547 101.719 79.2933 101.112C79.0413 100.496 78.682 99.964 78.2153 99.516C77.758 99.0587 77.212 98.6993 76.5773 98.438C75.9427 98.1673 75.2473 98.032 74.4913 98.032C73.7353 98.032 73.0353 98.1673 72.3913 98.438C71.7567 98.6993 71.206 99.0633 70.7393 99.53C70.282 99.9873 69.9227 100.524 69.6613 101.14C69.4 101.747 69.2693 102.4 69.2693 103.1V103.128C69.2693 103.828 69.3953 104.486 69.6473 105.102C69.9087 105.709 70.268 106.241 70.7253 106.698C71.192 107.146 71.7427 107.505 72.3773 107.776C73.012 108.037 73.7073 108.168 74.4633 108.168C75.2193 108.168 75.9147 108.037 76.5493 107.776C77.1933 107.505 77.744 107.141 78.2013 106.684C78.668 106.217 79.032 105.681 79.2933 105.074C79.5547 104.458 79.6853 103.8 79.6853 103.1ZM77.4313 103.128C77.4313 103.548 77.3567 103.945 77.2073 104.318C77.0673 104.682 76.8667 105.004 76.6053 105.284C76.3533 105.564 76.0453 105.783 75.6813 105.942C75.3173 106.101 74.9207 106.18 74.4913 106.18C74.0527 106.18 73.6513 106.101 73.2873 105.942C72.9327 105.774 72.62 105.55 72.3493 105.27C72.088 104.99 71.8827 104.663 71.7333 104.29C71.5933 103.917 71.5233 103.52 71.5233 103.1V103.072C71.5233 102.652 71.5933 102.26 71.7333 101.896C71.8827 101.523 72.0833 101.196 72.3353 100.916C72.5967 100.636 72.9047 100.417 73.2593 100.258C73.6233 100.099 74.0247 100.02 74.4633 100.02C74.8927 100.02 75.2893 100.104 75.6533 100.272C76.0173 100.431 76.33 100.65 76.5913 100.93C76.862 101.21 77.0673 101.537 77.2073 101.91C77.3567 102.283 77.4313 102.68 77.4313 103.1V103.128ZM90.3059 108V98.2H88.1779V104.234L83.5859 98.2H81.5979V108H83.7259V101.77L88.4719 108H90.3059ZM105.76 106.614V102.358H101.504V104.22H103.674V105.62C103.123 106.012 102.446 106.208 101.644 106.208C101.205 106.208 100.804 106.133 100.44 105.984C100.085 105.825 99.7724 105.606 99.5017 105.326C99.2404 105.046 99.035 104.719 98.8857 104.346C98.7457 103.963 98.6757 103.548 98.6757 103.1V103.072C98.6757 102.652 98.7457 102.26 98.8857 101.896C99.035 101.523 99.2357 101.201 99.4877 100.93C99.749 100.65 100.048 100.431 100.384 100.272C100.729 100.104 101.098 100.02 101.49 100.02C101.77 100.02 102.026 100.043 102.26 100.09C102.493 100.137 102.708 100.202 102.904 100.286C103.109 100.37 103.305 100.473 103.492 100.594C103.678 100.715 103.865 100.855 104.052 101.014L105.41 99.376C105.158 99.1613 104.896 98.97 104.626 98.802C104.355 98.634 104.066 98.494 103.758 98.382C103.45 98.27 103.114 98.186 102.75 98.13C102.395 98.0647 101.998 98.032 101.56 98.032C100.813 98.032 100.127 98.1673 99.5017 98.438C98.8764 98.6993 98.335 99.0633 97.8777 99.53C97.4204 99.9873 97.061 100.524 96.7997 101.14C96.5477 101.747 96.4217 102.4 96.4217 103.1V103.128C96.4217 103.856 96.5477 104.528 96.7997 105.144C97.0517 105.76 97.4017 106.292 97.8497 106.74C98.307 107.188 98.8484 107.538 99.4737 107.79C100.108 108.042 100.808 108.168 101.574 108.168C102.47 108.168 103.263 108.019 103.954 107.72C104.654 107.412 105.256 107.043 105.76 106.614ZM117.816 103.1V103.072C117.816 102.372 117.686 101.719 117.424 101.112C117.172 100.496 116.813 99.964 116.346 99.516C115.889 99.0587 115.343 98.6993 114.708 98.438C114.074 98.1673 113.378 98.032 112.622 98.032C111.866 98.032 111.166 98.1673 110.522 98.438C109.888 98.6993 109.337 99.0633 108.87 99.53C108.413 99.9873 108.054 100.524 107.792 101.14C107.531 101.747 107.4 102.4 107.4 103.1V103.128C107.4 103.828 107.526 104.486 107.778 105.102C108.04 105.709 108.399 106.241 108.856 106.698C109.323 107.146 109.874 107.505 110.508 107.776C111.143 108.037 111.838 108.168 112.594 108.168C113.35 108.168 114.046 108.037 114.68 107.776C115.324 107.505 115.875 107.141 116.332 106.684C116.799 106.217 117.163 105.681 117.424 105.074C117.686 104.458 117.816 103.8 117.816 103.1ZM115.562 103.128C115.562 103.548 115.488 103.945 115.338 104.318C115.198 104.682 114.998 105.004 114.736 105.284C114.484 105.564 114.176 105.783 113.812 105.942C113.448 106.101 113.052 106.18 112.622 106.18C112.184 106.18 111.782 106.101 111.418 105.942C111.064 105.774 110.751 105.55 110.48 105.27C110.219 104.99 110.014 104.663 109.864 104.29C109.724 103.917 109.654 103.52 109.654 103.1V103.072C109.654 102.652 109.724 102.26 109.864 101.896C110.014 101.523 110.214 101.196 110.466 100.916C110.728 100.636 111.036 100.417 111.39 100.258C111.754 100.099 112.156 100.02 112.594 100.02C113.024 100.02 113.42 100.104 113.784 100.272C114.148 100.431 114.461 100.65 114.722 100.93C114.993 101.21 115.198 101.537 115.338 101.91C115.488 102.283 115.562 102.68 115.562 103.1V103.128ZM129.711 103.1V103.072C129.711 102.372 129.58 101.719 129.319 101.112C129.067 100.496 128.707 99.964 128.241 99.516C127.783 99.0587 127.237 98.6993 126.603 98.438C125.968 98.1673 125.273 98.032 124.517 98.032C123.761 98.032 123.061 98.1673 122.417 98.438C121.782 98.6993 121.231 99.0633 120.765 99.53C120.307 99.9873 119.948 100.524 119.687 101.14C119.425 101.747 119.295 102.4 119.295 103.1V103.128C119.295 103.828 119.421 104.486 119.673 105.102C119.934 105.709 120.293 106.241 120.751 106.698C121.217 107.146 121.768 107.505 122.403 107.776C123.037 108.037 123.733 108.168 124.489 108.168C125.245 108.168 125.94 108.037 126.575 107.776C127.219 107.505 127.769 107.141 128.227 106.684C128.693 106.217 129.057 105.681 129.319 105.074C129.58 104.458 129.711 103.8 129.711 103.1ZM127.457 103.128C127.457 103.548 127.382 103.945 127.233 104.318C127.093 104.682 126.892 105.004 126.631 105.284C126.379 105.564 126.071 105.783 125.707 105.942C125.343 106.101 124.946 106.18 124.517 106.18C124.078 106.18 123.677 106.101 123.313 105.942C122.958 105.774 122.645 105.55 122.375 105.27C122.113 104.99 121.908 104.663 121.759 104.29C121.619 103.917 121.549 103.52 121.549 103.1V103.072C121.549 102.652 121.619 102.26 121.759 101.896C121.908 101.523 122.109 101.196 122.361 100.916C122.622 100.636 122.93 100.417 123.285 100.258C123.649 100.099 124.05 100.02 124.489 100.02C124.918 100.02 125.315 100.104 125.679 100.272C126.043 100.431 126.355 100.65 126.617 100.93C126.887 101.21 127.093 101.537 127.233 101.91C127.382 102.283 127.457 102.68 127.457 103.1V103.128ZM140.527 106.614V102.358H136.271V104.22H138.441V105.62C137.891 106.012 137.214 106.208 136.411 106.208C135.973 106.208 135.571 106.133 135.207 105.984C134.853 105.825 134.54 105.606 134.269 105.326C134.008 105.046 133.803 104.719 133.653 104.346C133.513 103.963 133.443 103.548 133.443 103.1V103.072C133.443 102.652 133.513 102.26 133.653 101.896C133.803 101.523 134.003 101.201 134.255 100.93C134.517 100.65 134.815 100.431 135.151 100.272C135.497 100.104 135.865 100.02 136.257 100.02C136.537 100.02 136.794 100.043 137.027 100.09C137.261 100.137 137.475 100.202 137.671 100.286C137.877 100.37 138.073 100.473 138.259 100.594C138.446 100.715 138.633 100.855 138.819 101.014L140.177 99.376C139.925 99.1613 139.664 98.97 139.393 98.802C139.123 98.634 138.833 98.494 138.525 98.382C138.217 98.27 137.881 98.186 137.517 98.13C137.163 98.0647 136.766 98.032 136.327 98.032C135.581 98.032 134.895 98.1673 134.269 98.438C133.644 98.6993 133.103 99.0633 132.645 99.53C132.188 99.9873 131.829 100.524 131.567 101.14C131.315 101.747 131.189 102.4 131.189 103.1V103.128C131.189 103.856 131.315 104.528 131.567 105.144C131.819 105.76 132.169 106.292 132.617 106.74C133.075 107.188 133.616 107.538 134.241 107.79C134.876 108.042 135.576 108.168 136.341 108.168C137.237 108.168 138.031 108.019 138.721 107.72C139.421 107.412 140.023 107.043 140.527 106.614ZM149.644 108V106.04H144.758V98.2H142.602V108H149.644ZM158.732 108V106.082H153.412V104.024H158.032V102.106H153.412V100.118H158.662V98.2H151.27V108H158.732Z" fill="#293978"/>
<path d="M76.0126 205.1V205.072C76.0126 204.381 75.8866 203.742 75.6346 203.154C75.3826 202.557 75.0233 202.039 74.5566 201.6C74.0993 201.161 73.5486 200.821 72.9046 200.578C72.27 200.326 71.57 200.2 70.8046 200.2H66.9826V210H70.8046C71.57 210 72.27 209.874 72.9046 209.622C73.5486 209.37 74.0993 209.025 74.5566 208.586C75.0233 208.147 75.3826 207.629 75.6346 207.032C75.8866 206.435 76.0126 205.791 76.0126 205.1ZM73.7586 205.128C73.7586 205.567 73.684 205.963 73.5346 206.318C73.3946 206.673 73.194 206.981 72.9326 207.242C72.6806 207.503 72.3726 207.704 72.0086 207.844C71.6446 207.984 71.2433 208.054 70.8046 208.054H69.1386V202.146H70.8046C71.2433 202.146 71.6446 202.221 72.0086 202.37C72.3726 202.51 72.6806 202.711 72.9326 202.972C73.194 203.233 73.3946 203.546 73.5346 203.91C73.684 204.274 73.7586 204.671 73.7586 205.1V205.128ZM87.9158 205.1V205.072C87.9158 204.372 87.7851 203.719 87.5238 203.112C87.2718 202.496 86.9125 201.964 86.4458 201.516C85.9885 201.059 85.4425 200.699 84.8078 200.438C84.1731 200.167 83.4778 200.032 82.7218 200.032C81.9658 200.032 81.2658 200.167 80.6218 200.438C79.9871 200.699 79.4365 201.063 78.9698 201.53C78.5125 201.987 78.1531 202.524 77.8918 203.14C77.6305 203.747 77.4998 204.4 77.4998 205.1V205.128C77.4998 205.828 77.6258 206.486 77.8778 207.102C78.1391 207.709 78.4985 208.241 78.9558 208.698C79.4225 209.146 79.9731 209.505 80.6078 209.776C81.2425 210.037 81.9378 210.168 82.6938 210.168C83.4498 210.168 84.1451 210.037 84.7798 209.776C85.4238 209.505 85.9745 209.141 86.4318 208.684C86.8985 208.217 87.2625 207.681 87.5238 207.074C87.7851 206.458 87.9158 205.8 87.9158 205.1ZM85.6618 205.128C85.6618 205.548 85.5871 205.945 85.4378 206.318C85.2978 206.682 85.0971 207.004 84.8358 207.284C84.5838 207.564 84.2758 207.783 83.9118 207.942C83.5478 208.101 83.1511 208.18 82.7218 208.18C82.2831 208.18 81.8818 208.101 81.5178 207.942C81.1631 207.774 80.8505 207.55 80.5798 207.27C80.3185 206.99 80.1131 206.663 79.9638 206.29C79.8238 205.917 79.7538 205.52 79.7538 205.1V205.072C79.7538 204.652 79.8238 204.26 79.9638 203.896C80.1131 203.523 80.3138 203.196 80.5658 202.916C80.8271 202.636 81.1351 202.417 81.4898 202.258C81.8538 202.099 82.2551 202.02 82.6938 202.02C83.1231 202.02 83.5198 202.104 83.8838 202.272C84.2478 202.431 84.5605 202.65 84.8218 202.93C85.0925 203.21 85.2978 203.537 85.4378 203.91C85.5871 204.283 85.6618 204.68 85.6618 205.1V205.128ZM103.94 200.2H101.686L99.6563 206.836L97.4583 200.172H95.6103L93.4123 206.836L91.3823 200.2H89.0723L92.4183 210.07H94.2943L96.5063 203.658L98.7183 210.07H100.594L103.94 200.2ZM114.245 210V200.2H112.117V206.234L107.525 200.2H105.537V210H107.665V203.77L112.411 210H114.245ZM123.64 210V208.04H118.754V200.2H116.598V210H123.64ZM135.248 205.1V205.072C135.248 204.372 135.117 203.719 134.856 203.112C134.604 202.496 134.245 201.964 133.778 201.516C133.321 201.059 132.775 200.699 132.14 200.438C131.505 200.167 130.81 200.032 130.054 200.032C129.298 200.032 128.598 200.167 127.954 200.438C127.319 200.699 126.769 201.063 126.302 201.53C125.845 201.987 125.485 202.524 125.224 203.14C124.963 203.747 124.832 204.4 124.832 205.1V205.128C124.832 205.828 124.958 206.486 125.21 207.102C125.471 207.709 125.831 208.241 126.288 208.698C126.755 209.146 127.305 209.505 127.94 209.776C128.575 210.037 129.27 210.168 130.026 210.168C130.782 210.168 131.477 210.037 132.112 209.776C132.756 209.505 133.307 209.141 133.764 208.684C134.231 208.217 134.595 207.681 134.856 207.074C135.117 206.458 135.248 205.8 135.248 205.1ZM132.994 205.128C132.994 205.548 132.919 205.945 132.77 206.318C132.63 206.682 132.429 207.004 132.168 207.284C131.916 207.564 131.608 207.783 131.244 207.942C130.88 208.101 130.483 208.18 130.054 208.18C129.615 208.18 129.214 208.101 128.85 207.942C128.495 207.774 128.183 207.55 127.912 207.27C127.651 206.99 127.445 206.663 127.296 206.29C127.156 205.917 127.086 205.52 127.086 205.1V205.072C127.086 204.652 127.156 204.26 127.296 203.896C127.445 203.523 127.646 203.196 127.898 202.916C128.159 202.636 128.467 202.417 128.822 202.258C129.186 202.099 129.587 202.02 130.026 202.02C130.455 202.02 130.852 202.104 131.216 202.272C131.58 202.431 131.893 202.65 132.154 202.93C132.425 203.21 132.63 203.537 132.77 203.91C132.919 204.283 132.994 204.68 132.994 205.1V205.128ZM146.708 210L142.508 200.13H140.52L136.32 210H138.518L139.414 207.802H143.558L144.454 210H146.708ZM142.788 205.898H140.184L141.486 202.72L142.788 205.898ZM157.251 205.1V205.072C157.251 204.381 157.125 203.742 156.873 203.154C156.621 202.557 156.262 202.039 155.795 201.6C155.338 201.161 154.787 200.821 154.143 200.578C153.508 200.326 152.808 200.2 152.043 200.2H148.221V210H152.043C152.808 210 153.508 209.874 154.143 209.622C154.787 209.37 155.338 209.025 155.795 208.586C156.262 208.147 156.621 207.629 156.873 207.032C157.125 206.435 157.251 205.791 157.251 205.1ZM154.997 205.128C154.997 205.567 154.922 205.963 154.773 206.318C154.633 206.673 154.432 206.981 154.171 207.242C153.919 207.503 153.611 207.704 153.247 207.844C152.883 207.984 152.482 208.054 152.043 208.054H150.377V202.146H152.043C152.482 202.146 152.883 202.221 153.247 202.37C153.611 202.51 153.919 202.711 154.171 202.972C154.432 203.233 154.633 203.546 154.773 203.91C154.922 204.274 154.997 204.671 154.997 205.1V205.128ZM65.4324 223.1V223.072C65.4324 222.372 65.3017 221.719 65.0404 221.112C64.7884 220.496 64.4291 219.964 63.9624 219.516C63.5051 219.059 62.9591 218.699 62.3244 218.438C61.6897 218.167 60.9944 218.032 60.2384 218.032C59.4824 218.032 58.7824 218.167 58.1384 218.438C57.5037 218.699 56.9531 219.063 56.4864 219.53C56.0291 219.987 55.6697 220.524 55.4084 221.14C55.1471 221.747 55.0164 222.4 55.0164 223.1V223.128C55.0164 223.828 55.1424 224.486 55.3944 225.102C55.6557 225.709 56.0151 226.241 56.4724 226.698C56.9391 227.146 57.4897 227.505 58.1244 227.776C58.7591 228.037 59.4544 228.168 60.2104 228.168C60.9664 228.168 61.6617 228.037 62.2964 227.776C62.9404 227.505 63.4911 227.141 63.9484 226.684C64.4151 226.217 64.7791 225.681 65.0404 225.074C65.3017 224.458 65.4324 223.8 65.4324 223.1ZM63.1784 223.128C63.1784 223.548 63.1037 223.945 62.9544 224.318C62.8144 224.682 62.6137 225.004 62.3524 225.284C62.1004 225.564 61.7924 225.783 61.4284 225.942C61.0644 226.101 60.6677 226.18 60.2384 226.18C59.7997 226.18 59.3984 226.101 59.0344 225.942C58.6797 225.774 58.3671 225.55 58.0964 225.27C57.8351 224.99 57.6297 224.663 57.4804 224.29C57.3404 223.917 57.2704 223.52 57.2704 223.1V223.072C57.2704 222.652 57.3404 222.26 57.4804 221.896C57.6297 221.523 57.8304 221.196 58.0824 220.916C58.3437 220.636 58.6517 220.417 59.0064 220.258C59.3704 220.099 59.7717 220.02 60.2104 220.02C60.6397 220.02 61.0364 220.104 61.4004 220.272C61.7644 220.431 62.0771 220.65 62.3384 220.93C62.6091 221.21 62.8144 221.537 62.9544 221.91C63.1037 222.283 63.1784 222.68 63.1784 223.1V223.128ZM74.8069 220.16V218.2H67.3449V228H69.5009V224.206H74.1769V222.246H69.5009V220.16H74.8069ZM83.9944 220.16V218.2H76.5324V228H78.6884V224.206H83.3644V222.246H78.6884V220.16H83.9944ZM92.7619 228V226.04H87.8759V218.2H85.7199V228H92.7619ZM96.6419 228V218.2H94.4859V228H96.6419ZM107.799 228V218.2H105.671V224.234L101.079 218.2H99.091V228H101.219V221.77L105.965 228H107.799ZM117.614 228V226.082H112.294V224.024H116.914V222.106H112.294V220.118H117.544V218.2H110.152V228H117.614ZM131.148 220.188V218.2H123.028V220.188H126.01V228H128.166V220.188H131.148ZM142.788 223.1V223.072C142.788 222.372 142.657 221.719 142.396 221.112C142.144 220.496 141.785 219.964 141.318 219.516C140.861 219.059 140.315 218.699 139.68 218.438C139.045 218.167 138.35 218.032 137.594 218.032C136.838 218.032 136.138 218.167 135.494 218.438C134.859 218.699 134.309 219.063 133.842 219.53C133.385 219.987 133.025 220.524 132.764 221.14C132.503 221.747 132.372 222.4 132.372 223.1V223.128C132.372 223.828 132.498 224.486 132.75 225.102C133.011 225.709 133.371 226.241 133.828 226.698C134.295 227.146 134.845 227.505 135.48 227.776C136.115 228.037 136.81 228.168 137.566 228.168C138.322 228.168 139.017 228.037 139.652 227.776C140.296 227.505 140.847 227.141 141.304 226.684C141.771 226.217 142.135 225.681 142.396 225.074C142.657 224.458 142.788 223.8 142.788 223.1ZM140.534 223.128C140.534 223.548 140.459 223.945 140.31 224.318C140.17 224.682 139.969 225.004 139.708 225.284C139.456 225.564 139.148 225.783 138.784 225.942C138.42 226.101 138.023 226.18 137.594 226.18C137.155 226.18 136.754 226.101 136.39 225.942C136.035 225.774 135.723 225.55 135.452 225.27C135.191 224.99 134.985 224.663 134.836 224.29C134.696 223.917 134.626 223.52 134.626 223.1V223.072C134.626 222.652 134.696 222.26 134.836 221.896C134.985 221.523 135.186 221.196 135.438 220.916C135.699 220.636 136.007 220.417 136.362 220.258C136.726 220.099 137.127 220.02 137.566 220.02C137.995 220.02 138.392 220.104 138.756 220.272C139.12 220.431 139.433 220.65 139.694 220.93C139.965 221.21 140.17 221.537 140.31 221.91C140.459 222.283 140.534 222.68 140.534 223.1V223.128ZM152.456 221.616V221.588C152.456 221.084 152.368 220.627 152.19 220.216C152.022 219.796 151.775 219.437 151.448 219.138C151.131 218.839 150.739 218.611 150.272 218.452C149.815 218.284 149.292 218.2 148.704 218.2H144.7V228H146.856V225.06H148.494C149.045 225.06 149.558 224.99 150.034 224.85C150.52 224.701 150.94 224.481 151.294 224.192C151.658 223.903 151.943 223.543 152.148 223.114C152.354 222.685 152.456 222.185 152.456 221.616ZM150.272 221.658C150.272 222.078 150.123 222.433 149.824 222.722C149.526 223.002 149.106 223.142 148.564 223.142H146.856V220.146H148.522C149.064 220.146 149.488 220.272 149.796 220.524C150.114 220.776 150.272 221.145 150.272 221.63V221.658ZM164.034 223.1V223.072C164.034 222.372 163.903 221.719 163.642 221.112C163.39 220.496 163.031 219.964 162.564 219.516C162.107 219.059 161.561 218.699 160.926 218.438C160.291 218.167 159.596 218.032 158.84 218.032C158.084 218.032 157.384 218.167 156.74 218.438C156.105 218.699 155.555 219.063 155.088 219.53C154.631 219.987 154.271 220.524 154.01 221.14C153.749 221.747 153.618 222.4 153.618 223.1V223.128C153.618 223.828 153.744 224.486 153.996 225.102C154.257 225.709 154.617 226.241 155.074 226.698C155.541 227.146 156.091 227.505 156.726 227.776C157.361 228.037 158.056 228.168 158.812 228.168C159.568 228.168 160.263 228.037 160.898 227.776C161.542 227.505 162.093 227.141 162.55 226.684C163.017 226.217 163.381 225.681 163.642 225.074C163.903 224.458 164.034 223.8 164.034 223.1ZM161.78 223.128C161.78 223.548 161.705 223.945 161.556 224.318C161.416 224.682 161.215 225.004 160.954 225.284C160.702 225.564 160.394 225.783 160.03 225.942C159.666 226.101 159.269 226.18 158.84 226.18C158.401 226.18 158 226.101 157.636 225.942C157.281 225.774 156.969 225.55 156.698 225.27C156.437 224.99 156.231 224.663 156.082 224.29C155.942 223.917 155.872 223.52 155.872 223.1V223.072C155.872 222.652 155.942 222.26 156.082 221.896C156.231 221.523 156.432 221.196 156.684 220.916C156.945 220.636 157.253 220.417 157.608 220.258C157.972 220.099 158.373 220.02 158.812 220.02C159.241 220.02 159.638 220.104 160.002 220.272C160.366 220.431 160.679 220.65 160.94 220.93C161.211 221.21 161.416 221.537 161.556 221.91C161.705 222.283 161.78 222.68 161.78 223.1V223.128ZM173.031 225.102V225.074C173.031 224.645 172.961 224.276 172.821 223.968C172.69 223.66 172.489 223.394 172.219 223.17C171.957 222.937 171.631 222.741 171.239 222.582C170.856 222.414 170.417 222.265 169.923 222.134C169.503 222.022 169.153 221.924 168.873 221.84C168.602 221.756 168.387 221.667 168.229 221.574C168.07 221.481 167.958 221.378 167.893 221.266C167.837 221.145 167.809 221.005 167.809 220.846V220.818C167.809 220.575 167.911 220.375 168.117 220.216C168.331 220.048 168.649 219.964 169.069 219.964C169.489 219.964 169.909 220.053 170.329 220.23C170.749 220.398 171.178 220.631 171.617 220.93L172.737 219.306C172.233 218.905 171.677 218.597 171.071 218.382C170.473 218.167 169.815 218.06 169.097 218.06C168.593 218.06 168.131 218.13 167.711 218.27C167.291 218.41 166.927 218.611 166.619 218.872C166.32 219.133 166.087 219.446 165.919 219.81C165.751 220.165 165.667 220.566 165.667 221.014V221.042C165.667 221.527 165.741 221.933 165.891 222.26C166.049 222.587 166.269 222.862 166.549 223.086C166.829 223.301 167.169 223.483 167.571 223.632C167.972 223.781 168.42 223.917 168.915 224.038C169.325 224.141 169.657 224.239 169.909 224.332C170.17 224.425 170.371 224.519 170.511 224.612C170.66 224.705 170.758 224.808 170.805 224.92C170.861 225.023 170.889 225.144 170.889 225.284V225.312C170.889 225.601 170.763 225.83 170.511 225.998C170.268 226.157 169.923 226.236 169.475 226.236C168.915 226.236 168.397 226.129 167.921 225.914C167.454 225.699 166.997 225.41 166.549 225.046L165.275 226.572C165.863 227.104 166.516 227.501 167.235 227.762C167.953 228.014 168.686 228.14 169.433 228.14C169.965 228.14 170.45 228.075 170.889 227.944C171.327 227.804 171.705 227.608 172.023 227.356C172.34 227.095 172.587 226.777 172.765 226.404C172.942 226.021 173.031 225.587 173.031 225.102Z" fill="#293978"/>
<path d="M262.524 85.1V85.072C262.524 84.372 262.394 83.7187 262.132 83.112C261.88 82.496 261.521 81.964 261.054 81.516C260.597 81.0587 260.051 80.6993 259.416 80.438C258.782 80.1673 258.086 80.032 257.33 80.032C256.574 80.032 255.874 80.1673 255.23 80.438C254.596 80.6993 254.045 81.0633 253.578 81.53C253.121 81.9873 252.762 82.524 252.5 83.14C252.239 83.7467 252.108 84.4 252.108 85.1V85.128C252.108 85.828 252.234 86.486 252.486 87.102C252.748 87.7087 253.107 88.2407 253.564 88.698C254.031 89.146 254.582 89.5053 255.216 89.776C255.851 90.0373 256.546 90.168 257.302 90.168C258.058 90.168 258.754 90.0373 259.388 89.776C260.032 89.5053 260.583 89.1413 261.04 88.684C261.507 88.2173 261.871 87.6807 262.132 87.074C262.394 86.458 262.524 85.8 262.524 85.1ZM260.27 85.128C260.27 85.548 260.196 85.9447 260.046 86.318C259.906 86.682 259.706 87.004 259.444 87.284C259.192 87.564 258.884 87.7833 258.52 87.942C258.156 88.1007 257.76 88.18 257.33 88.18C256.892 88.18 256.49 88.1007 256.126 87.942C255.772 87.774 255.459 87.55 255.188 87.27C254.927 86.99 254.722 86.6633 254.572 86.29C254.432 85.9167 254.362 85.52 254.362 85.1V85.072C254.362 84.652 254.432 84.26 254.572 83.896C254.722 83.5227 254.922 83.196 255.174 82.916C255.436 82.636 255.744 82.4167 256.098 82.258C256.462 82.0993 256.864 82.02 257.302 82.02C257.732 82.02 258.128 82.104 258.492 82.272C258.856 82.4307 259.169 82.65 259.43 82.93C259.701 83.21 259.906 83.5367 260.046 83.91C260.196 84.2833 260.27 84.68 260.27 85.1V85.128ZM272.193 83.616V83.588C272.193 83.084 272.104 82.6267 271.927 82.216C271.759 81.796 271.511 81.4367 271.185 81.138C270.867 80.8393 270.475 80.6107 270.009 80.452C269.551 80.284 269.029 80.2 268.441 80.2H264.437V90H266.593V87.06H268.231C268.781 87.06 269.295 86.99 269.771 86.85C270.256 86.7007 270.676 86.4813 271.031 86.192C271.395 85.9027 271.679 85.5433 271.885 85.114C272.09 84.6847 272.193 84.1853 272.193 83.616ZM270.009 83.658C270.009 84.078 269.859 84.4327 269.561 84.722C269.262 85.002 268.842 85.142 268.301 85.142H266.593V82.146H268.259C268.8 82.146 269.225 82.272 269.533 82.524C269.85 82.776 270.009 83.1447 270.009 83.63V83.658ZM281.25 90V88.082H275.93V86.024H280.55V84.106H275.93V82.118H281.18V80.2H273.788V90H281.25ZM291.875 90V80.2H289.747V86.234L285.155 80.2H283.167V90H285.295V83.77L290.041 90H291.875ZM307.973 90L303.773 80.13H301.785L297.585 90H299.783L300.679 87.802H304.823L305.719 90H307.973ZM304.053 85.898H301.449L302.751 82.72L304.053 85.898ZM317.242 83.616V83.588C317.242 83.084 317.153 82.6267 316.976 82.216C316.808 81.796 316.56 81.4367 316.234 81.138C315.916 80.8393 315.524 80.6107 315.058 80.452C314.6 80.284 314.078 80.2 313.49 80.2H309.486V90H311.642V87.06H313.28C313.83 87.06 314.344 86.99 314.82 86.85C315.305 86.7007 315.725 86.4813 316.08 86.192C316.444 85.9027 316.728 85.5433 316.934 85.114C317.139 84.6847 317.242 84.1853 317.242 83.616ZM315.058 83.658C315.058 84.078 314.908 84.4327 314.61 84.722C314.311 85.002 313.891 85.142 313.35 85.142H311.642V82.146H313.308C313.849 82.146 314.274 82.272 314.582 82.524C314.899 82.776 315.058 83.1447 315.058 83.63V83.658ZM326.593 83.616V83.588C326.593 83.084 326.504 82.6267 326.327 82.216C326.159 81.796 325.912 81.4367 325.585 81.138C325.268 80.8393 324.876 80.6107 324.409 80.452C323.952 80.284 323.429 80.2 322.841 80.2H318.837V90H320.993V87.06H322.631C323.182 87.06 323.695 86.99 324.171 86.85C324.656 86.7007 325.076 86.4813 325.431 86.192C325.795 85.9027 326.08 85.5433 326.285 85.114C326.49 84.6847 326.593 84.1853 326.593 83.616ZM324.409 83.658C324.409 84.078 324.26 84.4327 323.961 84.722C323.662 85.002 323.242 85.142 322.701 85.142H320.993V82.146H322.659C323.2 82.146 323.625 82.272 323.933 82.524C324.25 82.776 324.409 83.1447 324.409 83.63V83.658ZM339.47 87.102V87.074C339.47 86.6447 339.4 86.276 339.26 85.968C339.129 85.66 338.929 85.394 338.658 85.17C338.397 84.9367 338.07 84.7407 337.678 84.582C337.295 84.414 336.857 84.2647 336.362 84.134C335.942 84.022 335.592 83.924 335.312 83.84C335.041 83.756 334.827 83.6673 334.668 83.574C334.509 83.4807 334.397 83.378 334.332 83.266C334.276 83.1447 334.248 83.0047 334.248 82.846V82.818C334.248 82.5753 334.351 82.3747 334.556 82.216C334.771 82.048 335.088 81.964 335.508 81.964C335.928 81.964 336.348 82.0527 336.768 82.23C337.188 82.398 337.617 82.6313 338.056 82.93L339.176 81.306C338.672 80.9047 338.117 80.5967 337.51 80.382C336.913 80.1673 336.255 80.06 335.536 80.06C335.032 80.06 334.57 80.13 334.15 80.27C333.73 80.41 333.366 80.6107 333.058 80.872C332.759 81.1333 332.526 81.446 332.358 81.81C332.19 82.1647 332.106 82.566 332.106 83.014V83.042C332.106 83.5273 332.181 83.9333 332.33 84.26C332.489 84.5867 332.708 84.862 332.988 85.086C333.268 85.3007 333.609 85.4827 334.01 85.632C334.411 85.7813 334.859 85.9167 335.354 86.038C335.765 86.1407 336.096 86.2387 336.348 86.332C336.609 86.4253 336.81 86.5187 336.95 86.612C337.099 86.7053 337.197 86.808 337.244 86.92C337.3 87.0227 337.328 87.144 337.328 87.284V87.312C337.328 87.6013 337.202 87.83 336.95 87.998C336.707 88.1567 336.362 88.236 335.914 88.236C335.354 88.236 334.836 88.1287 334.36 87.914C333.893 87.6993 333.436 87.41 332.988 87.046L331.714 88.572C332.302 89.104 332.955 89.5007 333.674 89.762C334.393 90.014 335.125 90.14 335.872 90.14C336.404 90.14 336.889 90.0747 337.328 89.944C337.767 89.804 338.145 89.608 338.462 89.356C338.779 89.0947 339.027 88.7773 339.204 88.404C339.381 88.0213 339.47 87.5873 339.47 87.102ZM348.761 82.188V80.2H340.641V82.188H343.623V90H345.779V82.188H348.761ZM360.401 85.1V85.072C360.401 84.372 360.27 83.7187 360.009 83.112C359.757 82.496 359.398 81.964 358.931 81.516C358.474 81.0587 357.928 80.6993 357.293 80.438C356.658 80.1673 355.963 80.032 355.207 80.032C354.451 80.032 353.751 80.1673 353.107 80.438C352.472 80.6993 351.922 81.0633 351.455 81.53C350.998 81.9873 350.638 82.524 350.377 83.14C350.116 83.7467 349.985 84.4 349.985 85.1V85.128C349.985 85.828 350.111 86.486 350.363 87.102C350.624 87.7087 350.984 88.2407 351.441 88.698C351.908 89.146 352.458 89.5053 353.093 89.776C353.728 90.0373 354.423 90.168 355.179 90.168C355.935 90.168 356.63 90.0373 357.265 89.776C357.909 89.5053 358.46 89.1413 358.917 88.684C359.384 88.2173 359.748 87.6807 360.009 87.074C360.27 86.458 360.401 85.8 360.401 85.1ZM358.147 85.128C358.147 85.548 358.072 85.9447 357.923 86.318C357.783 86.682 357.582 87.004 357.321 87.284C357.069 87.564 356.761 87.7833 356.397 87.942C356.033 88.1007 355.636 88.18 355.207 88.18C354.768 88.18 354.367 88.1007 354.003 87.942C353.648 87.774 353.336 87.55 353.065 87.27C352.804 86.99 352.598 86.6633 352.449 86.29C352.309 85.9167 352.239 85.52 352.239 85.1V85.072C352.239 84.652 352.309 84.26 352.449 83.896C352.598 83.5227 352.799 83.196 353.051 82.916C353.312 82.636 353.62 82.4167 353.975 82.258C354.339 82.0993 354.74 82.02 355.179 82.02C355.608 82.02 356.005 82.104 356.369 82.272C356.733 82.4307 357.046 82.65 357.307 82.93C357.578 83.21 357.783 83.5367 357.923 83.91C358.072 84.2833 358.147 84.68 358.147 85.1V85.128ZM370.784 90L368.39 86.5C369.015 86.2667 369.519 85.9027 369.902 85.408C370.294 84.904 370.49 84.2553 370.49 83.462V83.434C370.49 82.4167 370.163 81.6233 369.51 81.054C368.866 80.4847 367.96 80.2 366.794 80.2H362.314V90H364.47V86.864H366.164L368.264 90H370.784ZM368.306 83.574C368.306 83.994 368.161 84.33 367.872 84.582C367.592 84.834 367.186 84.96 366.654 84.96H364.47V82.146H366.612C367.144 82.146 367.559 82.2627 367.858 82.496C368.156 82.7293 368.306 83.0793 368.306 83.546V83.574ZM379.893 90V88.082H374.573V86.024H379.193V84.106H374.573V82.118H379.823V80.2H372.431V90H379.893Z" fill="#293978"/>
<path d="M253.412 207.102V207.074C253.412 206.645 253.342 206.276 253.202 205.968C253.072 205.66 252.871 205.394 252.6 205.17C252.339 204.937 252.012 204.741 251.62 204.582C251.238 204.414 250.799 204.265 250.304 204.134C249.884 204.022 249.534 203.924 249.254 203.84C248.984 203.756 248.769 203.667 248.61 203.574C248.452 203.481 248.34 203.378 248.274 203.266C248.218 203.145 248.19 203.005 248.19 202.846V202.818C248.19 202.575 248.293 202.375 248.498 202.216C248.713 202.048 249.03 201.964 249.45 201.964C249.87 201.964 250.29 202.053 250.71 202.23C251.13 202.398 251.56 202.631 251.998 202.93L253.118 201.306C252.614 200.905 252.059 200.597 251.452 200.382C250.855 200.167 250.197 200.06 249.478 200.06C248.974 200.06 248.512 200.13 248.092 200.27C247.672 200.41 247.308 200.611 247 200.872C246.702 201.133 246.468 201.446 246.3 201.81C246.132 202.165 246.048 202.566 246.048 203.014V203.042C246.048 203.527 246.123 203.933 246.272 204.26C246.431 204.587 246.65 204.862 246.93 205.086C247.21 205.301 247.551 205.483 247.952 205.632C248.354 205.781 248.802 205.917 249.296 206.038C249.707 206.141 250.038 206.239 250.29 206.332C250.552 206.425 250.752 206.519 250.892 206.612C251.042 206.705 251.14 206.808 251.186 206.92C251.242 207.023 251.27 207.144 251.27 207.284V207.312C251.27 207.601 251.144 207.83 250.892 207.998C250.65 208.157 250.304 208.236 249.856 208.236C249.296 208.236 248.778 208.129 248.302 207.914C247.836 207.699 247.378 207.41 246.93 207.046L245.656 208.572C246.244 209.104 246.898 209.501 247.616 209.762C248.335 210.014 249.068 210.14 249.814 210.14C250.346 210.14 250.832 210.075 251.27 209.944C251.709 209.804 252.087 209.608 252.404 209.356C252.722 209.095 252.969 208.777 253.146 208.404C253.324 208.021 253.412 207.587 253.412 207.102ZM262.745 210V208.082H257.425V206.024H262.045V204.106H257.425V202.118H262.675V200.2H255.283V210H262.745ZM274.21 210L270.01 200.13H268.022L263.822 210H266.02L266.916 207.802H271.06L271.956 210H274.21ZM270.29 205.898H267.686L268.988 202.72L270.29 205.898ZM284.193 210L281.799 206.5C282.424 206.267 282.928 205.903 283.311 205.408C283.703 204.904 283.899 204.255 283.899 203.462V203.434C283.899 202.417 283.572 201.623 282.919 201.054C282.275 200.485 281.37 200.2 280.203 200.2H275.723V210H277.879V206.864H279.573L281.673 210H284.193ZM281.715 203.574C281.715 203.994 281.57 204.33 281.281 204.582C281.001 204.834 280.595 204.96 280.063 204.96H277.879V202.146H280.021C280.553 202.146 280.968 202.263 281.267 202.496C281.566 202.729 281.715 203.079 281.715 203.546V203.574ZM294.45 208.418L293.078 207.032C292.695 207.387 292.308 207.667 291.916 207.872C291.533 208.077 291.062 208.18 290.502 208.18C290.082 208.18 289.695 208.101 289.34 207.942C288.995 207.774 288.696 207.55 288.444 207.27C288.201 206.99 288.01 206.663 287.87 206.29C287.73 205.917 287.66 205.52 287.66 205.1V205.072C287.66 204.652 287.73 204.26 287.87 203.896C288.01 203.523 288.206 203.196 288.458 202.916C288.71 202.636 289.009 202.417 289.354 202.258C289.709 202.099 290.091 202.02 290.502 202.02C290.997 202.02 291.44 202.118 291.832 202.314C292.233 202.51 292.625 202.781 293.008 203.126L294.38 201.544C294.156 201.32 293.913 201.115 293.652 200.928C293.391 200.741 293.106 200.583 292.798 200.452C292.49 200.321 292.145 200.219 291.762 200.144C291.389 200.069 290.973 200.032 290.516 200.032C289.76 200.032 289.069 200.167 288.444 200.438C287.819 200.699 287.282 201.063 286.834 201.53C286.386 201.987 286.036 202.524 285.784 203.14C285.532 203.747 285.406 204.4 285.406 205.1V205.128C285.406 205.828 285.532 206.486 285.784 207.102C286.036 207.718 286.386 208.255 286.834 208.712C287.282 209.16 287.814 209.515 288.43 209.776C289.046 210.037 289.713 210.168 290.432 210.168C290.908 210.168 291.337 210.126 291.72 210.042C292.103 209.967 292.453 209.855 292.77 209.706C293.097 209.547 293.395 209.361 293.666 209.146C293.937 208.931 294.198 208.689 294.45 208.418ZM304.464 210V200.2H302.308V204.078H298.332V200.2H296.176V210H298.332V206.066H302.308V210H304.464ZM318.472 202.16V200.2H311.01V210H313.166V206.206H317.842V204.246H313.166V202.16H318.472ZM330.179 205.1V205.072C330.179 204.372 330.049 203.719 329.787 203.112C329.535 202.496 329.176 201.964 328.709 201.516C328.252 201.059 327.706 200.699 327.071 200.438C326.437 200.167 325.741 200.032 324.985 200.032C324.229 200.032 323.529 200.167 322.885 200.438C322.251 200.699 321.7 201.063 321.233 201.53C320.776 201.987 320.417 202.524 320.155 203.14C319.894 203.747 319.763 204.4 319.763 205.1V205.128C319.763 205.828 319.889 206.486 320.141 207.102C320.403 207.709 320.762 208.241 321.219 208.698C321.686 209.146 322.237 209.505 322.871 209.776C323.506 210.037 324.201 210.168 324.957 210.168C325.713 210.168 326.409 210.037 327.043 209.776C327.687 209.505 328.238 209.141 328.695 208.684C329.162 208.217 329.526 207.681 329.787 207.074C330.049 206.458 330.179 205.8 330.179 205.1ZM327.925 205.128C327.925 205.548 327.851 205.945 327.701 206.318C327.561 206.682 327.361 207.004 327.099 207.284C326.847 207.564 326.539 207.783 326.175 207.942C325.811 208.101 325.415 208.18 324.985 208.18C324.547 208.18 324.145 208.101 323.781 207.942C323.427 207.774 323.114 207.55 322.843 207.27C322.582 206.99 322.377 206.663 322.227 206.29C322.087 205.917 322.017 205.52 322.017 205.1V205.072C322.017 204.652 322.087 204.26 322.227 203.896C322.377 203.523 322.577 203.196 322.829 202.916C323.091 202.636 323.399 202.417 323.753 202.258C324.117 202.099 324.519 202.02 324.957 202.02C325.387 202.02 325.783 202.104 326.147 202.272C326.511 202.431 326.824 202.65 327.085 202.93C327.356 203.21 327.561 203.537 327.701 203.91C327.851 204.283 327.925 204.68 327.925 205.1V205.128ZM340.562 210L338.168 206.5C338.793 206.267 339.297 205.903 339.68 205.408C340.072 204.904 340.268 204.255 340.268 203.462V203.434C340.268 202.417 339.941 201.623 339.288 201.054C338.644 200.485 337.739 200.2 336.572 200.2H332.092V210H334.248V206.864H335.942L338.042 210H340.562ZM338.084 203.574C338.084 203.994 337.939 204.33 337.65 204.582C337.37 204.834 336.964 204.96 336.432 204.96H334.248V202.146H336.39C336.922 202.146 337.337 202.263 337.636 202.496C337.935 202.729 338.084 203.079 338.084 203.546V203.574ZM355.954 210L351.754 200.13H349.766L345.566 210H347.764L348.66 207.802H352.804L353.7 210H355.954ZM352.034 205.898H349.43L350.732 202.72L352.034 205.898ZM365.937 210L363.543 206.5C364.168 206.267 364.672 205.903 365.055 205.408C365.447 204.904 365.643 204.255 365.643 203.462V203.434C365.643 202.417 365.316 201.623 364.663 201.054C364.019 200.485 363.114 200.2 361.947 200.2H357.467V210H359.623V206.864H361.317L363.417 210H365.937ZM363.459 203.574C363.459 203.994 363.314 204.33 363.025 204.582C362.745 204.834 362.339 204.96 361.807 204.96H359.623V202.146H361.765C362.297 202.146 362.712 202.263 363.011 202.496C363.31 202.729 363.459 203.079 363.459 203.546V203.574ZM375.046 210V208.082H369.726V206.024H374.346V204.106H369.726V202.118H374.976V200.2H367.584V210H375.046ZM386.511 210L382.311 200.13H380.323L376.123 210H378.321L379.217 207.802H383.361L384.257 210H386.511ZM382.591 205.898H379.987L381.289 202.72L382.591 205.898Z" fill="#293978"/>
<path d="M459.131 85.1V85.072C459.131 84.3813 459.005 83.742 458.753 83.154C458.501 82.5567 458.141 82.0387 457.675 81.6C457.217 81.1613 456.667 80.8207 456.023 80.578C455.388 80.326 454.688 80.2 453.923 80.2H450.101V90H453.923C454.688 90 455.388 89.874 456.023 89.622C456.667 89.37 457.217 89.0247 457.675 88.586C458.141 88.1473 458.501 87.6293 458.753 87.032C459.005 86.4347 459.131 85.7907 459.131 85.1ZM456.877 85.128C456.877 85.5667 456.802 85.9633 456.653 86.318C456.513 86.6727 456.312 86.9807 456.051 87.242C455.799 87.5033 455.491 87.704 455.127 87.844C454.763 87.984 454.361 88.054 453.923 88.054H452.257V82.146H453.923C454.361 82.146 454.763 82.2207 455.127 82.37C455.491 82.51 455.799 82.7107 456.051 82.972C456.312 83.2333 456.513 83.546 456.653 83.91C456.802 84.274 456.877 84.6707 456.877 85.1V85.128ZM471.034 85.1V85.072C471.034 84.372 470.903 83.7187 470.642 83.112C470.39 82.496 470.031 81.964 469.564 81.516C469.107 81.0587 468.561 80.6993 467.926 80.438C467.291 80.1673 466.596 80.032 465.84 80.032C465.084 80.032 464.384 80.1673 463.74 80.438C463.105 80.6993 462.555 81.0633 462.088 81.53C461.631 81.9873 461.271 82.524 461.01 83.14C460.749 83.7467 460.618 84.4 460.618 85.1V85.128C460.618 85.828 460.744 86.486 460.996 87.102C461.257 87.7087 461.617 88.2407 462.074 88.698C462.541 89.146 463.091 89.5053 463.726 89.776C464.361 90.0373 465.056 90.168 465.812 90.168C466.568 90.168 467.263 90.0373 467.898 89.776C468.542 89.5053 469.093 89.1413 469.55 88.684C470.017 88.2173 470.381 87.6807 470.642 87.074C470.903 86.458 471.034 85.8 471.034 85.1ZM468.78 85.128C468.78 85.548 468.705 85.9447 468.556 86.318C468.416 86.682 468.215 87.004 467.954 87.284C467.702 87.564 467.394 87.7833 467.03 87.942C466.666 88.1007 466.269 88.18 465.84 88.18C465.401 88.18 465 88.1007 464.636 87.942C464.281 87.774 463.969 87.55 463.698 87.27C463.437 86.99 463.231 86.6633 463.082 86.29C462.942 85.9167 462.872 85.52 462.872 85.1V85.072C462.872 84.652 462.942 84.26 463.082 83.896C463.231 83.5227 463.432 83.196 463.684 82.916C463.945 82.636 464.253 82.4167 464.608 82.258C464.972 82.0993 465.373 82.02 465.812 82.02C466.241 82.02 466.638 82.104 467.002 82.272C467.366 82.4307 467.679 82.65 467.94 82.93C468.211 83.21 468.416 83.5367 468.556 83.91C468.705 84.2833 468.78 84.68 468.78 85.1V85.128ZM487.059 80.2H484.805L482.775 86.836L480.577 80.172H478.729L476.531 86.836L474.501 80.2H472.191L475.537 90.07H477.413L479.625 83.658L481.837 90.07H483.713L487.059 80.2ZM497.363 90V80.2H495.235V86.234L490.643 80.2H488.655V90H490.783V83.77L495.529 90H497.363ZM506.758 90V88.04H501.872V80.2H499.716V90H506.758ZM518.366 85.1V85.072C518.366 84.372 518.235 83.7187 517.974 83.112C517.722 82.496 517.363 81.964 516.896 81.516C516.439 81.0587 515.893 80.6993 515.258 80.438C514.623 80.1673 513.928 80.032 513.172 80.032C512.416 80.032 511.716 80.1673 511.072 80.438C510.437 80.6993 509.887 81.0633 509.42 81.53C508.963 81.9873 508.603 82.524 508.342 83.14C508.081 83.7467 507.95 84.4 507.95 85.1V85.128C507.95 85.828 508.076 86.486 508.328 87.102C508.589 87.7087 508.949 88.2407 509.406 88.698C509.873 89.146 510.423 89.5053 511.058 89.776C511.693 90.0373 512.388 90.168 513.144 90.168C513.9 90.168 514.595 90.0373 515.23 89.776C515.874 89.5053 516.425 89.1413 516.882 88.684C517.349 88.2173 517.713 87.6807 517.974 87.074C518.235 86.458 518.366 85.8 518.366 85.1ZM516.112 85.128C516.112 85.548 516.037 85.9447 515.888 86.318C515.748 86.682 515.547 87.004 515.286 87.284C515.034 87.564 514.726 87.7833 514.362 87.942C513.998 88.1007 513.601 88.18 513.172 88.18C512.733 88.18 512.332 88.1007 511.968 87.942C511.613 87.774 511.301 87.55 511.03 87.27C510.769 86.99 510.563 86.6633 510.414 86.29C510.274 85.9167 510.204 85.52 510.204 85.1V85.072C510.204 84.652 510.274 84.26 510.414 83.896C510.563 83.5227 510.764 83.196 511.016 82.916C511.277 82.636 511.585 82.4167 511.94 82.258C512.304 82.0993 512.705 82.02 513.144 82.02C513.573 82.02 513.97 82.104 514.334 82.272C514.698 82.4307 515.011 82.65 515.272 82.93C515.543 83.21 515.748 83.5367 515.888 83.91C516.037 84.2833 516.112 84.68 516.112 85.1V85.128ZM529.827 90L525.627 80.13H523.639L519.439 90H521.637L522.533 87.802H526.677L527.573 90H529.827ZM525.907 85.898H523.303L524.605 82.72L525.907 85.898ZM540.369 85.1V85.072C540.369 84.3813 540.243 83.742 539.991 83.154C539.739 82.5567 539.38 82.0387 538.913 81.6C538.456 81.1613 537.905 80.8207 537.261 80.578C536.626 80.326 535.926 80.2 535.161 80.2H531.339V90H535.161C535.926 90 536.626 89.874 537.261 89.622C537.905 89.37 538.456 89.0247 538.913 88.586C539.38 88.1473 539.739 87.6293 539.991 87.032C540.243 86.4347 540.369 85.7907 540.369 85.1ZM538.115 85.128C538.115 85.5667 538.04 85.9633 537.891 86.318C537.751 86.6727 537.55 86.9807 537.289 87.242C537.037 87.5033 536.729 87.704 536.365 87.844C536.001 87.984 535.6 88.054 535.161 88.054H533.495V82.146H535.161C535.6 82.146 536.001 82.2207 536.365 82.37C536.729 82.51 537.037 82.7107 537.289 82.972C537.55 83.2333 537.751 83.546 537.891 83.91C538.04 84.274 538.115 84.6707 538.115 85.1V85.128ZM556.036 90L551.836 80.13H549.848L545.648 90H547.846L548.742 87.802H552.886L553.782 90H556.036ZM552.116 85.898H549.512L550.814 82.72L552.116 85.898ZM565.304 83.616V83.588C565.304 83.084 565.215 82.6267 565.038 82.216C564.87 81.796 564.623 81.4367 564.296 81.138C563.979 80.8393 563.587 80.6107 563.12 80.452C562.663 80.284 562.14 80.2 561.552 80.2H557.548V90H559.704V87.06H561.342C561.893 87.06 562.406 86.99 562.882 86.85C563.367 86.7007 563.787 86.4813 564.142 86.192C564.506 85.9027 564.791 85.5433 564.996 85.114C565.201 84.6847 565.304 84.1853 565.304 83.616ZM563.12 83.658C563.12 84.078 562.971 84.4327 562.672 84.722C562.373 85.002 561.953 85.142 561.412 85.142H559.704V82.146H561.37C561.911 82.146 562.336 82.272 562.644 82.524C562.961 82.776 563.12 83.1447 563.12 83.63V83.658ZM574.656 83.616V83.588C574.656 83.084 574.567 82.6267 574.39 82.216C574.222 81.796 573.974 81.4367 573.648 81.138C573.33 80.8393 572.938 80.6107 572.472 80.452C572.014 80.284 571.492 80.2 570.904 80.2H566.9V90H569.056V87.06H570.694C571.244 87.06 571.758 86.99 572.234 86.85C572.719 86.7007 573.139 86.4813 573.494 86.192C573.858 85.9027 574.142 85.5433 574.348 85.114C574.553 84.6847 574.656 84.1853 574.656 83.616ZM572.472 83.658C572.472 84.078 572.322 84.4327 572.024 84.722C571.725 85.002 571.305 85.142 570.764 85.142H569.056V82.146H570.722C571.263 82.146 571.688 82.272 571.996 82.524C572.313 82.776 572.472 83.1447 572.472 83.63V83.658Z" fill="#293978"/>
<path d="M459.721 207.102V207.074C459.721 206.645 459.651 206.276 459.511 205.968C459.38 205.66 459.18 205.394 458.909 205.17C458.648 204.937 458.321 204.741 457.929 204.582C457.546 204.414 457.108 204.265 456.613 204.134C456.193 204.022 455.843 203.924 455.563 203.84C455.292 203.756 455.078 203.667 454.919 203.574C454.76 203.481 454.648 203.378 454.583 203.266C454.527 203.145 454.499 203.005 454.499 202.846V202.818C454.499 202.575 454.602 202.375 454.807 202.216C455.022 202.048 455.339 201.964 455.759 201.964C456.179 201.964 456.599 202.053 457.019 202.23C457.439 202.398 457.868 202.631 458.307 202.93L459.427 201.306C458.923 200.905 458.368 200.597 457.761 200.382C457.164 200.167 456.506 200.06 455.787 200.06C455.283 200.06 454.821 200.13 454.401 200.27C453.981 200.41 453.617 200.611 453.309 200.872C453.01 201.133 452.777 201.446 452.609 201.81C452.441 202.165 452.357 202.566 452.357 203.014V203.042C452.357 203.527 452.432 203.933 452.581 204.26C452.74 204.587 452.959 204.862 453.239 205.086C453.519 205.301 453.86 205.483 454.261 205.632C454.662 205.781 455.11 205.917 455.605 206.038C456.016 206.141 456.347 206.239 456.599 206.332C456.86 206.425 457.061 206.519 457.201 206.612C457.35 206.705 457.448 206.808 457.495 206.92C457.551 207.023 457.579 207.144 457.579 207.284V207.312C457.579 207.601 457.453 207.83 457.201 207.998C456.958 208.157 456.613 208.236 456.165 208.236C455.605 208.236 455.087 208.129 454.611 207.914C454.144 207.699 453.687 207.41 453.239 207.046L451.965 208.572C452.553 209.104 453.206 209.501 453.925 209.762C454.644 210.014 455.376 210.14 456.123 210.14C456.655 210.14 457.14 210.075 457.579 209.944C458.018 209.804 458.396 209.608 458.713 209.356C459.03 209.095 459.278 208.777 459.455 208.404C459.632 208.021 459.721 207.587 459.721 207.102ZM463.846 210V200.2H461.69V210H463.846ZM475.199 208.614V204.358H470.943V206.22H473.113V207.62C472.562 208.012 471.886 208.208 471.083 208.208C470.644 208.208 470.243 208.133 469.879 207.984C469.524 207.825 469.212 207.606 468.941 207.326C468.68 207.046 468.474 206.719 468.325 206.346C468.185 205.963 468.115 205.548 468.115 205.1V205.072C468.115 204.652 468.185 204.26 468.325 203.896C468.474 203.523 468.675 203.201 468.927 202.93C469.188 202.65 469.487 202.431 469.823 202.272C470.168 202.104 470.537 202.02 470.929 202.02C471.209 202.02 471.466 202.043 471.699 202.09C471.932 202.137 472.147 202.202 472.343 202.286C472.548 202.37 472.744 202.473 472.931 202.594C473.118 202.715 473.304 202.855 473.491 203.014L474.849 201.376C474.597 201.161 474.336 200.97 474.065 200.802C473.794 200.634 473.505 200.494 473.197 200.382C472.889 200.27 472.553 200.186 472.189 200.13C471.834 200.065 471.438 200.032 470.999 200.032C470.252 200.032 469.566 200.167 468.941 200.438C468.316 200.699 467.774 201.063 467.317 201.53C466.86 201.987 466.5 202.524 466.239 203.14C465.987 203.747 465.861 204.4 465.861 205.1V205.128C465.861 205.856 465.987 206.528 466.239 207.144C466.491 207.76 466.841 208.292 467.289 208.74C467.746 209.188 468.288 209.538 468.913 209.79C469.548 210.042 470.248 210.168 471.013 210.168C471.909 210.168 472.702 210.019 473.393 209.72C474.093 209.412 474.695 209.043 475.199 208.614ZM485.982 210V200.2H483.854V206.234L479.262 200.2H477.274V210H479.402V203.77L484.148 210H485.982ZM496.72 205.73V200.2H494.564V205.814C494.564 206.598 494.378 207.186 494.004 207.578C493.631 207.97 493.113 208.166 492.45 208.166C491.788 208.166 491.27 207.965 490.896 207.564C490.523 207.153 490.336 206.547 490.336 205.744V200.2H488.18V205.8C488.18 207.247 488.558 208.334 489.314 209.062C490.07 209.79 491.106 210.154 492.422 210.154C493.076 210.154 493.668 210.065 494.2 209.888C494.732 209.701 495.185 209.426 495.558 209.062C495.932 208.689 496.216 208.227 496.412 207.676C496.618 207.125 496.72 206.477 496.72 205.73ZM506.672 203.616V203.588C506.672 203.084 506.584 202.627 506.406 202.216C506.238 201.796 505.991 201.437 505.664 201.138C505.347 200.839 504.955 200.611 504.488 200.452C504.031 200.284 503.508 200.2 502.92 200.2H498.916V210H501.072V207.06H502.71C503.261 207.06 503.774 206.99 504.25 206.85C504.736 206.701 505.156 206.481 505.51 206.192C505.874 205.903 506.159 205.543 506.364 205.114C506.57 204.685 506.672 204.185 506.672 203.616ZM504.488 203.658C504.488 204.078 504.339 204.433 504.04 204.722C503.742 205.002 503.322 205.142 502.78 205.142H501.072V202.146H502.738C503.28 202.146 503.704 202.272 504.012 202.524C504.33 202.776 504.488 203.145 504.488 203.63V203.658ZM520.641 209.09L519.199 207.648C519.442 207.321 519.67 206.981 519.885 206.626C520.1 206.271 520.3 205.921 520.487 205.576L518.905 204.708C518.746 205.007 518.588 205.301 518.429 205.59C518.27 205.87 518.112 206.136 517.953 206.388L516.651 205.086C517.258 204.853 517.752 204.531 518.135 204.12C518.518 203.709 518.709 203.173 518.709 202.51C518.709 202.165 518.644 201.843 518.513 201.544C518.382 201.236 518.196 200.97 517.953 200.746C517.71 200.522 517.421 200.349 517.085 200.228C516.749 200.097 516.371 200.032 515.951 200.032C515.475 200.032 515.05 200.107 514.677 200.256C514.313 200.396 514.005 200.587 513.753 200.83C513.501 201.063 513.31 201.339 513.179 201.656C513.048 201.964 512.983 202.286 512.983 202.622C512.983 202.967 513.034 203.299 513.137 203.616C513.249 203.924 513.426 204.251 513.669 204.596C513.053 204.876 512.582 205.24 512.255 205.688C511.928 206.127 511.765 206.663 511.765 207.298C511.765 207.737 511.849 208.133 512.017 208.488C512.185 208.833 512.414 209.132 512.703 209.384C513.002 209.627 513.352 209.813 513.753 209.944C514.154 210.075 514.588 210.14 515.055 210.14C515.624 210.14 516.142 210.042 516.609 209.846C517.085 209.641 517.524 209.375 517.925 209.048L519.059 210.196L520.641 209.09ZM516.833 202.636C516.833 202.953 516.721 203.215 516.497 203.42C516.282 203.616 515.96 203.793 515.531 203.952C515.326 203.719 515.176 203.513 515.083 203.336C514.999 203.149 514.957 202.944 514.957 202.72C514.957 202.421 515.041 202.179 515.209 201.992C515.386 201.805 515.62 201.712 515.909 201.712C516.18 201.712 516.399 201.791 516.567 201.95C516.744 202.109 516.833 202.337 516.833 202.636ZM516.721 207.816C516.497 207.993 516.264 208.133 516.021 208.236C515.788 208.329 515.55 208.376 515.307 208.376C514.906 208.376 514.574 208.273 514.313 208.068C514.061 207.853 513.935 207.569 513.935 207.214C513.935 206.971 514.005 206.738 514.145 206.514C514.285 206.281 514.518 206.08 514.845 205.912L516.721 207.816ZM533.452 210V208.04H528.566V200.2H526.41V210H533.452ZM545.06 205.1V205.072C545.06 204.372 544.93 203.719 544.668 203.112C544.416 202.496 544.057 201.964 543.59 201.516C543.133 201.059 542.587 200.699 541.952 200.438C541.318 200.167 540.622 200.032 539.866 200.032C539.11 200.032 538.41 200.167 537.766 200.438C537.132 200.699 536.581 201.063 536.114 201.53C535.657 201.987 535.298 202.524 535.036 203.14C534.775 203.747 534.644 204.4 534.644 205.1V205.128C534.644 205.828 534.77 206.486 535.022 207.102C535.284 207.709 535.643 208.241 536.1 208.698C536.567 209.146 537.118 209.505 537.752 209.776C538.387 210.037 539.082 210.168 539.838 210.168C540.594 210.168 541.29 210.037 541.924 209.776C542.568 209.505 543.119 209.141 543.576 208.684C544.043 208.217 544.407 207.681 544.668 207.074C544.93 206.458 545.06 205.8 545.06 205.1ZM542.806 205.128C542.806 205.548 542.732 205.945 542.582 206.318C542.442 206.682 542.242 207.004 541.98 207.284C541.728 207.564 541.42 207.783 541.056 207.942C540.692 208.101 540.296 208.18 539.866 208.18C539.428 208.18 539.026 208.101 538.662 207.942C538.308 207.774 537.995 207.55 537.724 207.27C537.463 206.99 537.258 206.663 537.108 206.29C536.968 205.917 536.898 205.52 536.898 205.1V205.072C536.898 204.652 536.968 204.26 537.108 203.896C537.258 203.523 537.458 203.196 537.71 202.916C537.972 202.636 538.28 202.417 538.634 202.258C538.998 202.099 539.4 202.02 539.838 202.02C540.268 202.02 540.664 202.104 541.028 202.272C541.392 202.431 541.705 202.65 541.966 202.93C542.237 203.21 542.442 203.537 542.582 203.91C542.732 204.283 542.806 204.68 542.806 205.1V205.128ZM555.877 208.614V204.358H551.621V206.22H553.791V207.62C553.24 208.012 552.564 208.208 551.761 208.208C551.322 208.208 550.921 208.133 550.557 207.984C550.202 207.825 549.89 207.606 549.619 207.326C549.358 207.046 549.152 206.719 549.003 206.346C548.863 205.963 548.793 205.548 548.793 205.1V205.072C548.793 204.652 548.863 204.26 549.003 203.896C549.152 203.523 549.353 203.201 549.605 202.93C549.866 202.65 550.165 202.431 550.501 202.272C550.846 202.104 551.215 202.02 551.607 202.02C551.887 202.02 552.144 202.043 552.377 202.09C552.61 202.137 552.825 202.202 553.021 202.286C553.226 202.37 553.422 202.473 553.609 202.594C553.796 202.715 553.982 202.855 554.169 203.014L555.527 201.376C555.275 201.161 555.014 200.97 554.743 200.802C554.472 200.634 554.183 200.494 553.875 200.382C553.567 200.27 553.231 200.186 552.867 200.13C552.512 200.065 552.116 200.032 551.677 200.032C550.93 200.032 550.244 200.167 549.619 200.438C548.994 200.699 548.452 201.063 547.995 201.53C547.538 201.987 547.178 202.524 546.917 203.14C546.665 203.747 546.539 204.4 546.539 205.1V205.128C546.539 205.856 546.665 206.528 546.917 207.144C547.169 207.76 547.519 208.292 547.967 208.74C548.424 209.188 548.966 209.538 549.591 209.79C550.226 210.042 550.926 210.168 551.691 210.168C552.587 210.168 553.38 210.019 554.071 209.72C554.771 209.412 555.373 209.043 555.877 208.614ZM560.205 210V200.2H558.049V210H560.205ZM571.363 210V200.2H569.235V206.234L564.643 200.2H562.655V210H564.783V203.77L569.529 210H571.363Z" fill="#293978"/>
<circle opacity="0.5" cx="117" cy="43" r="12" fill="#FB6B46"/>
<circle opacity="0.5" cx="117" cy="163" r="12" fill="#FB6B46"/>
<circle opacity="0.5" cx="316" cy="43" r="12" fill="#FB6B46"/>
<circle opacity="0.5" cx="316" cy="163" r="12" fill="#FB6B46"/>
<circle opacity="0.5" cx="509" cy="43" r="12" fill="#FB6B46"/>
<circle opacity="0.5" cx="509" cy="163" r="12" fill="#FB6B46"/>
<path d="M361.939 164.939C361.354 165.525 361.354 166.475 361.939 167.061L371.485 176.607C372.071 177.192 373.021 177.192 373.607 176.607C374.192 176.021 374.192 175.071 373.607 174.485L365.121 166L373.607 157.515C374.192 156.929 374.192 155.979 373.607 155.393C373.021 154.808 372.071 154.808 371.485 155.393L361.939 164.939ZM471 164.5L363 164.5L363 167.5L471 167.5L471 164.5Z" fill="#FB6B46"/>
<path d="M270.061 47.0607C270.646 46.4749 270.646 45.5251 270.061 44.9394L260.515 35.3934C259.929 34.8076 258.979 34.8076 258.393 35.3934C257.808 35.9792 257.808 36.9289 258.393 37.5147L266.879 46L258.393 54.4853C257.808 55.0711 257.808 56.0208 258.393 56.6066C258.979 57.1924 259.929 57.1924 260.515 56.6066L270.061 47.0607ZM161 47.5L269 47.5L269 44.5L161 44.5L161 47.5Z" fill="#FB6B46"/>
<path d="M159.939 164.939C159.354 165.525 159.354 166.475 159.939 167.061L169.485 176.607C170.071 177.192 171.021 177.192 171.607 176.607C172.192 176.021 172.192 175.071 171.607 174.485L163.121 166L171.607 157.515C172.192 156.929 172.192 155.979 171.607 155.393C171.021 154.808 170.071 154.808 169.485 155.393L159.939 164.939ZM269 164.5L161 164.5L161 167.5L269 167.5L269 164.5Z" fill="#FB6B46"/>
<path d="M472.061 47.0607C472.646 46.4749 472.646 45.5251 472.061 44.9394L462.515 35.3934C461.929 34.8076 460.979 34.8076 460.393 35.3934C459.808 35.9792 459.808 36.9289 460.393 37.5147L468.879 46L460.393 54.4853C459.808 55.0711 459.808 56.0208 460.393 56.6066C460.979 57.1924 461.929 57.1924 462.515 56.6066L472.061 47.0607ZM363 47.5L471 47.5L471 44.5L363 44.5L363 47.5Z" fill="#FB6B46"/>
<path d="M540.939 164.939C540.354 165.525 540.354 166.475 540.939 167.061L550.485 176.607C551.071 177.192 552.021 177.192 552.607 176.607C553.192 176.021 553.192 175.071 552.607 174.485L544.121 166L552.607 157.515C553.192 156.929 553.192 155.979 552.607 155.393C552.021 154.808 551.071 154.808 550.485 155.393L540.939 164.939ZM566 164.5H542V167.5H566V164.5Z" fill="#FB6B46"/>
<mask id="mask0" mask-type="alpha" maskUnits="userSpaceOnUse" x="563" y="0" width="90" height="182">
<rect x="563" width="89.2332" height="182" fill="#C4C4C4"/>
</mask>
<g mask="url(#mask0)">
<rect x="546.992" y="36.5" width="82.8446" height="130" rx="14.5" stroke="#FB6B46" stroke-width="3"/>
</g>
</svg>
