<svg width="702" height="146" viewBox="0 0 702 146" fill="none" xmlns="http://www.w3.org/2000/svg">
<path d="M94.2314 91.1V91.072C94.2314 90.3813 94.1054 89.742 93.8534 89.154C93.6014 88.5567 93.2421 88.0387 92.7754 87.6C92.3181 87.1613 91.7674 86.8207 91.1234 86.578C90.4887 86.326 89.7887 86.2 89.0234 86.2H85.2014V96H89.0234C89.7887 96 90.4887 95.874 91.1234 95.622C91.7674 95.37 92.3181 95.0247 92.7754 94.586C93.2421 94.1473 93.6014 93.6293 93.8534 93.032C94.1054 92.4347 94.2314 91.7907 94.2314 91.1ZM91.9774 91.128C91.9774 91.5667 91.9027 91.9633 91.7534 92.318C91.6134 92.6727 91.4127 92.9807 91.1514 93.242C90.8994 93.5033 90.5914 93.704 90.2274 93.844C89.8634 93.984 89.4621 94.054 89.0234 94.054H87.3574V88.146H89.0234C89.4621 88.146 89.8634 88.2207 90.2274 88.37C90.5914 88.51 90.8994 88.7107 91.1514 88.972C91.4127 89.2333 91.6134 89.546 91.7534 89.91C91.9027 90.274 91.9774 90.6707 91.9774 91.1V91.128ZM98.4066 96V86.2H96.2506V96H98.4066ZM107.94 93.102V93.074C107.94 92.6447 107.87 92.276 107.73 91.968C107.599 91.66 107.398 91.394 107.128 91.17C106.866 90.9367 106.54 90.7407 106.148 90.582C105.765 90.414 105.326 90.2647 104.832 90.134C104.412 90.022 104.062 89.924 103.782 89.84C103.511 89.756 103.296 89.6673 103.138 89.574C102.979 89.4807 102.867 89.378 102.802 89.266C102.746 89.1447 102.718 89.0047 102.718 88.846V88.818C102.718 88.5753 102.82 88.3747 103.026 88.216C103.24 88.048 103.558 87.964 103.978 87.964C104.398 87.964 104.818 88.0527 105.238 88.23C105.658 88.398 106.087 88.6313 106.526 88.93L107.646 87.306C107.142 86.9047 106.586 86.5967 105.98 86.382C105.382 86.1673 104.724 86.06 104.006 86.06C103.502 86.06 103.04 86.13 102.62 86.27C102.2 86.41 101.836 86.6107 101.528 86.872C101.229 87.1333 100.996 87.446 100.828 87.81C100.66 88.1647 100.576 88.566 100.576 89.014V89.042C100.576 89.5273 100.65 89.9333 100.8 90.26C100.958 90.5867 101.178 90.862 101.458 91.086C101.738 91.3007 102.078 91.4827 102.48 91.632C102.881 91.7813 103.329 91.9167 103.824 92.038C104.234 92.1407 104.566 92.2387 104.818 92.332C105.079 92.4253 105.28 92.5187 105.42 92.612C105.569 92.7053 105.667 92.808 105.714 92.92C105.77 93.0227 105.798 93.144 105.798 93.284V93.312C105.798 93.6013 105.672 93.83 105.42 93.998C105.177 94.1567 104.832 94.236 104.384 94.236C103.824 94.236 103.306 94.1287 102.83 93.914C102.363 93.6993 101.906 93.41 101.458 93.046L100.184 94.572C100.772 95.104 101.425 95.5007 102.144 95.762C102.862 96.014 103.595 96.14 104.342 96.14C104.874 96.14 105.359 96.0747 105.798 95.944C106.236 95.804 106.614 95.608 106.932 95.356C107.249 95.0947 107.496 94.7773 107.674 94.404C107.851 94.0213 107.94 93.5873 107.94 93.102ZM118.421 94.418L117.049 93.032C116.666 93.3867 116.279 93.6667 115.887 93.872C115.504 94.0773 115.033 94.18 114.473 94.18C114.053 94.18 113.665 94.1007 113.311 93.942C112.965 93.774 112.667 93.55 112.415 93.27C112.172 92.99 111.981 92.6633 111.841 92.29C111.701 91.9167 111.631 91.52 111.631 91.1V91.072C111.631 90.652 111.701 90.26 111.841 89.896C111.981 89.5227 112.177 89.196 112.429 88.916C112.681 88.636 112.979 88.4167 113.325 88.258C113.679 88.0993 114.062 88.02 114.473 88.02C114.967 88.02 115.411 88.118 115.803 88.314C116.204 88.51 116.596 88.7807 116.979 89.126L118.351 87.544C118.127 87.32 117.884 87.1147 117.623 86.928C117.361 86.7413 117.077 86.5827 116.769 86.452C116.461 86.3213 116.115 86.2187 115.733 86.144C115.359 86.0693 114.944 86.032 114.487 86.032C113.731 86.032 113.04 86.1673 112.415 86.438C111.789 86.6993 111.253 87.0633 110.805 87.53C110.357 87.9873 110.007 88.524 109.755 89.14C109.503 89.7467 109.377 90.4 109.377 91.1V91.128C109.377 91.828 109.503 92.486 109.755 93.102C110.007 93.718 110.357 94.2547 110.805 94.712C111.253 95.16 111.785 95.5147 112.401 95.776C113.017 96.0373 113.684 96.168 114.403 96.168C114.879 96.168 115.308 96.126 115.691 96.042C116.073 95.9673 116.423 95.8553 116.741 95.706C117.067 95.5473 117.366 95.3607 117.637 95.146C117.907 94.9313 118.169 94.6887 118.421 94.418ZM130.129 91.1V91.072C130.129 90.372 129.998 89.7187 129.737 89.112C129.485 88.496 129.125 87.964 128.659 87.516C128.201 87.0587 127.655 86.6993 127.021 86.438C126.386 86.1673 125.691 86.032 124.935 86.032C124.179 86.032 123.479 86.1673 122.835 86.438C122.2 86.6993 121.649 87.0633 121.183 87.53C120.725 87.9873 120.366 88.524 120.105 89.14C119.843 89.7467 119.713 90.4 119.713 91.1V91.128C119.713 91.828 119.839 92.486 120.091 93.102C120.352 93.7087 120.711 94.2407 121.169 94.698C121.635 95.146 122.186 95.5053 122.821 95.776C123.455 96.0373 124.151 96.168 124.907 96.168C125.663 96.168 126.358 96.0373 126.993 95.776C127.637 95.5053 128.187 95.1413 128.645 94.684C129.111 94.2173 129.475 93.6807 129.737 93.074C129.998 92.458 130.129 91.8 130.129 91.1ZM127.875 91.128C127.875 91.548 127.8 91.9447 127.651 92.318C127.511 92.682 127.31 93.004 127.049 93.284C126.797 93.564 126.489 93.7833 126.125 93.942C125.761 94.1007 125.364 94.18 124.935 94.18C124.496 94.18 124.095 94.1007 123.731 93.942C123.376 93.774 123.063 93.55 122.793 93.27C122.531 92.99 122.326 92.6633 122.177 92.29C122.037 91.9167 121.967 91.52 121.967 91.1V91.072C121.967 90.652 122.037 90.26 122.177 89.896C122.326 89.5227 122.527 89.196 122.779 88.916C123.04 88.636 123.348 88.4167 123.703 88.258C124.067 88.0993 124.468 88.02 124.907 88.02C125.336 88.02 125.733 88.104 126.097 88.272C126.461 88.4307 126.773 88.65 127.035 88.93C127.305 89.21 127.511 89.5367 127.651 89.91C127.8 90.2833 127.875 90.68 127.875 91.1V91.128ZM141.029 86.2H138.705L136.143 93.102L133.581 86.2H131.201L135.163 96.07H137.067L141.029 86.2ZM150.003 96V94.082H144.683V92.024H149.303V90.106H144.683V88.118H149.933V86.2H142.541V96H150.003ZM160.39 96L157.996 92.5C158.621 92.2667 159.125 91.9027 159.508 91.408C159.9 90.904 160.096 90.2553 160.096 89.462V89.434C160.096 88.4167 159.769 87.6233 159.116 87.054C158.472 86.4847 157.567 86.2 156.4 86.2H151.92V96H154.076V92.864H155.77L157.87 96H160.39ZM157.912 89.574C157.912 89.994 157.767 90.33 157.478 90.582C157.198 90.834 156.792 90.96 156.26 90.96H154.076V88.146H156.218C156.75 88.146 157.165 88.2627 157.464 88.496C157.763 88.7293 157.912 89.0793 157.912 89.546V89.574ZM175.783 96L171.583 86.13H169.595L165.395 96H167.593L168.489 93.802H172.633L173.529 96H175.783ZM171.863 91.898H169.259L170.561 88.72L171.863 91.898ZM185.051 89.616V89.588C185.051 89.084 184.962 88.6267 184.785 88.216C184.617 87.796 184.37 87.4367 184.043 87.138C183.726 86.8393 183.334 86.6107 182.867 86.452C182.41 86.284 181.887 86.2 181.299 86.2H177.295V96H179.451V93.06H181.089C181.64 93.06 182.153 92.99 182.629 92.85C183.114 92.7007 183.534 92.4813 183.889 92.192C184.253 91.9027 184.538 91.5433 184.743 91.114C184.948 90.6847 185.051 90.1853 185.051 89.616ZM182.867 89.658C182.867 90.078 182.718 90.4327 182.419 90.722C182.12 91.002 181.7 91.142 181.159 91.142H179.451V88.146H181.117C181.658 88.146 182.083 88.272 182.391 88.524C182.708 88.776 182.867 89.1447 182.867 89.63V89.658ZM194.403 89.616V89.588C194.403 89.084 194.314 88.6267 194.137 88.216C193.969 87.796 193.721 87.4367 193.395 87.138C193.077 86.8393 192.685 86.6107 192.219 86.452C191.761 86.284 191.239 86.2 190.651 86.2H186.647V96H188.803V93.06H190.441C190.991 93.06 191.505 92.99 191.981 92.85C192.466 92.7007 192.886 92.4813 193.241 92.192C193.605 91.9027 193.889 91.5433 194.095 91.114C194.3 90.6847 194.403 90.1853 194.403 89.616ZM192.219 89.658C192.219 90.078 192.069 90.4327 191.771 90.722C191.472 91.002 191.052 91.142 190.511 91.142H188.803V88.146H190.469C191.01 88.146 191.435 88.272 191.743 88.524C192.06 88.776 192.219 89.1447 192.219 89.63V89.658ZM210.178 91.1V91.072C210.178 90.372 210.047 89.7187 209.786 89.112C209.534 88.496 209.174 87.964 208.708 87.516C208.25 87.0587 207.704 86.6993 207.07 86.438C206.435 86.1673 205.74 86.032 204.984 86.032C204.228 86.032 203.528 86.1673 202.884 86.438C202.249 86.6993 201.698 87.0633 201.232 87.53C200.774 87.9873 200.415 88.524 200.154 89.14C199.892 89.7467 199.762 90.4 199.762 91.1V91.128C199.762 91.828 199.888 92.486 200.14 93.102C200.401 93.7087 200.76 94.2407 201.218 94.698C201.684 95.146 202.235 95.5053 202.87 95.776C203.504 96.0373 204.2 96.168 204.956 96.168C205.712 96.168 206.407 96.0373 207.042 95.776C207.686 95.5053 208.236 95.1413 208.694 94.684C209.16 94.2173 209.524 93.6807 209.786 93.074C210.047 92.458 210.178 91.8 210.178 91.1ZM207.924 91.128C207.924 91.548 207.849 91.9447 207.7 92.318C207.56 92.682 207.359 93.004 207.098 93.284C206.846 93.564 206.538 93.7833 206.174 93.942C205.81 94.1007 205.413 94.18 204.984 94.18C204.545 94.18 204.144 94.1007 203.78 93.942C203.425 93.774 203.112 93.55 202.842 93.27C202.58 92.99 202.375 92.6633 202.226 92.29C202.086 91.9167 202.016 91.52 202.016 91.1V91.072C202.016 90.652 202.086 90.26 202.226 89.896C202.375 89.5227 202.576 89.196 202.828 88.916C203.089 88.636 203.397 88.4167 203.752 88.258C204.116 88.0993 204.517 88.02 204.956 88.02C205.385 88.02 205.782 88.104 206.146 88.272C206.51 88.4307 206.822 88.65 207.084 88.93C207.354 89.21 207.56 89.5367 207.7 89.91C207.849 90.2833 207.924 90.68 207.924 91.1V91.128ZM220.798 96V86.2H218.67V92.234L214.078 86.2H212.09V96H214.218V89.77L218.964 96H220.798ZM131.184 112.614V108.358H126.928V110.22H129.098V111.62C128.547 112.012 127.87 112.208 127.068 112.208C126.629 112.208 126.228 112.133 125.864 111.984C125.509 111.825 125.196 111.606 124.926 111.326C124.664 111.046 124.459 110.719 124.31 110.346C124.17 109.963 124.1 109.548 124.1 109.1V109.072C124.1 108.652 124.17 108.26 124.31 107.896C124.459 107.523 124.66 107.201 124.912 106.93C125.173 106.65 125.472 106.431 125.808 106.272C126.153 106.104 126.522 106.02 126.914 106.02C127.194 106.02 127.45 106.043 127.684 106.09C127.917 106.137 128.132 106.202 128.328 106.286C128.533 106.37 128.729 106.473 128.916 106.594C129.102 106.715 129.289 106.855 129.476 107.014L130.834 105.376C130.582 105.161 130.32 104.97 130.05 104.802C129.779 104.634 129.49 104.494 129.182 104.382C128.874 104.27 128.538 104.186 128.174 104.13C127.819 104.065 127.422 104.032 126.984 104.032C126.237 104.032 125.551 104.167 124.926 104.438C124.3 104.699 123.759 105.063 123.302 105.53C122.844 105.987 122.485 106.524 122.224 107.14C121.972 107.747 121.846 108.4 121.846 109.1V109.128C121.846 109.856 121.972 110.528 122.224 111.144C122.476 111.76 122.826 112.292 123.274 112.74C123.731 113.188 124.272 113.538 124.898 113.79C125.532 114.042 126.232 114.168 126.998 114.168C127.894 114.168 128.687 114.019 129.378 113.72C130.078 113.412 130.68 113.043 131.184 112.614ZM143.24 109.1V109.072C143.24 108.372 143.109 107.719 142.848 107.112C142.596 106.496 142.237 105.964 141.77 105.516C141.313 105.059 140.767 104.699 140.132 104.438C139.497 104.167 138.802 104.032 138.046 104.032C137.29 104.032 136.59 104.167 135.946 104.438C135.311 104.699 134.761 105.063 134.294 105.53C133.837 105.987 133.477 106.524 133.216 107.14C132.955 107.747 132.824 108.4 132.824 109.1V109.128C132.824 109.828 132.95 110.486 133.202 111.102C133.463 111.709 133.823 112.241 134.28 112.698C134.747 113.146 135.297 113.505 135.932 113.776C136.567 114.037 137.262 114.168 138.018 114.168C138.774 114.168 139.469 114.037 140.104 113.776C140.748 113.505 141.299 113.141 141.756 112.684C142.223 112.217 142.587 111.681 142.848 111.074C143.109 110.458 143.24 109.8 143.24 109.1ZM140.986 109.128C140.986 109.548 140.911 109.945 140.762 110.318C140.622 110.682 140.421 111.004 140.16 111.284C139.908 111.564 139.6 111.783 139.236 111.942C138.872 112.101 138.475 112.18 138.046 112.18C137.607 112.18 137.206 112.101 136.842 111.942C136.487 111.774 136.175 111.55 135.904 111.27C135.643 110.99 135.437 110.663 135.288 110.29C135.148 109.917 135.078 109.52 135.078 109.1V109.072C135.078 108.652 135.148 108.26 135.288 107.896C135.437 107.523 135.638 107.196 135.89 106.916C136.151 106.636 136.459 106.417 136.814 106.258C137.178 106.099 137.579 106.02 138.018 106.02C138.447 106.02 138.844 106.104 139.208 106.272C139.572 106.431 139.885 106.65 140.146 106.93C140.417 107.21 140.622 107.537 140.762 107.91C140.911 108.283 140.986 108.68 140.986 109.1V109.128ZM155.135 109.1V109.072C155.135 108.372 155.004 107.719 154.743 107.112C154.491 106.496 154.131 105.964 153.665 105.516C153.207 105.059 152.661 104.699 152.027 104.438C151.392 104.167 150.697 104.032 149.941 104.032C149.185 104.032 148.485 104.167 147.841 104.438C147.206 104.699 146.655 105.063 146.189 105.53C145.731 105.987 145.372 106.524 145.111 107.14C144.849 107.747 144.719 108.4 144.719 109.1V109.128C144.719 109.828 144.845 110.486 145.097 111.102C145.358 111.709 145.717 112.241 146.175 112.698C146.641 113.146 147.192 113.505 147.827 113.776C148.461 114.037 149.157 114.168 149.913 114.168C150.669 114.168 151.364 114.037 151.999 113.776C152.643 113.505 153.193 113.141 153.651 112.684C154.117 112.217 154.481 111.681 154.743 111.074C155.004 110.458 155.135 109.8 155.135 109.1ZM152.881 109.128C152.881 109.548 152.806 109.945 152.657 110.318C152.517 110.682 152.316 111.004 152.055 111.284C151.803 111.564 151.495 111.783 151.131 111.942C150.767 112.101 150.37 112.18 149.941 112.18C149.502 112.18 149.101 112.101 148.737 111.942C148.382 111.774 148.069 111.55 147.799 111.27C147.537 110.99 147.332 110.663 147.183 110.29C147.043 109.917 146.973 109.52 146.973 109.1V109.072C146.973 108.652 147.043 108.26 147.183 107.896C147.332 107.523 147.533 107.196 147.785 106.916C148.046 106.636 148.354 106.417 148.709 106.258C149.073 106.099 149.474 106.02 149.913 106.02C150.342 106.02 150.739 106.104 151.103 106.272C151.467 106.431 151.779 106.65 152.041 106.93C152.311 107.21 152.517 107.537 152.657 107.91C152.806 108.283 152.881 108.68 152.881 109.1V109.128ZM165.951 112.614V108.358H161.695V110.22H163.865V111.62C163.314 112.012 162.638 112.208 161.835 112.208C161.396 112.208 160.995 112.133 160.631 111.984C160.276 111.825 159.964 111.606 159.693 111.326C159.432 111.046 159.226 110.719 159.077 110.346C158.937 109.963 158.867 109.548 158.867 109.1V109.072C158.867 108.652 158.937 108.26 159.077 107.896C159.226 107.523 159.427 107.201 159.679 106.93C159.94 106.65 160.239 106.431 160.575 106.272C160.92 106.104 161.289 106.02 161.681 106.02C161.961 106.02 162.218 106.043 162.451 106.09C162.684 106.137 162.899 106.202 163.095 106.286C163.3 106.37 163.496 106.473 163.683 106.594C163.87 106.715 164.056 106.855 164.243 107.014L165.601 105.376C165.349 105.161 165.088 104.97 164.817 104.802C164.546 104.634 164.257 104.494 163.949 104.382C163.641 104.27 163.305 104.186 162.941 104.13C162.586 104.065 162.19 104.032 161.751 104.032C161.004 104.032 160.318 104.167 159.693 104.438C159.068 104.699 158.526 105.063 158.069 105.53C157.612 105.987 157.252 106.524 156.991 107.14C156.739 107.747 156.613 108.4 156.613 109.1V109.128C156.613 109.856 156.739 110.528 156.991 111.144C157.243 111.76 157.593 112.292 158.041 112.74C158.498 113.188 159.04 113.538 159.665 113.79C160.3 114.042 161 114.168 161.765 114.168C162.661 114.168 163.454 114.019 164.145 113.72C164.845 113.412 165.447 113.043 165.951 112.614ZM175.068 114V112.04H170.182V104.2H168.026V114H175.068ZM184.156 114V112.082H178.836V110.024H183.456V108.106H178.836V106.118H184.086V104.2H176.694V114H184.156Z" fill="#293978"/>
<path d="M499.006 95.418L497.634 94.032C497.251 94.3867 496.864 94.6667 496.472 94.872C496.089 95.0773 495.618 95.18 495.058 95.18C494.638 95.18 494.25 95.1007 493.896 94.942C493.55 94.774 493.252 94.55 493 94.27C492.757 93.99 492.566 93.6633 492.426 93.29C492.286 92.9167 492.216 92.52 492.216 92.1V92.072C492.216 91.652 492.286 91.26 492.426 90.896C492.566 90.5227 492.762 90.196 493.014 89.916C493.266 89.636 493.564 89.4167 493.91 89.258C494.264 89.0993 494.647 89.02 495.058 89.02C495.552 89.02 495.996 89.118 496.388 89.314C496.789 89.51 497.181 89.7807 497.564 90.126L498.936 88.544C498.712 88.32 498.469 88.1147 498.208 87.928C497.946 87.7413 497.662 87.5827 497.354 87.452C497.046 87.3213 496.7 87.2187 496.318 87.144C495.944 87.0693 495.529 87.032 495.072 87.032C494.316 87.032 493.625 87.1673 493 87.438C492.374 87.6993 491.838 88.0633 491.39 88.53C490.942 88.9873 490.592 89.524 490.34 90.14C490.088 90.7467 489.962 91.4 489.962 92.1V92.128C489.962 92.828 490.088 93.486 490.34 94.102C490.592 94.718 490.942 95.2547 491.39 95.712C491.838 96.16 492.37 96.5147 492.986 96.776C493.602 97.0373 494.269 97.168 494.988 97.168C495.464 97.168 495.893 97.126 496.276 97.042C496.658 96.9673 497.008 96.8553 497.326 96.706C497.652 96.5473 497.951 96.3607 498.222 96.146C498.492 95.9313 498.754 95.6887 499.006 95.418ZM507.774 97V95.04H502.888V87.2H500.732V97H507.774ZM511.654 97V87.2H509.498V97H511.654ZM522.713 95.418L521.341 94.032C520.958 94.3867 520.571 94.6667 520.179 94.872C519.796 95.0773 519.325 95.18 518.765 95.18C518.345 95.18 517.957 95.1007 517.603 94.942C517.257 94.774 516.959 94.55 516.707 94.27C516.464 93.99 516.273 93.6633 516.133 93.29C515.993 92.9167 515.923 92.52 515.923 92.1V92.072C515.923 91.652 515.993 91.26 516.133 90.896C516.273 90.5227 516.469 90.196 516.721 89.916C516.973 89.636 517.271 89.4167 517.617 89.258C517.971 89.0993 518.354 89.02 518.765 89.02C519.259 89.02 519.703 89.118 520.095 89.314C520.496 89.51 520.888 89.7807 521.271 90.126L522.643 88.544C522.419 88.32 522.176 88.1147 521.915 87.928C521.653 87.7413 521.369 87.5827 521.061 87.452C520.753 87.3213 520.407 87.2187 520.025 87.144C519.651 87.0693 519.236 87.032 518.779 87.032C518.023 87.032 517.332 87.1673 516.707 87.438C516.081 87.6993 515.545 88.0633 515.097 88.53C514.649 88.9873 514.299 89.524 514.047 90.14C513.795 90.7467 513.669 91.4 513.669 92.1V92.128C513.669 92.828 513.795 93.486 514.047 94.102C514.299 94.718 514.649 95.2547 515.097 95.712C515.545 96.16 516.077 96.5147 516.693 96.776C517.309 97.0373 517.976 97.168 518.695 97.168C519.171 97.168 519.6 97.126 519.983 97.042C520.365 96.9673 520.715 96.8553 521.033 96.706C521.359 96.5473 521.658 96.3607 521.929 96.146C522.199 95.9313 522.461 95.6887 522.713 95.418ZM533.357 97L529.185 91.358L533.175 87.2H530.571L526.595 91.484V87.2H524.439V97H526.595V94.004L527.729 92.828L530.767 97H533.357ZM541.749 94.102V94.074C541.749 93.6447 541.679 93.276 541.539 92.968C541.409 92.66 541.208 92.394 540.937 92.17C540.676 91.9367 540.349 91.7407 539.957 91.582C539.575 91.414 539.136 91.2647 538.641 91.134C538.221 91.022 537.871 90.924 537.591 90.84C537.321 90.756 537.106 90.6673 536.947 90.574C536.789 90.4807 536.677 90.378 536.611 90.266C536.555 90.1447 536.527 90.0047 536.527 89.846V89.818C536.527 89.5753 536.63 89.3747 536.835 89.216C537.05 89.048 537.367 88.964 537.787 88.964C538.207 88.964 538.627 89.0527 539.047 89.23C539.467 89.398 539.897 89.6313 540.335 89.93L541.455 88.306C540.951 87.9047 540.396 87.5967 539.789 87.382C539.192 87.1673 538.534 87.06 537.815 87.06C537.311 87.06 536.849 87.13 536.429 87.27C536.009 87.41 535.645 87.6107 535.337 87.872C535.039 88.1333 534.805 88.446 534.637 88.81C534.469 89.1647 534.385 89.566 534.385 90.014V90.042C534.385 90.5273 534.46 90.9333 534.609 91.26C534.768 91.5867 534.987 91.862 535.267 92.086C535.547 92.3007 535.888 92.4827 536.289 92.632C536.691 92.7813 537.139 92.9167 537.633 93.038C538.044 93.1407 538.375 93.2387 538.627 93.332C538.889 93.4253 539.089 93.5187 539.229 93.612C539.379 93.7053 539.477 93.808 539.523 93.92C539.579 94.0227 539.607 94.144 539.607 94.284V94.312C539.607 94.6013 539.481 94.83 539.229 94.998C538.987 95.1567 538.641 95.236 538.193 95.236C537.633 95.236 537.115 95.1287 536.639 94.914C536.173 94.6993 535.715 94.41 535.267 94.046L533.993 95.572C534.581 96.104 535.235 96.5007 535.953 96.762C536.672 97.014 537.405 97.14 538.151 97.14C538.683 97.14 539.169 97.0747 539.607 96.944C540.046 96.804 540.424 96.608 540.741 96.356C541.059 96.0947 541.306 95.7773 541.483 95.404C541.661 95.0213 541.749 94.5873 541.749 94.102ZM550.212 88.012L550.03 87.13C549.199 87.1487 548.56 87.3587 548.112 87.76C547.664 88.1613 547.44 88.824 547.44 89.748V91.638H549.708V89.398H548.84C548.765 88.5767 549.222 88.1147 550.212 88.012ZM561.371 97L557.171 87.13H555.183L550.983 97H553.181L554.077 94.802H558.221L559.117 97H561.371ZM557.451 92.898H554.847L556.149 89.72L557.451 92.898ZM571.914 92.1V92.072C571.914 91.3813 571.788 90.742 571.536 90.154C571.284 89.5567 570.925 89.0387 570.458 88.6C570.001 88.1613 569.45 87.8207 568.806 87.578C568.171 87.326 567.471 87.2 566.706 87.2H562.884V97H566.706C567.471 97 568.171 96.874 568.806 96.622C569.45 96.37 570.001 96.0247 570.458 95.586C570.925 95.1473 571.284 94.6293 571.536 94.032C571.788 93.4347 571.914 92.7907 571.914 92.1ZM569.66 92.128C569.66 92.5667 569.585 92.9633 569.436 93.318C569.296 93.6727 569.095 93.9807 568.834 94.242C568.582 94.5033 568.274 94.704 567.91 94.844C567.546 94.984 567.145 95.054 566.706 95.054H565.04V89.146H566.706C567.145 89.146 567.546 89.2207 567.91 89.37C568.274 89.51 568.582 89.7107 568.834 89.972C569.095 90.2333 569.296 90.546 569.436 90.91C569.585 91.274 569.66 91.6707 569.66 92.1V92.128ZM582.865 92.1V92.072C582.865 91.3813 582.739 90.742 582.487 90.154C582.235 89.5567 581.876 89.0387 581.409 88.6C580.952 88.1613 580.401 87.8207 579.757 87.578C579.123 87.326 578.423 87.2 577.657 87.2H573.835V97H577.657C578.423 97 579.123 96.874 579.757 96.622C580.401 96.37 580.952 96.0247 581.409 95.586C581.876 95.1473 582.235 94.6293 582.487 94.032C582.739 93.4347 582.865 92.7907 582.865 92.1ZM580.611 92.128C580.611 92.5667 580.537 92.9633 580.387 93.318C580.247 93.6727 580.047 93.9807 579.785 94.242C579.533 94.5033 579.225 94.704 578.861 94.844C578.497 94.984 578.096 95.054 577.657 95.054H575.991V89.146H577.657C578.096 89.146 578.497 89.2207 578.861 89.37C579.225 89.51 579.533 89.7107 579.785 89.972C580.047 90.2333 580.247 90.546 580.387 90.91C580.537 91.274 580.611 91.6707 580.611 92.1V92.128ZM596.404 89.188V87.2H588.284V89.188H591.266V97H593.422V89.188H596.404ZM608.044 92.1V92.072C608.044 91.372 607.913 90.7187 607.652 90.112C607.4 89.496 607.04 88.964 606.574 88.516C606.116 88.0587 605.57 87.6993 604.936 87.438C604.301 87.1673 603.606 87.032 602.85 87.032C602.094 87.032 601.394 87.1673 600.75 87.438C600.115 87.6993 599.564 88.0633 599.098 88.53C598.64 88.9873 598.281 89.524 598.02 90.14C597.758 90.7467 597.628 91.4 597.628 92.1V92.128C597.628 92.828 597.754 93.486 598.006 94.102C598.267 94.7087 598.626 95.2407 599.084 95.698C599.55 96.146 600.101 96.5053 600.736 96.776C601.37 97.0373 602.066 97.168 602.822 97.168C603.578 97.168 604.273 97.0373 604.908 96.776C605.552 96.5053 606.102 96.1413 606.56 95.684C607.026 95.2173 607.39 94.6807 607.652 94.074C607.913 93.458 608.044 92.8 608.044 92.1ZM605.79 92.128C605.79 92.548 605.715 92.9447 605.566 93.318C605.426 93.682 605.225 94.004 604.964 94.284C604.712 94.564 604.404 94.7833 604.04 94.942C603.676 95.1007 603.279 95.18 602.85 95.18C602.411 95.18 602.01 95.1007 601.646 94.942C601.291 94.774 600.978 94.55 600.708 94.27C600.446 93.99 600.241 93.6633 600.092 93.29C599.952 92.9167 599.882 92.52 599.882 92.1V92.072C599.882 91.652 599.952 91.26 600.092 90.896C600.241 90.5227 600.442 90.196 600.694 89.916C600.955 89.636 601.263 89.4167 601.618 89.258C601.982 89.0993 602.383 89.02 602.822 89.02C603.251 89.02 603.648 89.104 604.012 89.272C604.376 89.4307 604.688 89.65 604.95 89.93C605.22 90.21 605.426 90.5367 605.566 90.91C605.715 91.2833 605.79 91.68 605.79 92.1V92.128ZM504.816 115V105.2H502.66V109.078H498.684V105.2H496.528V115H498.684V111.066H502.66V115H504.816ZM517.146 110.1V110.072C517.146 109.372 517.016 108.719 516.754 108.112C516.502 107.496 516.143 106.964 515.676 106.516C515.219 106.059 514.673 105.699 514.038 105.438C513.404 105.167 512.708 105.032 511.952 105.032C511.196 105.032 510.496 105.167 509.852 105.438C509.218 105.699 508.667 106.063 508.2 106.53C507.743 106.987 507.384 107.524 507.122 108.14C506.861 108.747 506.73 109.4 506.73 110.1V110.128C506.73 110.828 506.856 111.486 507.108 112.102C507.37 112.709 507.729 113.241 508.186 113.698C508.653 114.146 509.204 114.505 509.838 114.776C510.473 115.037 511.168 115.168 511.924 115.168C512.68 115.168 513.376 115.037 514.01 114.776C514.654 114.505 515.205 114.141 515.662 113.684C516.129 113.217 516.493 112.681 516.754 112.074C517.016 111.458 517.146 110.8 517.146 110.1ZM514.892 110.128C514.892 110.548 514.818 110.945 514.668 111.318C514.528 111.682 514.328 112.004 514.066 112.284C513.814 112.564 513.506 112.783 513.142 112.942C512.778 113.101 512.382 113.18 511.952 113.18C511.514 113.18 511.112 113.101 510.748 112.942C510.394 112.774 510.081 112.55 509.81 112.27C509.549 111.99 509.344 111.663 509.194 111.29C509.054 110.917 508.984 110.52 508.984 110.1V110.072C508.984 109.652 509.054 109.26 509.194 108.896C509.344 108.523 509.544 108.196 509.796 107.916C510.058 107.636 510.366 107.417 510.72 107.258C511.084 107.099 511.486 107.02 511.924 107.02C512.354 107.02 512.75 107.104 513.114 107.272C513.478 107.431 513.791 107.65 514.052 107.93C514.323 108.21 514.528 108.537 514.668 108.91C514.818 109.283 514.892 109.68 514.892 110.1V110.128ZM528.859 115V105.2H526.535L523.959 109.344L521.383 105.2H519.059V115H521.173V108.644L523.903 112.788H523.959L526.717 108.602V115H528.859ZM538.675 115V113.082H533.355V111.024H537.975V109.106H533.355V107.118H538.605V105.2H531.213V115H538.675ZM547.676 112.102V112.074C547.676 111.645 547.606 111.276 547.466 110.968C547.335 110.66 547.135 110.394 546.864 110.17C546.603 109.937 546.276 109.741 545.884 109.582C545.501 109.414 545.063 109.265 544.568 109.134C544.148 109.022 543.798 108.924 543.518 108.84C543.247 108.756 543.033 108.667 542.874 108.574C542.715 108.481 542.603 108.378 542.538 108.266C542.482 108.145 542.454 108.005 542.454 107.846V107.818C542.454 107.575 542.557 107.375 542.762 107.216C542.977 107.048 543.294 106.964 543.714 106.964C544.134 106.964 544.554 107.053 544.974 107.23C545.394 107.398 545.823 107.631 546.262 107.93L547.382 106.306C546.878 105.905 546.323 105.597 545.716 105.382C545.119 105.167 544.461 105.06 543.742 105.06C543.238 105.06 542.776 105.13 542.356 105.27C541.936 105.41 541.572 105.611 541.264 105.872C540.965 106.133 540.732 106.446 540.564 106.81C540.396 107.165 540.312 107.566 540.312 108.014V108.042C540.312 108.527 540.387 108.933 540.536 109.26C540.695 109.587 540.914 109.862 541.194 110.086C541.474 110.301 541.815 110.483 542.216 110.632C542.617 110.781 543.065 110.917 543.56 111.038C543.971 111.141 544.302 111.239 544.554 111.332C544.815 111.425 545.016 111.519 545.156 111.612C545.305 111.705 545.403 111.808 545.45 111.92C545.506 112.023 545.534 112.144 545.534 112.284V112.312C545.534 112.601 545.408 112.83 545.156 112.998C544.913 113.157 544.568 113.236 544.12 113.236C543.56 113.236 543.042 113.129 542.566 112.914C542.099 112.699 541.642 112.41 541.194 112.046L539.92 113.572C540.508 114.104 541.161 114.501 541.88 114.762C542.599 115.014 543.331 115.14 544.078 115.14C544.61 115.14 545.095 115.075 545.534 114.944C545.973 114.804 546.351 114.608 546.668 114.356C546.985 114.095 547.233 113.777 547.41 113.404C547.587 113.021 547.676 112.587 547.676 112.102ZM558.157 113.418L556.785 112.032C556.402 112.387 556.015 112.667 555.623 112.872C555.24 113.077 554.769 113.18 554.209 113.18C553.789 113.18 553.402 113.101 553.047 112.942C552.702 112.774 552.403 112.55 552.151 112.27C551.908 111.99 551.717 111.663 551.577 111.29C551.437 110.917 551.367 110.52 551.367 110.1V110.072C551.367 109.652 551.437 109.26 551.577 108.896C551.717 108.523 551.913 108.196 552.165 107.916C552.417 107.636 552.716 107.417 553.061 107.258C553.416 107.099 553.798 107.02 554.209 107.02C554.704 107.02 555.147 107.118 555.539 107.314C555.94 107.51 556.332 107.781 556.715 108.126L558.087 106.544C557.863 106.32 557.62 106.115 557.359 105.928C557.098 105.741 556.813 105.583 556.505 105.452C556.197 105.321 555.852 105.219 555.469 105.144C555.096 105.069 554.68 105.032 554.223 105.032C553.467 105.032 552.776 105.167 552.151 105.438C551.526 105.699 550.989 106.063 550.541 106.53C550.093 106.987 549.743 107.524 549.491 108.14C549.239 108.747 549.113 109.4 549.113 110.1V110.128C549.113 110.828 549.239 111.486 549.491 112.102C549.743 112.718 550.093 113.255 550.541 113.712C550.989 114.16 551.521 114.515 552.137 114.776C552.753 115.037 553.42 115.168 554.139 115.168C554.615 115.168 555.044 115.126 555.427 115.042C555.81 114.967 556.16 114.855 556.477 114.706C556.804 114.547 557.102 114.361 557.373 114.146C557.644 113.931 557.905 113.689 558.157 113.418ZM568.353 115L565.959 111.5C566.584 111.267 567.088 110.903 567.471 110.408C567.863 109.904 568.059 109.255 568.059 108.462V108.434C568.059 107.417 567.732 106.623 567.079 106.054C566.435 105.485 565.53 105.2 564.363 105.2H559.883V115H562.039V111.864H563.733L565.833 115H568.353ZM565.875 108.574C565.875 108.994 565.73 109.33 565.441 109.582C565.161 109.834 564.755 109.96 564.223 109.96H562.039V107.146H564.181C564.713 107.146 565.128 107.263 565.427 107.496C565.726 107.729 565.875 108.079 565.875 108.546V108.574ZM577.462 115V113.082H572.142V111.024H576.762V109.106H572.142V107.118H577.392V105.2H570V115H577.462ZM586.841 115V113.082H581.521V111.024H586.141V109.106H581.521V107.118H586.771V105.2H579.379V115H586.841ZM597.466 115V105.2H595.338V111.234L590.746 105.2H588.758V115H590.886V108.77L595.632 115H597.466ZM599.077 108.826L599.259 109.708C600.089 109.699 600.729 109.493 601.177 109.092C601.625 108.681 601.849 108.014 601.849 107.09V105.2H599.581V107.44H600.449C600.523 108.261 600.066 108.723 599.077 108.826Z" fill="#293978"/>
<circle opacity="0.5" cx="152" cy="52" r="12" fill="#FB6B46"/>
<circle opacity="0.5" cx="542" cy="53" r="12" fill="#FB6B46"/>
<path d="M497.061 53.0607C497.646 52.4749 497.646 51.5251 497.061 50.9393L487.515 41.3934C486.929 40.8076 485.979 40.8076 485.393 41.3934C484.808 41.9792 484.808 42.9289 485.393 43.5147L493.879 52L485.393 60.4853C484.808 61.0711 484.808 62.0208 485.393 62.6066C485.979 63.1924 486.929 63.1924 487.515 62.6066L497.061 53.0607ZM200 53.5H496V50.5H200V53.5Z" fill="#FB6B46"/>
</svg>
