<svg width="702" height="422" viewBox="0 0 702 422" fill="none" xmlns="http://www.w3.org/2000/svg">
<path d="M74.3193 207.614V203.358H70.0633V205.22H72.2333V206.62C71.6826 207.012 71.0059 207.208 70.2033 207.208C69.7646 207.208 69.3633 207.133 68.9993 206.984C68.6446 206.825 68.3319 206.606 68.0613 206.326C67.7999 206.046 67.5946 205.719 67.4453 205.346C67.3053 204.963 67.2353 204.548 67.2353 204.1V204.072C67.2353 203.652 67.3053 203.26 67.4453 202.896C67.5946 202.523 67.7953 202.201 68.0473 201.93C68.3086 201.65 68.6073 201.431 68.9433 201.272C69.2886 201.104 69.6573 201.02 70.0493 201.02C70.3293 201.02 70.5859 201.043 70.8193 201.09C71.0526 201.137 71.2673 201.202 71.4633 201.286C71.6686 201.37 71.8646 201.473 72.0513 201.594C72.2379 201.715 72.4246 201.855 72.6113 202.014L73.9693 200.376C73.7173 200.161 73.4559 199.97 73.1853 199.802C72.9146 199.634 72.6253 199.494 72.3173 199.382C72.0093 199.27 71.6733 199.186 71.3093 199.13C70.9546 199.065 70.5579 199.032 70.1193 199.032C69.3726 199.032 68.6866 199.167 68.0613 199.438C67.4359 199.699 66.8946 200.063 66.4373 200.53C65.9799 200.987 65.6206 201.524 65.3593 202.14C65.1073 202.747 64.9813 203.4 64.9813 204.1V204.128C64.9813 204.856 65.1073 205.528 65.3593 206.144C65.6113 206.76 65.9613 207.292 66.4093 207.74C66.8666 208.188 67.4079 208.538 68.0333 208.79C68.6679 209.042 69.3679 209.168 70.1333 209.168C71.0293 209.168 71.8226 209.019 72.5133 208.72C73.2133 208.412 73.8153 208.043 74.3193 207.614ZM83.8558 209V207.082H78.5358V205.024H83.1558V203.106H78.5358V201.118H83.7858V199.2H76.3938V209H83.8558ZM94.4807 209V199.2H92.3527V205.234L87.7607 199.2H85.7727V209H87.9007V202.77L92.6467 209H94.4807ZM104.295 209V207.082H98.9752V205.024H103.595V203.106H98.9752V201.118H104.225V199.2H96.8332V209H104.295ZM114.682 209L112.288 205.5C112.913 205.267 113.417 204.903 113.8 204.408C114.192 203.904 114.388 203.255 114.388 202.462V202.434C114.388 201.417 114.061 200.623 113.408 200.054C112.764 199.485 111.859 199.2 110.692 199.2H106.212V209H108.368V205.864H110.062L112.162 209H114.682ZM112.204 202.574C112.204 202.994 112.059 203.33 111.77 203.582C111.49 203.834 111.084 203.96 110.552 203.96H108.368V201.146H110.51C111.042 201.146 111.457 201.263 111.756 201.496C112.055 201.729 112.204 202.079 112.204 202.546V202.574ZM125.877 209L121.677 199.13H119.689L115.489 209H117.687L118.583 206.802H122.727L123.623 209H125.877ZM121.957 204.898H119.353L120.655 201.72L121.957 204.898ZM134.432 209V207.04H129.546V199.2H127.39V209H134.432ZM147.339 206.102V206.074C147.339 205.645 147.269 205.276 147.129 204.968C146.998 204.66 146.798 204.394 146.527 204.17C146.266 203.937 145.939 203.741 145.547 203.582C145.164 203.414 144.726 203.265 144.231 203.134C143.811 203.022 143.461 202.924 143.181 202.84C142.91 202.756 142.696 202.667 142.537 202.574C142.378 202.481 142.266 202.378 142.201 202.266C142.145 202.145 142.117 202.005 142.117 201.846V201.818C142.117 201.575 142.22 201.375 142.425 201.216C142.64 201.048 142.957 200.964 143.377 200.964C143.797 200.964 144.217 201.053 144.637 201.23C145.057 201.398 145.486 201.631 145.925 201.93L147.045 200.306C146.541 199.905 145.986 199.597 145.379 199.382C144.782 199.167 144.124 199.06 143.405 199.06C142.901 199.06 142.439 199.13 142.019 199.27C141.599 199.41 141.235 199.611 140.927 199.872C140.628 200.133 140.395 200.446 140.227 200.81C140.059 201.165 139.975 201.566 139.975 202.014V202.042C139.975 202.527 140.05 202.933 140.199 203.26C140.358 203.587 140.577 203.862 140.857 204.086C141.137 204.301 141.478 204.483 141.879 204.632C142.28 204.781 142.728 204.917 143.223 205.038C143.634 205.141 143.965 205.239 144.217 205.332C144.478 205.425 144.679 205.519 144.819 205.612C144.968 205.705 145.066 205.808 145.113 205.92C145.169 206.023 145.197 206.144 145.197 206.284V206.312C145.197 206.601 145.071 206.83 144.819 206.998C144.576 207.157 144.231 207.236 143.783 207.236C143.223 207.236 142.705 207.129 142.229 206.914C141.762 206.699 141.305 206.41 140.857 206.046L139.583 207.572C140.171 208.104 140.824 208.501 141.543 208.762C142.262 209.014 142.994 209.14 143.741 209.14C144.273 209.14 144.758 209.075 145.197 208.944C145.636 208.804 146.014 208.608 146.331 208.356C146.648 208.095 146.896 207.777 147.073 207.404C147.25 207.021 147.339 206.587 147.339 206.102ZM156.672 209V207.082H151.352V205.024H155.972V203.106H151.352V201.118H156.602V199.2H149.21V209H156.672ZM168.137 209L163.937 199.13H161.949L157.749 209H159.947L160.843 206.802H164.987L165.883 209H168.137ZM164.217 204.898H161.613L162.915 201.72L164.217 204.898ZM178.12 209L175.726 205.5C176.351 205.267 176.855 204.903 177.238 204.408C177.63 203.904 177.826 203.255 177.826 202.462V202.434C177.826 201.417 177.499 200.623 176.846 200.054C176.202 199.485 175.296 199.2 174.13 199.2H169.65V209H171.806V205.864H173.5L175.6 209H178.12ZM175.642 202.574C175.642 202.994 175.497 203.33 175.208 203.582C174.928 203.834 174.522 203.96 173.99 203.96H171.806V201.146H173.948C174.48 201.146 174.895 201.263 175.194 201.496C175.492 201.729 175.642 202.079 175.642 202.546V202.574ZM188.377 207.418L187.005 206.032C186.622 206.387 186.235 206.667 185.843 206.872C185.46 207.077 184.989 207.18 184.429 207.18C184.009 207.18 183.621 207.101 183.267 206.942C182.921 206.774 182.623 206.55 182.371 206.27C182.128 205.99 181.937 205.663 181.797 205.29C181.657 204.917 181.587 204.52 181.587 204.1V204.072C181.587 203.652 181.657 203.26 181.797 202.896C181.937 202.523 182.133 202.196 182.385 201.916C182.637 201.636 182.935 201.417 183.281 201.258C183.635 201.099 184.018 201.02 184.429 201.02C184.923 201.02 185.367 201.118 185.759 201.314C186.16 201.51 186.552 201.781 186.935 202.126L188.307 200.544C188.083 200.32 187.84 200.115 187.579 199.928C187.317 199.741 187.033 199.583 186.725 199.452C186.417 199.321 186.071 199.219 185.689 199.144C185.315 199.069 184.9 199.032 184.443 199.032C183.687 199.032 182.996 199.167 182.371 199.438C181.745 199.699 181.209 200.063 180.761 200.53C180.313 200.987 179.963 201.524 179.711 202.14C179.459 202.747 179.333 203.4 179.333 204.1V204.128C179.333 204.828 179.459 205.486 179.711 206.102C179.963 206.718 180.313 207.255 180.761 207.712C181.209 208.16 181.741 208.515 182.357 208.776C182.973 209.037 183.64 209.168 184.359 209.168C184.835 209.168 185.264 209.126 185.647 209.042C186.029 208.967 186.379 208.855 186.697 208.706C187.023 208.547 187.322 208.361 187.593 208.146C187.863 207.931 188.125 207.689 188.377 207.418ZM198.391 209V199.2H196.235V203.078H192.259V199.2H190.103V209H192.259V205.066H196.235V209H198.391ZM95.4574 227L91.2574 217.13H89.2694L85.0694 227H87.2674L88.1634 224.802H92.3074L93.2034 227H95.4574ZM91.5374 222.898H88.9334L90.2354 219.72L91.5374 222.898ZM105.3 224.312V224.284C105.3 223.631 105.137 223.122 104.81 222.758C104.483 222.385 104.035 222.091 103.466 221.876C103.643 221.783 103.807 221.671 103.956 221.54C104.115 221.409 104.25 221.26 104.362 221.092C104.483 220.915 104.577 220.719 104.642 220.504C104.717 220.289 104.754 220.042 104.754 219.762V219.734C104.754 218.959 104.465 218.343 103.886 217.886C103.317 217.429 102.528 217.2 101.52 217.2H96.9699V227H101.632C102.183 227 102.682 226.944 103.13 226.832C103.587 226.72 103.975 226.552 104.292 226.328C104.619 226.104 104.866 225.824 105.034 225.488C105.211 225.152 105.3 224.76 105.3 224.312ZM102.612 220.126C102.612 220.49 102.472 220.756 102.192 220.924C101.912 221.083 101.534 221.162 101.058 221.162H99.0699V219.09H101.198C101.655 219.09 102.005 219.179 102.248 219.356C102.491 219.524 102.612 219.771 102.612 220.098V220.126ZM103.158 224.046C103.158 224.41 103.023 224.681 102.752 224.858C102.481 225.026 102.108 225.11 101.632 225.11H99.0699V222.954H101.562C102.122 222.954 102.528 223.052 102.78 223.248C103.032 223.435 103.158 223.691 103.158 224.018V224.046ZM117.055 222.1V222.072C117.055 221.372 116.925 220.719 116.663 220.112C116.411 219.496 116.052 218.964 115.585 218.516C115.128 218.059 114.582 217.699 113.947 217.438C113.313 217.167 112.617 217.032 111.861 217.032C111.105 217.032 110.405 217.167 109.761 217.438C109.127 217.699 108.576 218.063 108.109 218.53C107.652 218.987 107.293 219.524 107.031 220.14C106.77 220.747 106.639 221.4 106.639 222.1V222.128C106.639 222.828 106.765 223.486 107.017 224.102C107.279 224.709 107.638 225.241 108.095 225.698C108.562 226.146 109.113 226.505 109.747 226.776C110.382 227.037 111.077 227.168 111.833 227.168C112.589 227.168 113.285 227.037 113.919 226.776C114.563 226.505 115.114 226.141 115.571 225.684C116.038 225.217 116.402 224.681 116.663 224.074C116.925 223.458 117.055 222.8 117.055 222.1ZM114.801 222.128C114.801 222.548 114.727 222.945 114.577 223.318C114.437 223.682 114.237 224.004 113.975 224.284C113.723 224.564 113.415 224.783 113.051 224.942C112.687 225.101 112.291 225.18 111.861 225.18C111.423 225.18 111.021 225.101 110.657 224.942C110.303 224.774 109.99 224.55 109.719 224.27C109.458 223.99 109.253 223.663 109.103 223.29C108.963 222.917 108.893 222.52 108.893 222.1V222.072C108.893 221.652 108.963 221.26 109.103 220.896C109.253 220.523 109.453 220.196 109.705 219.916C109.967 219.636 110.275 219.417 110.629 219.258C110.993 219.099 111.395 219.02 111.833 219.02C112.263 219.02 112.659 219.104 113.023 219.272C113.387 219.431 113.7 219.65 113.961 219.93C114.232 220.21 114.437 220.537 114.577 220.91C114.727 221.283 114.801 221.68 114.801 222.1V222.128ZM127.354 222.73V217.2H125.198V222.814C125.198 223.598 125.011 224.186 124.638 224.578C124.265 224.97 123.747 225.166 123.084 225.166C122.421 225.166 121.903 224.965 121.53 224.564C121.157 224.153 120.97 223.547 120.97 222.744V217.2H118.814V222.8C118.814 224.247 119.192 225.334 119.948 226.062C120.704 226.79 121.74 227.154 123.056 227.154C123.709 227.154 124.302 227.065 124.834 226.888C125.366 226.701 125.819 226.426 126.192 226.062C126.565 225.689 126.85 225.227 127.046 224.676C127.251 224.125 127.354 223.477 127.354 222.73ZM136.97 219.188V217.2H128.85V219.188H131.832V227H133.988V219.188H136.97ZM152.373 227L148.173 217.13H146.185L141.985 227H144.183L145.079 224.802H149.223L150.119 227H152.373ZM148.453 222.898H145.849L147.151 219.72L148.453 222.898ZM162.356 227L159.962 223.5C160.587 223.267 161.091 222.903 161.474 222.408C161.866 221.904 162.062 221.255 162.062 220.462V220.434C162.062 219.417 161.735 218.623 161.082 218.054C160.438 217.485 159.533 217.2 158.366 217.2H153.886V227H156.042V223.864H157.736L159.836 227H162.356ZM159.878 220.574C159.878 220.994 159.733 221.33 159.444 221.582C159.164 221.834 158.758 221.96 158.226 221.96H156.042V219.146H158.184C158.716 219.146 159.131 219.263 159.43 219.496C159.729 219.729 159.878 220.079 159.878 220.546V220.574ZM171.465 227V225.082H166.145V223.024H170.765V221.106H166.145V219.118H171.395V217.2H164.003V227H171.465ZM182.93 227L178.73 217.13H176.742L172.542 227H174.74L175.636 224.802H179.78L180.676 227H182.93ZM179.01 222.898H176.406L177.708 219.72L179.01 222.898Z" fill="#293978"/>
<path d="M94.3196 86.102V86.074C94.3196 85.6447 94.2496 85.276 94.1096 84.968C93.9789 84.66 93.7782 84.394 93.5076 84.17C93.2462 83.9367 92.9196 83.7407 92.5276 83.582C92.1449 83.414 91.7062 83.2647 91.2116 83.134C90.7916 83.022 90.4416 82.924 90.1616 82.84C89.8909 82.756 89.6762 82.6673 89.5176 82.574C89.3589 82.4807 89.2469 82.378 89.1816 82.266C89.1256 82.1447 89.0976 82.0047 89.0976 81.846V81.818C89.0976 81.5753 89.2002 81.3747 89.4056 81.216C89.6202 81.048 89.9376 80.964 90.3576 80.964C90.7776 80.964 91.1976 81.0527 91.6176 81.23C92.0376 81.398 92.4669 81.6313 92.9056 81.93L94.0256 80.306C93.5216 79.9047 92.9662 79.5967 92.3596 79.382C91.7622 79.1673 91.1042 79.06 90.3856 79.06C89.8816 79.06 89.4196 79.13 88.9996 79.27C88.5796 79.41 88.2156 79.6107 87.9076 79.872C87.6089 80.1333 87.3756 80.446 87.2076 80.81C87.0396 81.1647 86.9556 81.566 86.9556 82.014V82.042C86.9556 82.5273 87.0302 82.9333 87.1796 83.26C87.3382 83.5867 87.5576 83.862 87.8376 84.086C88.1176 84.3007 88.4582 84.4827 88.8596 84.632C89.2609 84.7813 89.7089 84.9167 90.2036 85.038C90.6142 85.1407 90.9456 85.2387 91.1976 85.332C91.4589 85.4253 91.6596 85.5187 91.7996 85.612C91.9489 85.7053 92.0469 85.808 92.0936 85.92C92.1496 86.0227 92.1776 86.144 92.1776 86.284V86.312C92.1776 86.6013 92.0516 86.83 91.7996 86.998C91.5569 87.1567 91.2116 87.236 90.7636 87.236C90.2036 87.236 89.6856 87.1287 89.2096 86.914C88.7429 86.6993 88.2856 86.41 87.8376 86.046L86.5636 87.572C87.1516 88.104 87.8049 88.5007 88.5236 88.762C89.2422 89.014 89.9749 89.14 90.7216 89.14C91.2536 89.14 91.7389 89.0747 92.1776 88.944C92.6162 88.804 92.9942 88.608 93.3116 88.356C93.6289 88.0947 93.8762 87.7773 94.0536 87.404C94.2309 87.0213 94.3196 86.5873 94.3196 86.102ZM103.653 89V87.082H98.3326V85.024H102.953V83.106H98.3326V81.118H103.583V79.2H96.1906V89H103.653ZM115.118 89L110.918 79.13H108.93L104.73 89H106.928L107.824 86.802H111.968L112.864 89H115.118ZM111.198 84.898H108.594L109.896 81.72L111.198 84.898ZM125.1 89L122.706 85.5C123.331 85.2667 123.835 84.9027 124.218 84.408C124.61 83.904 124.806 83.2553 124.806 82.462V82.434C124.806 81.4167 124.479 80.6233 123.826 80.054C123.182 79.4847 122.277 79.2 121.11 79.2H116.63V89H118.786V85.864H120.48L122.58 89H125.1ZM122.622 82.574C122.622 82.994 122.477 83.33 122.188 83.582C121.908 83.834 121.502 83.96 120.97 83.96H118.786V81.146H120.928C121.46 81.146 121.875 81.2627 122.174 81.496C122.473 81.7293 122.622 82.0793 122.622 82.546V82.574ZM135.357 87.418L133.985 86.032C133.603 86.3867 133.215 86.6667 132.823 86.872C132.441 87.0773 131.969 87.18 131.409 87.18C130.989 87.18 130.602 87.1007 130.247 86.942C129.902 86.774 129.603 86.55 129.351 86.27C129.109 85.99 128.917 85.6633 128.777 85.29C128.637 84.9167 128.567 84.52 128.567 84.1V84.072C128.567 83.652 128.637 83.26 128.777 82.896C128.917 82.5227 129.113 82.196 129.365 81.916C129.617 81.636 129.916 81.4167 130.261 81.258C130.616 81.0993 130.999 81.02 131.409 81.02C131.904 81.02 132.347 81.118 132.739 81.314C133.141 81.51 133.533 81.7807 133.915 82.126L135.287 80.544C135.063 80.32 134.821 80.1147 134.559 79.928C134.298 79.7413 134.013 79.5827 133.705 79.452C133.397 79.3213 133.052 79.2187 132.669 79.144C132.296 79.0693 131.881 79.032 131.423 79.032C130.667 79.032 129.977 79.1673 129.351 79.438C128.726 79.6993 128.189 80.0633 127.741 80.53C127.293 80.9873 126.943 81.524 126.691 82.14C126.439 82.7467 126.313 83.4 126.313 84.1V84.128C126.313 84.828 126.439 85.486 126.691 86.102C126.943 86.718 127.293 87.2547 127.741 87.712C128.189 88.16 128.721 88.5147 129.337 88.776C129.953 89.0373 130.621 89.168 131.339 89.168C131.815 89.168 132.245 89.126 132.627 89.042C133.01 88.9673 133.36 88.8553 133.677 88.706C134.004 88.5473 134.303 88.3607 134.573 88.146C134.844 87.9313 135.105 87.6887 135.357 87.418ZM145.371 89V79.2H143.215V83.078H139.239V79.2H137.083V89H139.239V85.066H143.215V89H145.371ZM159.379 81.16V79.2H151.917V89H154.073V85.206H158.749V83.246H154.073V81.16H159.379ZM171.087 84.1V84.072C171.087 83.372 170.956 82.7187 170.695 82.112C170.443 81.496 170.083 80.964 169.617 80.516C169.159 80.0587 168.613 79.6993 167.979 79.438C167.344 79.1673 166.649 79.032 165.893 79.032C165.137 79.032 164.437 79.1673 163.793 79.438C163.158 79.6993 162.607 80.0633 162.141 80.53C161.683 80.9873 161.324 81.524 161.063 82.14C160.801 82.7467 160.671 83.4 160.671 84.1V84.128C160.671 84.828 160.797 85.486 161.049 86.102C161.31 86.7087 161.669 87.2407 162.127 87.698C162.593 88.146 163.144 88.5053 163.779 88.776C164.413 89.0373 165.109 89.168 165.865 89.168C166.621 89.168 167.316 89.0373 167.951 88.776C168.595 88.5053 169.145 88.1413 169.603 87.684C170.069 87.2173 170.433 86.6807 170.695 86.074C170.956 85.458 171.087 84.8 171.087 84.1ZM168.833 84.128C168.833 84.548 168.758 84.9447 168.609 85.318C168.469 85.682 168.268 86.004 168.007 86.284C167.755 86.564 167.447 86.7833 167.083 86.942C166.719 87.1007 166.322 87.18 165.893 87.18C165.454 87.18 165.053 87.1007 164.689 86.942C164.334 86.774 164.021 86.55 163.751 86.27C163.489 85.99 163.284 85.6633 163.135 85.29C162.995 84.9167 162.925 84.52 162.925 84.1V84.072C162.925 83.652 162.995 83.26 163.135 82.896C163.284 82.5227 163.485 82.196 163.737 81.916C163.998 81.636 164.306 81.4167 164.661 81.258C165.025 81.0993 165.426 81.02 165.865 81.02C166.294 81.02 166.691 81.104 167.055 81.272C167.419 81.4307 167.731 81.65 167.993 81.93C168.263 82.21 168.469 82.5367 168.609 82.91C168.758 83.2833 168.833 83.68 168.833 84.1V84.128ZM181.469 89L179.075 85.5C179.701 85.2667 180.205 84.9027 180.587 84.408C180.979 83.904 181.175 83.2553 181.175 82.462V82.434C181.175 81.4167 180.849 80.6233 180.195 80.054C179.551 79.4847 178.646 79.2 177.479 79.2H172.999V89H175.155V85.864H176.849L178.949 89H181.469ZM178.991 82.574C178.991 82.994 178.847 83.33 178.557 83.582C178.277 83.834 177.871 83.96 177.339 83.96H175.155V81.146H177.297C177.829 81.146 178.245 81.2627 178.543 81.496C178.842 81.7293 178.991 82.0793 178.991 82.546V82.574ZM75.3309 105.418L73.9589 104.032C73.5763 104.387 73.1889 104.667 72.7969 104.872C72.4143 105.077 71.9429 105.18 71.3829 105.18C70.9629 105.18 70.5756 105.101 70.2209 104.942C69.8756 104.774 69.5769 104.55 69.3249 104.27C69.0823 103.99 68.8909 103.663 68.7509 103.29C68.6109 102.917 68.5409 102.52 68.5409 102.1V102.072C68.5409 101.652 68.6109 101.26 68.7509 100.896C68.8909 100.523 69.0869 100.196 69.3389 99.916C69.5909 99.636 69.8896 99.4167 70.2349 99.258C70.5896 99.0993 70.9723 99.02 71.3829 99.02C71.8776 99.02 72.3209 99.118 72.7129 99.314C73.1143 99.51 73.5063 99.7807 73.8889 100.126L75.2609 98.544C75.0369 98.32 74.7943 98.1147 74.5329 97.928C74.2716 97.7413 73.9869 97.5827 73.6789 97.452C73.3709 97.3213 73.0256 97.2187 72.6429 97.144C72.2696 97.0693 71.8543 97.032 71.3969 97.032C70.6409 97.032 69.9503 97.1673 69.3249 97.438C68.6996 97.6993 68.1629 98.0633 67.7149 98.53C67.2669 98.9873 66.9169 99.524 66.6649 100.14C66.4129 100.747 66.2869 101.4 66.2869 102.1V102.128C66.2869 102.828 66.4129 103.486 66.6649 104.102C66.9169 104.718 67.2669 105.255 67.7149 105.712C68.1629 106.16 68.6949 106.515 69.3109 106.776C69.9269 107.037 70.5943 107.168 71.3129 107.168C71.7889 107.168 72.2183 107.126 72.6009 107.042C72.9836 106.967 73.3336 106.855 73.6509 106.706C73.9776 106.547 74.2763 106.361 74.5469 106.146C74.8176 105.931 75.0789 105.689 75.3309 105.418ZM84.0989 107V105.04H79.2129V97.2H77.0569V107H84.0989ZM87.9788 107V97.2H85.8228V107H87.9788ZM100.228 107V97.2H97.904L95.328 101.344L92.752 97.2H90.428V107H92.542V100.644L95.272 104.788H95.328L98.086 100.602V107H100.228ZM110.912 104.312V104.284C110.912 103.631 110.749 103.122 110.422 102.758C110.096 102.385 109.648 102.091 109.078 101.876C109.256 101.783 109.419 101.671 109.568 101.54C109.727 101.409 109.862 101.26 109.974 101.092C110.096 100.915 110.189 100.719 110.254 100.504C110.329 100.289 110.366 100.042 110.366 99.762V99.734C110.366 98.9593 110.077 98.3433 109.498 97.886C108.929 97.4287 108.14 97.2 107.132 97.2H102.582V107H107.244C107.795 107 108.294 106.944 108.742 106.832C109.2 106.72 109.587 106.552 109.904 106.328C110.231 106.104 110.478 105.824 110.646 105.488C110.824 105.152 110.912 104.76 110.912 104.312ZM108.224 100.126C108.224 100.49 108.084 100.756 107.804 100.924C107.524 101.083 107.146 101.162 106.67 101.162H104.682V99.09H106.81C107.268 99.09 107.618 99.1787 107.86 99.356C108.103 99.524 108.224 99.7713 108.224 100.098V100.126ZM108.77 104.046C108.77 104.41 108.635 104.681 108.364 104.858C108.094 105.026 107.72 105.11 107.244 105.11H104.682V102.954H107.174C107.734 102.954 108.14 103.052 108.392 103.248C108.644 103.435 108.77 103.691 108.77 104.018V104.046ZM114.94 107V97.2H112.784V107H114.94ZM126.097 107V97.2H123.969V103.234L119.377 97.2H117.389V107H119.517V100.77L124.263 107H126.097ZM137.353 105.614V101.358H133.097V103.22H135.267V104.62C134.717 105.012 134.04 105.208 133.237 105.208C132.799 105.208 132.397 105.133 132.033 104.984C131.679 104.825 131.366 104.606 131.095 104.326C130.834 104.046 130.629 103.719 130.479 103.346C130.339 102.963 130.269 102.548 130.269 102.1V102.072C130.269 101.652 130.339 101.26 130.479 100.896C130.629 100.523 130.829 100.201 131.081 99.93C131.343 99.65 131.641 99.4307 131.977 99.272C132.323 99.104 132.691 99.02 133.083 99.02C133.363 99.02 133.62 99.0433 133.853 99.09C134.087 99.1367 134.301 99.202 134.497 99.286C134.703 99.37 134.899 99.4727 135.085 99.594C135.272 99.7153 135.459 99.8553 135.645 100.014L137.003 98.376C136.751 98.1613 136.49 97.97 136.219 97.802C135.949 97.634 135.659 97.494 135.351 97.382C135.043 97.27 134.707 97.186 134.343 97.13C133.989 97.0647 133.592 97.032 133.153 97.032C132.407 97.032 131.721 97.1673 131.095 97.438C130.47 97.6993 129.929 98.0633 129.471 98.53C129.014 98.9873 128.655 99.524 128.393 100.14C128.141 100.747 128.015 101.4 128.015 102.1V102.128C128.015 102.856 128.141 103.528 128.393 104.144C128.645 104.76 128.995 105.292 129.443 105.74C129.901 106.188 130.442 106.538 131.067 106.79C131.702 107.042 132.402 107.168 133.167 107.168C134.063 107.168 134.857 107.019 135.547 106.72C136.247 106.412 136.849 106.043 137.353 105.614ZM152.095 107L149.701 103.5C150.327 103.267 150.831 102.903 151.213 102.408C151.605 101.904 151.801 101.255 151.801 100.462V100.434C151.801 99.4167 151.475 98.6233 150.821 98.054C150.177 97.4847 149.272 97.2 148.105 97.2H143.625V107H145.781V103.864H147.475L149.575 107H152.095ZM149.617 100.574C149.617 100.994 149.473 101.33 149.183 101.582C148.903 101.834 148.497 101.96 147.965 101.96H145.781V99.146H147.923C148.455 99.146 148.871 99.2627 149.169 99.496C149.468 99.7293 149.617 100.079 149.617 100.546V100.574ZM163.724 102.1V102.072C163.724 101.372 163.594 100.719 163.332 100.112C163.08 99.496 162.721 98.964 162.254 98.516C161.797 98.0587 161.251 97.6993 160.616 97.438C159.982 97.1673 159.286 97.032 158.53 97.032C157.774 97.032 157.074 97.1673 156.43 97.438C155.796 97.6993 155.245 98.0633 154.778 98.53C154.321 98.9873 153.962 99.524 153.7 100.14C153.439 100.747 153.308 101.4 153.308 102.1V102.128C153.308 102.828 153.434 103.486 153.686 104.102C153.948 104.709 154.307 105.241 154.764 105.698C155.231 106.146 155.782 106.505 156.416 106.776C157.051 107.037 157.746 107.168 158.502 107.168C159.258 107.168 159.954 107.037 160.588 106.776C161.232 106.505 161.783 106.141 162.24 105.684C162.707 105.217 163.071 104.681 163.332 104.074C163.594 103.458 163.724 102.8 163.724 102.1ZM161.47 102.128C161.47 102.548 161.396 102.945 161.246 103.318C161.106 103.682 160.906 104.004 160.644 104.284C160.392 104.564 160.084 104.783 159.72 104.942C159.356 105.101 158.96 105.18 158.53 105.18C158.092 105.18 157.69 105.101 157.326 104.942C156.972 104.774 156.659 104.55 156.388 104.27C156.127 103.99 155.922 103.663 155.772 103.29C155.632 102.917 155.562 102.52 155.562 102.1V102.072C155.562 101.652 155.632 101.26 155.772 100.896C155.922 100.523 156.122 100.196 156.374 99.916C156.636 99.636 156.944 99.4167 157.298 99.258C157.662 99.0993 158.064 99.02 158.502 99.02C158.932 99.02 159.328 99.104 159.692 99.272C160.056 99.4307 160.369 99.65 160.63 99.93C160.901 100.21 161.106 100.537 161.246 100.91C161.396 101.283 161.47 101.68 161.47 102.1V102.128ZM174.023 102.73V97.2H171.867V102.814C171.867 103.598 171.68 104.186 171.307 104.578C170.934 104.97 170.416 105.166 169.753 105.166C169.09 105.166 168.572 104.965 168.199 104.564C167.826 104.153 167.639 103.547 167.639 102.744V97.2H165.483V102.8C165.483 104.247 165.861 105.334 166.617 106.062C167.373 106.79 168.409 107.154 169.725 107.154C170.378 107.154 170.971 107.065 171.503 106.888C172.035 106.701 172.488 106.426 172.861 106.062C173.234 105.689 173.519 105.227 173.715 104.676C173.92 104.125 174.023 103.477 174.023 102.73ZM183.639 99.188V97.2H175.519V99.188H178.501V107H180.657V99.188H183.639ZM192.759 107V105.082H187.439V103.024H192.059V101.106H187.439V99.118H192.689V97.2H185.297V107H192.759ZM201.76 104.102V104.074C201.76 103.645 201.69 103.276 201.55 102.968C201.419 102.66 201.219 102.394 200.948 102.17C200.687 101.937 200.36 101.741 199.968 101.582C199.585 101.414 199.147 101.265 198.652 101.134C198.232 101.022 197.882 100.924 197.602 100.84C197.331 100.756 197.117 100.667 196.958 100.574C196.799 100.481 196.687 100.378 196.622 100.266C196.566 100.145 196.538 100.005 196.538 99.846V99.818C196.538 99.5753 196.641 99.3747 196.846 99.216C197.061 99.048 197.378 98.964 197.798 98.964C198.218 98.964 198.638 99.0527 199.058 99.23C199.478 99.398 199.907 99.6313 200.346 99.93L201.466 98.306C200.962 97.9047 200.407 97.5967 199.8 97.382C199.203 97.1673 198.545 97.06 197.826 97.06C197.322 97.06 196.86 97.13 196.44 97.27C196.02 97.41 195.656 97.6107 195.348 97.872C195.049 98.1333 194.816 98.446 194.648 98.81C194.48 99.1647 194.396 99.566 194.396 100.014V100.042C194.396 100.527 194.471 100.933 194.62 101.26C194.779 101.587 194.998 101.862 195.278 102.086C195.558 102.301 195.899 102.483 196.3 102.632C196.701 102.781 197.149 102.917 197.644 103.038C198.055 103.141 198.386 103.239 198.638 103.332C198.899 103.425 199.1 103.519 199.24 103.612C199.389 103.705 199.487 103.808 199.534 103.92C199.59 104.023 199.618 104.144 199.618 104.284V104.312C199.618 104.601 199.492 104.83 199.24 104.998C198.997 105.157 198.652 105.236 198.204 105.236C197.644 105.236 197.126 105.129 196.65 104.914C196.183 104.699 195.726 104.41 195.278 104.046L194.004 105.572C194.592 106.104 195.245 106.501 195.964 106.762C196.683 107.014 197.415 107.14 198.162 107.14C198.694 107.14 199.179 107.075 199.618 106.944C200.057 106.804 200.435 106.608 200.752 106.356C201.069 106.095 201.317 105.777 201.494 105.404C201.671 105.021 201.76 104.587 201.76 104.102Z" fill="#293978"/>
<path d="M95.3645 329V327.04H90.4785V319.2H88.3225V329H95.3645ZM106.972 324.1V324.072C106.972 323.372 106.842 322.719 106.58 322.112C106.328 321.496 105.969 320.964 105.502 320.516C105.045 320.059 104.499 319.699 103.864 319.438C103.23 319.167 102.534 319.032 101.778 319.032C101.022 319.032 100.322 319.167 99.6785 319.438C99.0438 319.699 98.4931 320.063 98.0265 320.53C97.5691 320.987 97.2098 321.524 96.9485 322.14C96.6871 322.747 96.5565 323.4 96.5565 324.1V324.128C96.5565 324.828 96.6825 325.486 96.9345 326.102C97.1958 326.709 97.5551 327.241 98.0125 327.698C98.4791 328.146 99.0298 328.505 99.6645 328.776C100.299 329.037 100.994 329.168 101.75 329.168C102.506 329.168 103.202 329.037 103.836 328.776C104.48 328.505 105.031 328.141 105.488 327.684C105.955 327.217 106.319 326.681 106.58 326.074C106.842 325.458 106.972 324.8 106.972 324.1ZM104.718 324.128C104.718 324.548 104.644 324.945 104.494 325.318C104.354 325.682 104.154 326.004 103.892 326.284C103.64 326.564 103.332 326.783 102.968 326.942C102.604 327.101 102.208 327.18 101.778 327.18C101.34 327.18 100.938 327.101 100.574 326.942C100.22 326.774 99.9071 326.55 99.6365 326.27C99.3751 325.99 99.1698 325.663 99.0205 325.29C98.8805 324.917 98.8105 324.52 98.8105 324.1V324.072C98.8105 323.652 98.8805 323.26 99.0205 322.896C99.1698 322.523 99.3705 322.196 99.6225 321.916C99.8838 321.636 100.192 321.417 100.546 321.258C100.91 321.099 101.312 321.02 101.75 321.02C102.18 321.02 102.576 321.104 102.94 321.272C103.304 321.431 103.617 321.65 103.878 321.93C104.149 322.21 104.354 322.537 104.494 322.91C104.644 323.283 104.718 323.68 104.718 324.1V324.128ZM117.495 327.418L116.123 326.032C115.74 326.387 115.353 326.667 114.961 326.872C114.578 327.077 114.107 327.18 113.547 327.18C113.127 327.18 112.74 327.101 112.385 326.942C112.04 326.774 111.741 326.55 111.489 326.27C111.246 325.99 111.055 325.663 110.915 325.29C110.775 324.917 110.705 324.52 110.705 324.1V324.072C110.705 323.652 110.775 323.26 110.915 322.896C111.055 322.523 111.251 322.196 111.503 321.916C111.755 321.636 112.054 321.417 112.399 321.258C112.754 321.099 113.136 321.02 113.547 321.02C114.042 321.02 114.485 321.118 114.877 321.314C115.278 321.51 115.67 321.781 116.053 322.126L117.425 320.544C117.201 320.32 116.958 320.115 116.697 319.928C116.436 319.741 116.151 319.583 115.843 319.452C115.535 319.321 115.19 319.219 114.807 319.144C114.434 319.069 114.018 319.032 113.561 319.032C112.805 319.032 112.114 319.167 111.489 319.438C110.864 319.699 110.327 320.063 109.879 320.53C109.431 320.987 109.081 321.524 108.829 322.14C108.577 322.747 108.451 323.4 108.451 324.1V324.128C108.451 324.828 108.577 325.486 108.829 326.102C109.081 326.718 109.431 327.255 109.879 327.712C110.327 328.16 110.859 328.515 111.475 328.776C112.091 329.037 112.758 329.168 113.477 329.168C113.953 329.168 114.382 329.126 114.765 329.042C115.148 328.967 115.498 328.855 115.815 328.706C116.142 328.547 116.44 328.361 116.711 328.146C116.982 327.931 117.243 327.689 117.495 327.418ZM128.769 329L124.569 319.13H122.581L118.381 329H120.579L121.475 326.802H125.619L126.515 329H128.769ZM124.849 324.898H122.245L123.547 321.72L124.849 324.898ZM137.701 321.188V319.2H129.581V321.188H132.563V329H134.719V321.188H137.701ZM146.822 329V327.082H141.502V325.024H146.122V323.106H141.502V321.118H146.752V319.2H139.36V329H146.822ZM160.356 321.188V319.2H152.236V321.188H155.218V329H157.374V321.188H160.356ZM170.302 329V319.2H168.146V323.078H164.17V319.2H162.014V329H164.17V325.066H168.146V329H170.302ZM180.113 329V327.082H174.793V325.024H179.413V323.106H174.793V321.118H180.043V319.2H172.651V329H180.113ZM76.0555 345.418L74.6835 344.032C74.3009 344.387 73.9135 344.667 73.5215 344.872C73.1389 345.077 72.6675 345.18 72.1075 345.18C71.6875 345.18 71.3002 345.101 70.9455 344.942C70.6002 344.774 70.3015 344.55 70.0495 344.27C69.8069 343.99 69.6155 343.663 69.4755 343.29C69.3355 342.917 69.2655 342.52 69.2655 342.1V342.072C69.2655 341.652 69.3355 341.26 69.4755 340.896C69.6155 340.523 69.8115 340.196 70.0635 339.916C70.3155 339.636 70.6142 339.417 70.9595 339.258C71.3142 339.099 71.6969 339.02 72.1075 339.02C72.6022 339.02 73.0455 339.118 73.4375 339.314C73.8389 339.51 74.2309 339.781 74.6135 340.126L75.9855 338.544C75.7615 338.32 75.5189 338.115 75.2575 337.928C74.9962 337.741 74.7115 337.583 74.4035 337.452C74.0955 337.321 73.7502 337.219 73.3675 337.144C72.9942 337.069 72.5789 337.032 72.1215 337.032C71.3655 337.032 70.6749 337.167 70.0495 337.438C69.4242 337.699 68.8875 338.063 68.4395 338.53C67.9915 338.987 67.6415 339.524 67.3895 340.14C67.1375 340.747 67.0115 341.4 67.0115 342.1V342.128C67.0115 342.828 67.1375 343.486 67.3895 344.102C67.6415 344.718 67.9915 345.255 68.4395 345.712C68.8875 346.16 69.4195 346.515 70.0355 346.776C70.6515 347.037 71.3189 347.168 72.0375 347.168C72.5135 347.168 72.9429 347.126 73.3255 347.042C73.7082 346.967 74.0582 346.855 74.3755 346.706C74.7022 346.547 75.0009 346.361 75.2715 346.146C75.5422 345.931 75.8035 345.689 76.0555 345.418ZM87.7635 342.1V342.072C87.7635 341.372 87.6328 340.719 87.3715 340.112C87.1195 339.496 86.7601 338.964 86.2935 338.516C85.8361 338.059 85.2901 337.699 84.6555 337.438C84.0208 337.167 83.3255 337.032 82.5695 337.032C81.8135 337.032 81.1135 337.167 80.4695 337.438C79.8348 337.699 79.2841 338.063 78.8175 338.53C78.3601 338.987 78.0008 339.524 77.7395 340.14C77.4781 340.747 77.3475 341.4 77.3475 342.1V342.128C77.3475 342.828 77.4735 343.486 77.7255 344.102C77.9868 344.709 78.3461 345.241 78.8035 345.698C79.2701 346.146 79.8208 346.505 80.4555 346.776C81.0901 347.037 81.7855 347.168 82.5415 347.168C83.2975 347.168 83.9928 347.037 84.6275 346.776C85.2715 346.505 85.8221 346.141 86.2795 345.684C86.7461 345.217 87.1101 344.681 87.3715 344.074C87.6328 343.458 87.7635 342.8 87.7635 342.1ZM85.5095 342.128C85.5095 342.548 85.4348 342.945 85.2855 343.318C85.1455 343.682 84.9448 344.004 84.6835 344.284C84.4315 344.564 84.1235 344.783 83.7595 344.942C83.3955 345.101 82.9988 345.18 82.5695 345.18C82.1308 345.18 81.7295 345.101 81.3655 344.942C81.0108 344.774 80.6981 344.55 80.4275 344.27C80.1661 343.99 79.9608 343.663 79.8115 343.29C79.6715 342.917 79.6015 342.52 79.6015 342.1V342.072C79.6015 341.652 79.6715 341.26 79.8115 340.896C79.9608 340.523 80.1615 340.196 80.4135 339.916C80.6748 339.636 80.9828 339.417 81.3375 339.258C81.7015 339.099 82.1028 339.02 82.5415 339.02C82.9708 339.02 83.3675 339.104 83.7315 339.272C84.0955 339.431 84.4081 339.65 84.6695 339.93C84.9401 340.21 85.1455 340.537 85.2855 340.91C85.4348 341.283 85.5095 341.68 85.5095 342.1V342.128ZM98.146 347L95.752 343.5C96.3773 343.267 96.8813 342.903 97.264 342.408C97.656 341.904 97.852 341.255 97.852 340.462V340.434C97.852 339.417 97.5253 338.623 96.872 338.054C96.228 337.485 95.3227 337.2 94.156 337.2H89.676V347H91.832V343.864H93.526L95.626 347H98.146ZM95.668 340.574C95.668 340.994 95.5233 341.33 95.234 341.582C94.954 341.834 94.548 341.96 94.016 341.96H91.832V339.146H93.974C94.506 339.146 94.9213 339.263 95.22 339.496C95.5187 339.729 95.668 340.079 95.668 340.546V340.574ZM108.263 347L105.869 343.5C106.495 343.267 106.999 342.903 107.381 342.408C107.773 341.904 107.969 341.255 107.969 340.462V340.434C107.969 339.417 107.643 338.623 106.989 338.054C106.345 337.485 105.44 337.2 104.273 337.2H99.7932V347H101.949V343.864H103.643L105.743 347H108.263ZM105.785 340.574C105.785 340.994 105.641 341.33 105.351 341.582C105.071 341.834 104.665 341.96 104.133 341.96H101.949V339.146H104.091C104.623 339.146 105.039 339.263 105.337 339.496C105.636 339.729 105.785 340.079 105.785 340.546V340.574ZM117.372 347V345.082H112.052V343.024H116.672V341.106H112.052V339.118H117.302V337.2H109.91V347H117.372ZM127.899 345.418L126.527 344.032C126.145 344.387 125.757 344.667 125.365 344.872C124.983 345.077 124.511 345.18 123.951 345.18C123.531 345.18 123.144 345.101 122.789 344.942C122.444 344.774 122.145 344.55 121.893 344.27C121.651 343.99 121.459 343.663 121.319 343.29C121.179 342.917 121.109 342.52 121.109 342.1V342.072C121.109 341.652 121.179 341.26 121.319 340.896C121.459 340.523 121.655 340.196 121.907 339.916C122.159 339.636 122.458 339.417 122.803 339.258C123.158 339.099 123.541 339.02 123.951 339.02C124.446 339.02 124.889 339.118 125.281 339.314C125.683 339.51 126.075 339.781 126.457 340.126L127.829 338.544C127.605 338.32 127.363 338.115 127.101 337.928C126.84 337.741 126.555 337.583 126.247 337.452C125.939 337.321 125.594 337.219 125.211 337.144C124.838 337.069 124.423 337.032 123.965 337.032C123.209 337.032 122.519 337.167 121.893 337.438C121.268 337.699 120.731 338.063 120.283 338.53C119.835 338.987 119.485 339.524 119.233 340.14C118.981 340.747 118.855 341.4 118.855 342.1V342.128C118.855 342.828 118.981 343.486 119.233 344.102C119.485 344.718 119.835 345.255 120.283 345.712C120.731 346.16 121.263 346.515 121.879 346.776C122.495 347.037 123.163 347.168 123.881 347.168C124.357 347.168 124.787 347.126 125.169 347.042C125.552 346.967 125.902 346.855 126.219 346.706C126.546 346.547 126.845 346.361 127.115 346.146C127.386 345.931 127.647 345.689 127.899 345.418ZM137.045 339.188V337.2H128.925V339.188H131.907V347H134.063V339.188H137.045ZM151.371 347L148.977 343.5C149.602 343.267 150.106 342.903 150.489 342.408C150.881 341.904 151.077 341.255 151.077 340.462V340.434C151.077 339.417 150.75 338.623 150.097 338.054C149.453 337.485 148.547 337.2 147.381 337.2H142.901V347H145.057V343.864H146.751L148.851 347H151.371ZM148.893 340.574C148.893 340.994 148.748 341.33 148.459 341.582C148.179 341.834 147.773 341.96 147.241 341.96H145.057V339.146H147.199C147.731 339.146 148.146 339.263 148.445 339.496C148.743 339.729 148.893 340.079 148.893 340.546V340.574ZM163 342.1V342.072C163 341.372 162.869 340.719 162.608 340.112C162.356 339.496 161.996 338.964 161.53 338.516C161.072 338.059 160.526 337.699 159.892 337.438C159.257 337.167 158.562 337.032 157.806 337.032C157.05 337.032 156.35 337.167 155.706 337.438C155.071 337.699 154.52 338.063 154.054 338.53C153.596 338.987 153.237 339.524 152.976 340.14C152.714 340.747 152.584 341.4 152.584 342.1V342.128C152.584 342.828 152.71 343.486 152.962 344.102C153.223 344.709 153.582 345.241 154.04 345.698C154.506 346.146 155.057 346.505 155.692 346.776C156.326 347.037 157.022 347.168 157.778 347.168C158.534 347.168 159.229 347.037 159.864 346.776C160.508 346.505 161.058 346.141 161.516 345.684C161.982 345.217 162.346 344.681 162.608 344.074C162.869 343.458 163 342.8 163 342.1ZM160.746 342.128C160.746 342.548 160.671 342.945 160.522 343.318C160.382 343.682 160.181 344.004 159.92 344.284C159.668 344.564 159.36 344.783 158.996 344.942C158.632 345.101 158.235 345.18 157.806 345.18C157.367 345.18 156.966 345.101 156.602 344.942C156.247 344.774 155.934 344.55 155.664 344.27C155.402 343.99 155.197 343.663 155.048 343.29C154.908 342.917 154.838 342.52 154.838 342.1V342.072C154.838 341.652 154.908 341.26 155.048 340.896C155.197 340.523 155.398 340.196 155.65 339.916C155.911 339.636 156.219 339.417 156.574 339.258C156.938 339.099 157.339 339.02 157.778 339.02C158.207 339.02 158.604 339.104 158.968 339.272C159.332 339.431 159.644 339.65 159.906 339.93C160.176 340.21 160.382 340.537 160.522 340.91C160.671 341.283 160.746 341.68 160.746 342.1V342.128ZM173.298 342.73V337.2H171.142V342.814C171.142 343.598 170.956 344.186 170.582 344.578C170.209 344.97 169.691 345.166 169.028 345.166C168.366 345.166 167.848 344.965 167.474 344.564C167.101 344.153 166.914 343.547 166.914 342.744V337.2H164.758V342.8C164.758 344.247 165.136 345.334 165.892 346.062C166.648 346.79 167.684 347.154 169 347.154C169.654 347.154 170.246 347.065 170.778 346.888C171.31 346.701 171.763 346.426 172.136 346.062C172.51 345.689 172.794 345.227 172.99 344.676C173.196 344.125 173.298 343.477 173.298 342.73ZM182.914 339.188V337.2H174.794V339.188H177.776V347H179.932V339.188H182.914ZM192.034 347V345.082H186.714V343.024H191.334V341.106H186.714V339.118H191.964V337.2H184.572V347H192.034ZM201.035 344.102V344.074C201.035 343.645 200.965 343.276 200.825 342.968C200.695 342.66 200.494 342.394 200.223 342.17C199.962 341.937 199.635 341.741 199.243 341.582C198.861 341.414 198.422 341.265 197.927 341.134C197.507 341.022 197.157 340.924 196.877 340.84C196.607 340.756 196.392 340.667 196.233 340.574C196.075 340.481 195.963 340.378 195.897 340.266C195.841 340.145 195.813 340.005 195.813 339.846V339.818C195.813 339.575 195.916 339.375 196.121 339.216C196.336 339.048 196.653 338.964 197.073 338.964C197.493 338.964 197.913 339.053 198.333 339.23C198.753 339.398 199.183 339.631 199.621 339.93L200.741 338.306C200.237 337.905 199.682 337.597 199.075 337.382C198.478 337.167 197.82 337.06 197.101 337.06C196.597 337.06 196.135 337.13 195.715 337.27C195.295 337.41 194.931 337.611 194.623 337.872C194.325 338.133 194.091 338.446 193.923 338.81C193.755 339.165 193.671 339.566 193.671 340.014V340.042C193.671 340.527 193.746 340.933 193.895 341.26C194.054 341.587 194.273 341.862 194.553 342.086C194.833 342.301 195.174 342.483 195.575 342.632C195.977 342.781 196.425 342.917 196.919 343.038C197.33 343.141 197.661 343.239 197.913 343.332C198.175 343.425 198.375 343.519 198.515 343.612C198.665 343.705 198.763 343.808 198.809 343.92C198.865 344.023 198.893 344.144 198.893 344.284V344.312C198.893 344.601 198.767 344.83 198.515 344.998C198.273 345.157 197.927 345.236 197.479 345.236C196.919 345.236 196.401 345.129 195.925 344.914C195.459 344.699 195.001 344.41 194.553 344.046L193.279 345.572C193.867 346.104 194.521 346.501 195.239 346.762C195.958 347.014 196.691 347.14 197.437 347.14C197.969 347.14 198.455 347.075 198.893 346.944C199.332 346.804 199.71 346.608 200.027 346.356C200.345 346.095 200.592 345.777 200.769 345.404C200.947 345.021 201.035 344.587 201.035 344.102ZM92.8836 360.1V360.072C92.8836 359.372 92.7529 358.719 92.4916 358.112C92.2396 357.496 91.8803 356.964 91.4136 356.516C90.9563 356.059 90.4103 355.699 89.7756 355.438C89.1409 355.167 88.4456 355.032 87.6896 355.032C86.9336 355.032 86.2336 355.167 85.5896 355.438C84.9549 355.699 84.4043 356.063 83.9376 356.53C83.4803 356.987 83.1209 357.524 82.8596 358.14C82.5983 358.747 82.4676 359.4 82.4676 360.1V360.128C82.4676 360.828 82.5936 361.486 82.8456 362.102C83.1069 362.709 83.4663 363.241 83.9236 363.698C84.3903 364.146 84.9409 364.505 85.5756 364.776C86.2103 365.037 86.9056 365.168 87.6616 365.168C88.4176 365.168 89.1129 365.037 89.7476 364.776C90.3916 364.505 90.9423 364.141 91.3996 363.684C91.8663 363.217 92.2303 362.681 92.4916 362.074C92.7529 361.458 92.8836 360.8 92.8836 360.1ZM90.6296 360.128C90.6296 360.548 90.5549 360.945 90.4056 361.318C90.2656 361.682 90.0649 362.004 89.8036 362.284C89.5516 362.564 89.2436 362.783 88.8796 362.942C88.5156 363.101 88.1189 363.18 87.6896 363.18C87.2509 363.18 86.8496 363.101 86.4856 362.942C86.1309 362.774 85.8183 362.55 85.5476 362.27C85.2863 361.99 85.0809 361.663 84.9316 361.29C84.7916 360.917 84.7216 360.52 84.7216 360.1V360.072C84.7216 359.652 84.7916 359.26 84.9316 358.896C85.0809 358.523 85.2816 358.196 85.5336 357.916C85.7949 357.636 86.1029 357.417 86.4576 357.258C86.8216 357.099 87.2229 357.02 87.6616 357.02C88.0909 357.02 88.4876 357.104 88.8516 357.272C89.2156 357.431 89.5283 357.65 89.7896 357.93C90.0603 358.21 90.2656 358.537 90.4056 358.91C90.5549 359.283 90.6296 359.68 90.6296 360.1V360.128ZM103.504 365V355.2H101.376V361.234L96.7841 355.2H94.7961V365H96.9241V358.77L101.67 365H103.504ZM117.474 357.188V355.2H109.354V357.188H112.336V365H114.492V357.188H117.474ZM127.42 365V355.2H125.264V359.078H121.288V355.2H119.132V365H121.288V361.066H125.264V365H127.42ZM137.231 365V363.082H131.911V361.024H136.531V359.106H131.911V357.118H137.161V355.2H129.769V365H137.231ZM157.457 355.2H155.203L153.173 361.836L150.975 355.172H149.127L146.929 361.836L144.899 355.2H142.589L145.935 365.07H147.811L150.023 358.658L152.235 365.07H154.111L157.457 355.2ZM168.602 365L164.402 355.13H162.414L158.214 365H160.412L161.308 362.802H165.452L166.348 365H168.602ZM164.682 360.898H162.078L163.38 357.72L164.682 360.898ZM177.156 365V363.04H172.27V355.2H170.114V365H177.156ZM185.824 365V363.04H180.938V355.2H178.782V365H185.824Z" fill="#293978"/>
<path d="M296.945 206.312V206.284C296.945 205.631 296.782 205.122 296.455 204.758C296.129 204.385 295.681 204.091 295.111 203.876C295.289 203.783 295.452 203.671 295.601 203.54C295.76 203.409 295.895 203.26 296.007 203.092C296.129 202.915 296.222 202.719 296.287 202.504C296.362 202.289 296.399 202.042 296.399 201.762V201.734C296.399 200.959 296.11 200.343 295.531 199.886C294.962 199.429 294.173 199.2 293.165 199.2H288.615V209H293.277C293.828 209 294.327 208.944 294.775 208.832C295.233 208.72 295.62 208.552 295.937 208.328C296.264 208.104 296.511 207.824 296.679 207.488C296.857 207.152 296.945 206.76 296.945 206.312ZM294.257 202.126C294.257 202.49 294.117 202.756 293.837 202.924C293.557 203.083 293.179 203.162 292.703 203.162H290.715V201.09H292.843C293.301 201.09 293.651 201.179 293.893 201.356C294.136 201.524 294.257 201.771 294.257 202.098V202.126ZM294.803 206.046C294.803 206.41 294.668 206.681 294.397 206.858C294.127 207.026 293.753 207.11 293.277 207.11H290.715V204.954H293.207C293.767 204.954 294.173 205.052 294.425 205.248C294.677 205.435 294.803 205.691 294.803 206.018V206.046ZM305.761 209V207.04H300.875V199.2H298.719V209H305.761ZM317.369 204.1V204.072C317.369 203.372 317.238 202.719 316.977 202.112C316.725 201.496 316.366 200.964 315.899 200.516C315.442 200.059 314.896 199.699 314.261 199.438C313.626 199.167 312.931 199.032 312.175 199.032C311.419 199.032 310.719 199.167 310.075 199.438C309.44 199.699 308.89 200.063 308.423 200.53C307.966 200.987 307.606 201.524 307.345 202.14C307.084 202.747 306.953 203.4 306.953 204.1V204.128C306.953 204.828 307.079 205.486 307.331 206.102C307.592 206.709 307.952 207.241 308.409 207.698C308.876 208.146 309.426 208.505 310.061 208.776C310.696 209.037 311.391 209.168 312.147 209.168C312.903 209.168 313.598 209.037 314.233 208.776C314.877 208.505 315.428 208.141 315.885 207.684C316.352 207.217 316.716 206.681 316.977 206.074C317.238 205.458 317.369 204.8 317.369 204.1ZM315.115 204.128C315.115 204.548 315.04 204.945 314.891 205.318C314.751 205.682 314.55 206.004 314.289 206.284C314.037 206.564 313.729 206.783 313.365 206.942C313.001 207.101 312.604 207.18 312.175 207.18C311.736 207.18 311.335 207.101 310.971 206.942C310.616 206.774 310.304 206.55 310.033 206.27C309.772 205.99 309.566 205.663 309.417 205.29C309.277 204.917 309.207 204.52 309.207 204.1V204.072C309.207 203.652 309.277 203.26 309.417 202.896C309.566 202.523 309.767 202.196 310.019 201.916C310.28 201.636 310.588 201.417 310.943 201.258C311.307 201.099 311.708 201.02 312.147 201.02C312.576 201.02 312.973 201.104 313.337 201.272C313.701 201.431 314.014 201.65 314.275 201.93C314.546 202.21 314.751 202.537 314.891 202.91C315.04 203.283 315.115 203.68 315.115 204.1V204.128ZM328.185 207.614V203.358H323.929V205.22H326.099V206.62C325.549 207.012 324.872 207.208 324.069 207.208C323.631 207.208 323.229 207.133 322.865 206.984C322.511 206.825 322.198 206.606 321.927 206.326C321.666 206.046 321.461 205.719 321.311 205.346C321.171 204.963 321.101 204.548 321.101 204.1V204.072C321.101 203.652 321.171 203.26 321.311 202.896C321.461 202.523 321.661 202.201 321.913 201.93C322.175 201.65 322.473 201.431 322.809 201.272C323.155 201.104 323.523 201.02 323.915 201.02C324.195 201.02 324.452 201.043 324.685 201.09C324.919 201.137 325.133 201.202 325.329 201.286C325.535 201.37 325.731 201.473 325.917 201.594C326.104 201.715 326.291 201.855 326.477 202.014L327.835 200.376C327.583 200.161 327.322 199.97 327.051 199.802C326.781 199.634 326.491 199.494 326.183 199.382C325.875 199.27 325.539 199.186 325.175 199.13C324.821 199.065 324.424 199.032 323.985 199.032C323.239 199.032 322.553 199.167 321.927 199.438C321.302 199.699 320.761 200.063 320.303 200.53C319.846 200.987 319.487 201.524 319.225 202.14C318.973 202.747 318.847 203.4 318.847 204.1V204.128C318.847 204.856 318.973 205.528 319.225 206.144C319.477 206.76 319.827 207.292 320.275 207.74C320.733 208.188 321.274 208.538 321.899 208.79C322.534 209.042 323.234 209.168 323.999 209.168C324.895 209.168 325.689 209.019 326.379 208.72C327.079 208.412 327.681 208.043 328.185 207.614ZM342.213 202.616V202.588C342.213 202.084 342.125 201.627 341.947 201.216C341.779 200.796 341.532 200.437 341.205 200.138C340.888 199.839 340.496 199.611 340.029 199.452C339.572 199.284 339.049 199.2 338.461 199.2H334.457V209H336.613V206.06H338.251C338.802 206.06 339.315 205.99 339.791 205.85C340.277 205.701 340.697 205.481 341.051 205.192C341.415 204.903 341.7 204.543 341.905 204.114C342.111 203.685 342.213 203.185 342.213 202.616ZM340.029 202.658C340.029 203.078 339.88 203.433 339.581 203.722C339.283 204.002 338.863 204.142 338.321 204.142H336.613V201.146H338.279C338.821 201.146 339.245 201.272 339.553 201.524C339.871 201.776 340.029 202.145 340.029 202.63V202.658ZM353.791 204.1V204.072C353.791 203.372 353.66 202.719 353.399 202.112C353.147 201.496 352.787 200.964 352.321 200.516C351.863 200.059 351.317 199.699 350.683 199.438C350.048 199.167 349.353 199.032 348.597 199.032C347.841 199.032 347.141 199.167 346.497 199.438C345.862 199.699 345.311 200.063 344.845 200.53C344.387 200.987 344.028 201.524 343.767 202.14C343.505 202.747 343.375 203.4 343.375 204.1V204.128C343.375 204.828 343.501 205.486 343.753 206.102C344.014 206.709 344.373 207.241 344.831 207.698C345.297 208.146 345.848 208.505 346.483 208.776C347.117 209.037 347.813 209.168 348.569 209.168C349.325 209.168 350.02 209.037 350.655 208.776C351.299 208.505 351.849 208.141 352.307 207.684C352.773 207.217 353.137 206.681 353.399 206.074C353.66 205.458 353.791 204.8 353.791 204.1ZM351.537 204.128C351.537 204.548 351.462 204.945 351.313 205.318C351.173 205.682 350.972 206.004 350.711 206.284C350.459 206.564 350.151 206.783 349.787 206.942C349.423 207.101 349.026 207.18 348.597 207.18C348.158 207.18 347.757 207.101 347.393 206.942C347.038 206.774 346.725 206.55 346.455 206.27C346.193 205.99 345.988 205.663 345.839 205.29C345.699 204.917 345.629 204.52 345.629 204.1V204.072C345.629 203.652 345.699 203.26 345.839 202.896C345.988 202.523 346.189 202.196 346.441 201.916C346.702 201.636 347.01 201.417 347.365 201.258C347.729 201.099 348.13 201.02 348.569 201.02C348.998 201.02 349.395 201.104 349.759 201.272C350.123 201.431 350.435 201.65 350.697 201.93C350.967 202.21 351.173 202.537 351.313 202.91C351.462 203.283 351.537 203.68 351.537 204.1V204.128ZM362.787 206.102V206.074C362.787 205.645 362.717 205.276 362.577 204.968C362.447 204.66 362.246 204.394 361.975 204.17C361.714 203.937 361.387 203.741 360.995 203.582C360.613 203.414 360.174 203.265 359.679 203.134C359.259 203.022 358.909 202.924 358.629 202.84C358.359 202.756 358.144 202.667 357.985 202.574C357.827 202.481 357.715 202.378 357.649 202.266C357.593 202.145 357.565 202.005 357.565 201.846V201.818C357.565 201.575 357.668 201.375 357.873 201.216C358.088 201.048 358.405 200.964 358.825 200.964C359.245 200.964 359.665 201.053 360.085 201.23C360.505 201.398 360.935 201.631 361.373 201.93L362.493 200.306C361.989 199.905 361.434 199.597 360.827 199.382C360.23 199.167 359.572 199.06 358.853 199.06C358.349 199.06 357.887 199.13 357.467 199.27C357.047 199.41 356.683 199.611 356.375 199.872C356.077 200.133 355.843 200.446 355.675 200.81C355.507 201.165 355.423 201.566 355.423 202.014V202.042C355.423 202.527 355.498 202.933 355.647 203.26C355.806 203.587 356.025 203.862 356.305 204.086C356.585 204.301 356.926 204.483 357.327 204.632C357.729 204.781 358.177 204.917 358.671 205.038C359.082 205.141 359.413 205.239 359.665 205.332C359.927 205.425 360.127 205.519 360.267 205.612C360.417 205.705 360.515 205.808 360.561 205.92C360.617 206.023 360.645 206.144 360.645 206.284V206.312C360.645 206.601 360.519 206.83 360.267 206.998C360.025 207.157 359.679 207.236 359.231 207.236C358.671 207.236 358.153 207.129 357.677 206.914C357.211 206.699 356.753 206.41 356.305 206.046L355.031 207.572C355.619 208.104 356.273 208.501 356.991 208.762C357.71 209.014 358.443 209.14 359.189 209.14C359.721 209.14 360.207 209.075 360.645 208.944C361.084 208.804 361.462 208.608 361.779 208.356C362.097 208.095 362.344 207.777 362.521 207.404C362.699 207.021 362.787 206.587 362.787 206.102ZM372.078 201.188V199.2H363.958V201.188H366.94V209H369.096V201.188H372.078Z" fill="#293978"/>
<path d="M258.02 329V327.04H253.134V319.2H250.978V329H258.02ZM269.628 324.1V324.072C269.628 323.372 269.497 322.719 269.236 322.112C268.984 321.496 268.624 320.964 268.158 320.516C267.7 320.059 267.154 319.699 266.52 319.438C265.885 319.167 265.19 319.032 264.434 319.032C263.678 319.032 262.978 319.167 262.334 319.438C261.699 319.699 261.148 320.063 260.682 320.53C260.224 320.987 259.865 321.524 259.604 322.14C259.342 322.747 259.212 323.4 259.212 324.1V324.128C259.212 324.828 259.338 325.486 259.59 326.102C259.851 326.709 260.21 327.241 260.668 327.698C261.134 328.146 261.685 328.505 262.32 328.776C262.954 329.037 263.65 329.168 264.406 329.168C265.162 329.168 265.857 329.037 266.492 328.776C267.136 328.505 267.686 328.141 268.144 327.684C268.61 327.217 268.974 326.681 269.236 326.074C269.497 325.458 269.628 324.8 269.628 324.1ZM267.374 324.128C267.374 324.548 267.299 324.945 267.15 325.318C267.01 325.682 266.809 326.004 266.548 326.284C266.296 326.564 265.988 326.783 265.624 326.942C265.26 327.101 264.863 327.18 264.434 327.18C263.995 327.18 263.594 327.101 263.23 326.942C262.875 326.774 262.562 326.55 262.292 326.27C262.03 325.99 261.825 325.663 261.676 325.29C261.536 324.917 261.466 324.52 261.466 324.1V324.072C261.466 323.652 261.536 323.26 261.676 322.896C261.825 322.523 262.026 322.196 262.278 321.916C262.539 321.636 262.847 321.417 263.202 321.258C263.566 321.099 263.967 321.02 264.406 321.02C264.835 321.02 265.232 321.104 265.596 321.272C265.96 321.431 266.272 321.65 266.534 321.93C266.804 322.21 267.01 322.537 267.15 322.91C267.299 323.283 267.374 323.68 267.374 324.1V324.128ZM280.15 327.418L278.778 326.032C278.396 326.387 278.008 326.667 277.616 326.872C277.234 327.077 276.762 327.18 276.202 327.18C275.782 327.18 275.395 327.101 275.04 326.942C274.695 326.774 274.396 326.55 274.144 326.27C273.902 325.99 273.71 325.663 273.57 325.29C273.43 324.917 273.36 324.52 273.36 324.1V324.072C273.36 323.652 273.43 323.26 273.57 322.896C273.71 322.523 273.906 322.196 274.158 321.916C274.41 321.636 274.709 321.417 275.054 321.258C275.409 321.099 275.792 321.02 276.202 321.02C276.697 321.02 277.14 321.118 277.532 321.314C277.934 321.51 278.326 321.781 278.708 322.126L280.08 320.544C279.856 320.32 279.614 320.115 279.352 319.928C279.091 319.741 278.806 319.583 278.498 319.452C278.19 319.321 277.845 319.219 277.462 319.144C277.089 319.069 276.674 319.032 276.216 319.032C275.46 319.032 274.77 319.167 274.144 319.438C273.519 319.699 272.982 320.063 272.534 320.53C272.086 320.987 271.736 321.524 271.484 322.14C271.232 322.747 271.106 323.4 271.106 324.1V324.128C271.106 324.828 271.232 325.486 271.484 326.102C271.736 326.718 272.086 327.255 272.534 327.712C272.982 328.16 273.514 328.515 274.13 328.776C274.746 329.037 275.414 329.168 276.132 329.168C276.608 329.168 277.038 329.126 277.42 329.042C277.803 328.967 278.153 328.855 278.47 328.706C278.797 328.547 279.096 328.361 279.366 328.146C279.637 327.931 279.898 327.689 280.15 327.418ZM291.424 329L287.224 319.13H285.236L281.036 329H283.234L284.13 326.802H288.274L289.17 329H291.424ZM287.504 324.898H284.9L286.202 321.72L287.504 324.898ZM300.357 321.188V319.2H292.237V321.188H295.219V329H297.375V321.188H300.357ZM309.477 329V327.082H304.157V325.024H308.777V323.106H304.157V321.118H309.407V319.2H302.015V329H309.477ZM323.011 321.188V319.2H314.891V321.188H317.873V329H320.029V321.188H323.011ZM332.957 329V319.2H330.801V323.078H326.825V319.2H324.669V329H326.825V325.066H330.801V329H332.957ZM342.768 329V327.082H337.448V325.024H342.068V323.106H337.448V321.118H342.698V319.2H335.306V329H342.768ZM357.492 327.418L356.12 326.032C355.737 326.387 355.35 326.667 354.958 326.872C354.575 327.077 354.104 327.18 353.544 327.18C353.124 327.18 352.737 327.101 352.382 326.942C352.037 326.774 351.738 326.55 351.486 326.27C351.243 325.99 351.052 325.663 350.912 325.29C350.772 324.917 350.702 324.52 350.702 324.1V324.072C350.702 323.652 350.772 323.26 350.912 322.896C351.052 322.523 351.248 322.196 351.5 321.916C351.752 321.636 352.051 321.417 352.396 321.258C352.751 321.099 353.133 321.02 353.544 321.02C354.039 321.02 354.482 321.118 354.874 321.314C355.275 321.51 355.667 321.781 356.05 322.126L357.422 320.544C357.198 320.32 356.955 320.115 356.694 319.928C356.433 319.741 356.148 319.583 355.84 319.452C355.532 319.321 355.187 319.219 354.804 319.144C354.431 319.069 354.015 319.032 353.558 319.032C352.802 319.032 352.111 319.167 351.486 319.438C350.861 319.699 350.324 320.063 349.876 320.53C349.428 320.987 349.078 321.524 348.826 322.14C348.574 322.747 348.448 323.4 348.448 324.1V324.128C348.448 324.828 348.574 325.486 348.826 326.102C349.078 326.718 349.428 327.255 349.876 327.712C350.324 328.16 350.856 328.515 351.472 328.776C352.088 329.037 352.755 329.168 353.474 329.168C353.95 329.168 354.379 329.126 354.762 329.042C355.145 328.967 355.495 328.855 355.812 328.706C356.139 328.547 356.437 328.361 356.708 328.146C356.979 327.931 357.24 327.689 357.492 327.418ZM367.688 329L365.294 325.5C365.919 325.267 366.423 324.903 366.806 324.408C367.198 323.904 367.394 323.255 367.394 322.462V322.434C367.394 321.417 367.067 320.623 366.414 320.054C365.77 319.485 364.865 319.2 363.698 319.2H359.218V329H361.374V325.864H363.068L365.168 329H367.688ZM365.21 322.574C365.21 322.994 365.065 323.33 364.776 323.582C364.496 323.834 364.09 323.96 363.558 323.96H361.374V321.146H363.516C364.048 321.146 364.463 321.263 364.762 321.496C365.061 321.729 365.21 322.079 365.21 322.546V322.574ZM378.883 329L374.683 319.13H372.695L368.495 329H370.693L371.589 326.802H375.733L376.629 329H378.883ZM374.963 324.898H372.359L373.661 321.72L374.963 324.898ZM389.3 327.614V323.358H385.044V325.22H387.214V326.62C386.663 327.012 385.986 327.208 385.184 327.208C384.745 327.208 384.344 327.133 383.98 326.984C383.625 326.825 383.312 326.606 383.042 326.326C382.78 326.046 382.575 325.719 382.426 325.346C382.286 324.963 382.216 324.548 382.216 324.1V324.072C382.216 323.652 382.286 323.26 382.426 322.896C382.575 322.523 382.776 322.201 383.028 321.93C383.289 321.65 383.588 321.431 383.924 321.272C384.269 321.104 384.638 321.02 385.03 321.02C385.31 321.02 385.566 321.043 385.8 321.09C386.033 321.137 386.248 321.202 386.444 321.286C386.649 321.37 386.845 321.473 387.032 321.594C387.218 321.715 387.405 321.855 387.592 322.014L388.95 320.376C388.698 320.161 388.436 319.97 388.166 319.802C387.895 319.634 387.606 319.494 387.298 319.382C386.99 319.27 386.654 319.186 386.29 319.13C385.935 319.065 385.538 319.032 385.1 319.032C384.353 319.032 383.667 319.167 383.042 319.438C382.416 319.699 381.875 320.063 381.418 320.53C380.96 320.987 380.601 321.524 380.34 322.14C380.088 322.747 379.962 323.4 379.962 324.1V324.128C379.962 324.856 380.088 325.528 380.34 326.144C380.592 326.76 380.942 327.292 381.39 327.74C381.847 328.188 382.388 328.538 383.014 328.79C383.648 329.042 384.348 329.168 385.114 329.168C386.01 329.168 386.803 329.019 387.494 328.72C388.194 328.412 388.796 328.043 389.3 327.614Z" fill="#293978"/>
<path d="M481.111 204.1V204.072C481.111 203.381 480.985 202.742 480.733 202.154C480.481 201.557 480.122 201.039 479.655 200.6C479.198 200.161 478.647 199.821 478.003 199.578C477.369 199.326 476.669 199.2 475.903 199.2H472.081V209H475.903C476.669 209 477.369 208.874 478.003 208.622C478.647 208.37 479.198 208.025 479.655 207.586C480.122 207.147 480.481 206.629 480.733 206.032C480.985 205.435 481.111 204.791 481.111 204.1ZM478.857 204.128C478.857 204.567 478.783 204.963 478.633 205.318C478.493 205.673 478.293 205.981 478.031 206.242C477.779 206.503 477.471 206.704 477.107 206.844C476.743 206.984 476.342 207.054 475.903 207.054H474.237V201.146H475.903C476.342 201.146 476.743 201.221 477.107 201.37C477.471 201.51 477.779 201.711 478.031 201.972C478.293 202.233 478.493 202.546 478.633 202.91C478.783 203.274 478.857 203.671 478.857 204.1V204.128ZM493.014 204.1V204.072C493.014 203.372 492.884 202.719 492.622 202.112C492.37 201.496 492.011 200.964 491.544 200.516C491.087 200.059 490.541 199.699 489.906 199.438C489.272 199.167 488.576 199.032 487.82 199.032C487.064 199.032 486.364 199.167 485.72 199.438C485.086 199.699 484.535 200.063 484.068 200.53C483.611 200.987 483.252 201.524 482.99 202.14C482.729 202.747 482.598 203.4 482.598 204.1V204.128C482.598 204.828 482.724 205.486 482.976 206.102C483.238 206.709 483.597 207.241 484.054 207.698C484.521 208.146 485.072 208.505 485.706 208.776C486.341 209.037 487.036 209.168 487.792 209.168C488.548 209.168 489.244 209.037 489.878 208.776C490.522 208.505 491.073 208.141 491.53 207.684C491.997 207.217 492.361 206.681 492.622 206.074C492.884 205.458 493.014 204.8 493.014 204.1ZM490.76 204.128C490.76 204.548 490.686 204.945 490.536 205.318C490.396 205.682 490.196 206.004 489.934 206.284C489.682 206.564 489.374 206.783 489.01 206.942C488.646 207.101 488.25 207.18 487.82 207.18C487.382 207.18 486.98 207.101 486.616 206.942C486.262 206.774 485.949 206.55 485.678 206.27C485.417 205.99 485.212 205.663 485.062 205.29C484.922 204.917 484.852 204.52 484.852 204.1V204.072C484.852 203.652 484.922 203.26 485.062 202.896C485.212 202.523 485.412 202.196 485.664 201.916C485.926 201.636 486.234 201.417 486.588 201.258C486.952 201.099 487.354 201.02 487.792 201.02C488.222 201.02 488.618 201.104 488.982 201.272C489.346 201.431 489.659 201.65 489.92 201.93C490.191 202.21 490.396 202.537 490.536 202.91C490.686 203.283 490.76 203.68 490.76 204.1V204.128ZM509.039 199.2H506.785L504.755 205.836L502.557 199.172H500.709L498.511 205.836L496.481 199.2H494.171L497.517 209.07H499.393L501.605 202.658L503.817 209.07H505.693L509.039 199.2ZM519.344 209V199.2H517.216V205.234L512.624 199.2H510.636V209H512.764V202.77L517.51 209H519.344ZM528.739 209V207.04H523.853V199.2H521.697V209H528.739ZM540.346 204.1V204.072C540.346 203.372 540.216 202.719 539.954 202.112C539.702 201.496 539.343 200.964 538.876 200.516C538.419 200.059 537.873 199.699 537.238 199.438C536.604 199.167 535.908 199.032 535.152 199.032C534.396 199.032 533.696 199.167 533.052 199.438C532.418 199.699 531.867 200.063 531.4 200.53C530.943 200.987 530.584 201.524 530.322 202.14C530.061 202.747 529.93 203.4 529.93 204.1V204.128C529.93 204.828 530.056 205.486 530.308 206.102C530.57 206.709 530.929 207.241 531.386 207.698C531.853 208.146 532.404 208.505 533.038 208.776C533.673 209.037 534.368 209.168 535.124 209.168C535.88 209.168 536.576 209.037 537.21 208.776C537.854 208.505 538.405 208.141 538.862 207.684C539.329 207.217 539.693 206.681 539.954 206.074C540.216 205.458 540.346 204.8 540.346 204.1ZM538.092 204.128C538.092 204.548 538.018 204.945 537.868 205.318C537.728 205.682 537.528 206.004 537.266 206.284C537.014 206.564 536.706 206.783 536.342 206.942C535.978 207.101 535.582 207.18 535.152 207.18C534.714 207.18 534.312 207.101 533.948 206.942C533.594 206.774 533.281 206.55 533.01 206.27C532.749 205.99 532.544 205.663 532.394 205.29C532.254 204.917 532.184 204.52 532.184 204.1V204.072C532.184 203.652 532.254 203.26 532.394 202.896C532.544 202.523 532.744 202.196 532.996 201.916C533.258 201.636 533.566 201.417 533.92 201.258C534.284 201.099 534.686 201.02 535.124 201.02C535.554 201.02 535.95 201.104 536.314 201.272C536.678 201.431 536.991 201.65 537.252 201.93C537.523 202.21 537.728 202.537 537.868 202.91C538.018 203.283 538.092 203.68 538.092 204.1V204.128ZM551.807 209L547.607 199.13H545.619L541.419 209H543.617L544.513 206.802H548.657L549.553 209H551.807ZM547.887 204.898H545.283L546.585 201.72L547.887 204.898ZM562.35 204.1V204.072C562.35 203.381 562.224 202.742 561.972 202.154C561.72 201.557 561.36 201.039 560.894 200.6C560.436 200.161 559.886 199.821 559.242 199.578C558.607 199.326 557.907 199.2 557.142 199.2H553.32V209H557.142C557.907 209 558.607 208.874 559.242 208.622C559.886 208.37 560.436 208.025 560.894 207.586C561.36 207.147 561.72 206.629 561.972 206.032C562.224 205.435 562.35 204.791 562.35 204.1ZM560.096 204.128C560.096 204.567 560.021 204.963 559.872 205.318C559.732 205.673 559.531 205.981 559.27 206.242C559.018 206.503 558.71 206.704 558.346 206.844C557.982 206.984 557.58 207.054 557.142 207.054H555.476V201.146H557.142C557.58 201.146 557.982 201.221 558.346 201.37C558.71 201.51 559.018 201.711 559.27 201.972C559.531 202.233 559.732 202.546 559.872 202.91C560.021 203.274 560.096 203.671 560.096 204.1V204.128ZM512.842 227L508.642 217.13H506.654L502.454 227H504.652L505.548 224.802H509.692L510.588 227H512.842ZM508.922 222.898H506.318L507.62 219.72L508.922 222.898ZM522.111 220.616V220.588C522.111 220.084 522.022 219.627 521.845 219.216C521.677 218.796 521.429 218.437 521.103 218.138C520.785 217.839 520.393 217.611 519.927 217.452C519.469 217.284 518.947 217.2 518.359 217.2H514.355V227H516.511V224.06H518.149C518.699 224.06 519.213 223.99 519.689 223.85C520.174 223.701 520.594 223.481 520.949 223.192C521.313 222.903 521.597 222.543 521.803 222.114C522.008 221.685 522.111 221.185 522.111 220.616ZM519.927 220.658C519.927 221.078 519.777 221.433 519.479 221.722C519.18 222.002 518.76 222.142 518.219 222.142H516.511V219.146H518.177C518.718 219.146 519.143 219.272 519.451 219.524C519.768 219.776 519.927 220.145 519.927 220.63V220.658ZM531.462 220.616V220.588C531.462 220.084 531.374 219.627 531.196 219.216C531.028 218.796 530.781 218.437 530.454 218.138C530.137 217.839 529.745 217.611 529.278 217.452C528.821 217.284 528.298 217.2 527.71 217.2H523.706V227H525.862V224.06H527.5C528.051 224.06 528.564 223.99 529.04 223.85C529.526 223.701 529.946 223.481 530.3 223.192C530.664 222.903 530.949 222.543 531.154 222.114C531.36 221.685 531.462 221.185 531.462 220.616ZM529.278 220.658C529.278 221.078 529.129 221.433 528.83 221.722C528.532 222.002 528.112 222.142 527.57 222.142H525.862V219.146H527.528C528.07 219.146 528.494 219.272 528.802 219.524C529.12 219.776 529.278 220.145 529.278 220.63V220.658Z" fill="#293978"/>
<path d="M449.19 326.102V326.074C449.19 325.645 449.12 325.276 448.98 324.968C448.849 324.66 448.648 324.394 448.378 324.17C448.116 323.937 447.79 323.741 447.398 323.582C447.015 323.414 446.576 323.265 446.082 323.134C445.662 323.022 445.312 322.924 445.032 322.84C444.761 322.756 444.546 322.667 444.388 322.574C444.229 322.481 444.117 322.378 444.052 322.266C443.996 322.145 443.968 322.005 443.968 321.846V321.818C443.968 321.575 444.07 321.375 444.276 321.216C444.49 321.048 444.808 320.964 445.228 320.964C445.648 320.964 446.068 321.053 446.488 321.23C446.908 321.398 447.337 321.631 447.776 321.93L448.896 320.306C448.392 319.905 447.836 319.597 447.23 319.382C446.632 319.167 445.974 319.06 445.256 319.06C444.752 319.06 444.29 319.13 443.87 319.27C443.45 319.41 443.086 319.611 442.778 319.872C442.479 320.133 442.246 320.446 442.078 320.81C441.91 321.165 441.826 321.566 441.826 322.014V322.042C441.826 322.527 441.9 322.933 442.05 323.26C442.208 323.587 442.428 323.862 442.708 324.086C442.988 324.301 443.328 324.483 443.73 324.632C444.131 324.781 444.579 324.917 445.074 325.038C445.484 325.141 445.816 325.239 446.068 325.332C446.329 325.425 446.53 325.519 446.67 325.612C446.819 325.705 446.917 325.808 446.964 325.92C447.02 326.023 447.048 326.144 447.048 326.284V326.312C447.048 326.601 446.922 326.83 446.67 326.998C446.427 327.157 446.082 327.236 445.634 327.236C445.074 327.236 444.556 327.129 444.08 326.914C443.613 326.699 443.156 326.41 442.708 326.046L441.434 327.572C442.022 328.104 442.675 328.501 443.394 328.762C444.112 329.014 444.845 329.14 445.592 329.14C446.124 329.14 446.609 329.075 447.048 328.944C447.486 328.804 447.864 328.608 448.182 328.356C448.499 328.095 448.746 327.777 448.924 327.404C449.101 327.021 449.19 326.587 449.19 326.102ZM458.523 329V327.082H453.203V325.024H457.823V323.106H453.203V321.118H458.453V319.2H451.061V329H458.523ZM469.988 329L465.788 319.13H463.8L459.6 329H461.798L462.694 326.802H466.838L467.734 329H469.988ZM466.068 324.898H463.464L464.766 321.72L466.068 324.898ZM479.97 329L477.576 325.5C478.202 325.267 478.706 324.903 479.088 324.408C479.48 323.904 479.676 323.255 479.676 322.462V322.434C479.676 321.417 479.35 320.623 478.696 320.054C478.052 319.485 477.147 319.2 475.98 319.2H471.5V329H473.656V325.864H475.35L477.45 329H479.97ZM477.492 322.574C477.492 322.994 477.348 323.33 477.058 323.582C476.778 323.834 476.372 323.96 475.84 323.96H473.656V321.146H475.798C476.33 321.146 476.746 321.263 477.044 321.496C477.343 321.729 477.492 322.079 477.492 322.546V322.574ZM490.227 327.418L488.855 326.032C488.473 326.387 488.085 326.667 487.693 326.872C487.311 327.077 486.839 327.18 486.279 327.18C485.859 327.18 485.472 327.101 485.117 326.942C484.772 326.774 484.473 326.55 484.221 326.27C483.979 325.99 483.787 325.663 483.647 325.29C483.507 324.917 483.437 324.52 483.437 324.1V324.072C483.437 323.652 483.507 323.26 483.647 322.896C483.787 322.523 483.983 322.196 484.235 321.916C484.487 321.636 484.786 321.417 485.131 321.258C485.486 321.099 485.869 321.02 486.279 321.02C486.774 321.02 487.217 321.118 487.609 321.314C488.011 321.51 488.403 321.781 488.785 322.126L490.157 320.544C489.933 320.32 489.691 320.115 489.429 319.928C489.168 319.741 488.883 319.583 488.575 319.452C488.267 319.321 487.922 319.219 487.539 319.144C487.166 319.069 486.751 319.032 486.293 319.032C485.537 319.032 484.847 319.167 484.221 319.438C483.596 319.699 483.059 320.063 482.611 320.53C482.163 320.987 481.813 321.524 481.561 322.14C481.309 322.747 481.183 323.4 481.183 324.1V324.128C481.183 324.828 481.309 325.486 481.561 326.102C481.813 326.718 482.163 327.255 482.611 327.712C483.059 328.16 483.591 328.515 484.207 328.776C484.823 329.037 485.491 329.168 486.209 329.168C486.685 329.168 487.115 329.126 487.497 329.042C487.88 328.967 488.23 328.855 488.547 328.706C488.874 328.547 489.173 328.361 489.443 328.146C489.714 327.931 489.975 327.689 490.227 327.418ZM500.241 329V319.2H498.085V323.078H494.109V319.2H491.953V329H494.109V325.066H498.085V329H500.241ZM514.249 321.16V319.2H506.787V329H508.943V325.206H513.619V323.246H508.943V321.16H514.249ZM525.957 324.1V324.072C525.957 323.372 525.826 322.719 525.565 322.112C525.313 321.496 524.953 320.964 524.487 320.516C524.029 320.059 523.483 319.699 522.849 319.438C522.214 319.167 521.519 319.032 520.763 319.032C520.007 319.032 519.307 319.167 518.663 319.438C518.028 319.699 517.477 320.063 517.011 320.53C516.553 320.987 516.194 321.524 515.933 322.14C515.671 322.747 515.541 323.4 515.541 324.1V324.128C515.541 324.828 515.667 325.486 515.919 326.102C516.18 326.709 516.539 327.241 516.997 327.698C517.463 328.146 518.014 328.505 518.649 328.776C519.283 329.037 519.979 329.168 520.735 329.168C521.491 329.168 522.186 329.037 522.821 328.776C523.465 328.505 524.015 328.141 524.473 327.684C524.939 327.217 525.303 326.681 525.565 326.074C525.826 325.458 525.957 324.8 525.957 324.1ZM523.703 324.128C523.703 324.548 523.628 324.945 523.479 325.318C523.339 325.682 523.138 326.004 522.877 326.284C522.625 326.564 522.317 326.783 521.953 326.942C521.589 327.101 521.192 327.18 520.763 327.18C520.324 327.18 519.923 327.101 519.559 326.942C519.204 326.774 518.891 326.55 518.621 326.27C518.359 325.99 518.154 325.663 518.005 325.29C517.865 324.917 517.795 324.52 517.795 324.1V324.072C517.795 323.652 517.865 323.26 518.005 322.896C518.154 322.523 518.355 322.196 518.607 321.916C518.868 321.636 519.176 321.417 519.531 321.258C519.895 321.099 520.296 321.02 520.735 321.02C521.164 321.02 521.561 321.104 521.925 321.272C522.289 321.431 522.601 321.65 522.863 321.93C523.133 322.21 523.339 322.537 523.479 322.91C523.628 323.283 523.703 323.68 523.703 324.1V324.128ZM536.339 329L533.945 325.5C534.571 325.267 535.075 324.903 535.457 324.408C535.849 323.904 536.045 323.255 536.045 322.462V322.434C536.045 321.417 535.719 320.623 535.065 320.054C534.421 319.485 533.516 319.2 532.349 319.2H527.869V329H530.025V325.864H531.719L533.819 329H536.339ZM533.861 322.574C533.861 322.994 533.717 323.33 533.427 323.582C533.147 323.834 532.741 323.96 532.209 323.96H530.025V321.146H532.167C532.699 321.146 533.115 321.263 533.413 321.496C533.712 321.729 533.861 322.079 533.861 322.546V322.574ZM550.794 327.418L549.422 326.032C549.039 326.387 548.652 326.667 548.26 326.872C547.877 327.077 547.406 327.18 546.846 327.18C546.426 327.18 546.038 327.101 545.684 326.942C545.338 326.774 545.04 326.55 544.788 326.27C544.545 325.99 544.354 325.663 544.214 325.29C544.074 324.917 544.004 324.52 544.004 324.1V324.072C544.004 323.652 544.074 323.26 544.214 322.896C544.354 322.523 544.55 322.196 544.802 321.916C545.054 321.636 545.352 321.417 545.698 321.258C546.052 321.099 546.435 321.02 546.846 321.02C547.34 321.02 547.784 321.118 548.176 321.314C548.577 321.51 548.969 321.781 549.352 322.126L550.724 320.544C550.5 320.32 550.257 320.115 549.996 319.928C549.734 319.741 549.45 319.583 549.142 319.452C548.834 319.321 548.488 319.219 548.106 319.144C547.732 319.069 547.317 319.032 546.86 319.032C546.104 319.032 545.413 319.167 544.788 319.438C544.162 319.699 543.626 320.063 543.178 320.53C542.73 320.987 542.38 321.524 542.128 322.14C541.876 322.747 541.75 323.4 541.75 324.1V324.128C541.75 324.828 541.876 325.486 542.128 326.102C542.38 326.718 542.73 327.255 543.178 327.712C543.626 328.16 544.158 328.515 544.774 328.776C545.39 329.037 546.057 329.168 546.776 329.168C547.252 329.168 547.681 329.126 548.064 329.042C548.446 328.967 548.796 328.855 549.114 328.706C549.44 328.547 549.739 328.361 550.01 328.146C550.28 327.931 550.542 327.689 550.794 327.418ZM559.562 329V327.04H554.676V319.2H552.52V329H559.562ZM563.442 329V319.2H561.286V329H563.442ZM575.691 329V319.2H573.367L570.791 323.344L568.215 319.2H565.891V329H568.005V322.644L570.735 326.788H570.791L573.549 322.602V329H575.691ZM586.375 326.312V326.284C586.375 325.631 586.212 325.122 585.885 324.758C585.558 324.385 585.11 324.091 584.541 323.876C584.718 323.783 584.882 323.671 585.031 323.54C585.19 323.409 585.325 323.26 585.437 323.092C585.558 322.915 585.652 322.719 585.717 322.504C585.792 322.289 585.829 322.042 585.829 321.762V321.734C585.829 320.959 585.54 320.343 584.961 319.886C584.392 319.429 583.603 319.2 582.595 319.2H578.045V329H582.707C583.258 329 583.757 328.944 584.205 328.832C584.662 328.72 585.05 328.552 585.367 328.328C585.694 328.104 585.941 327.824 586.109 327.488C586.286 327.152 586.375 326.76 586.375 326.312ZM583.687 322.126C583.687 322.49 583.547 322.756 583.267 322.924C582.987 323.083 582.609 323.162 582.133 323.162H580.145V321.09H582.273C582.73 321.09 583.08 321.179 583.323 321.356C583.566 321.524 583.687 321.771 583.687 322.098V322.126ZM584.233 326.046C584.233 326.41 584.098 326.681 583.827 326.858C583.556 327.026 583.183 327.11 582.707 327.11H580.145V324.954H582.637C583.197 324.954 583.603 325.052 583.855 325.248C584.107 325.435 584.233 325.691 584.233 326.018V326.046ZM595.233 326.102V326.074C595.233 325.645 595.163 325.276 595.023 324.968C594.892 324.66 594.691 324.394 594.421 324.17C594.159 323.937 593.833 323.741 593.441 323.582C593.058 323.414 592.619 323.265 592.125 323.134C591.705 323.022 591.355 322.924 591.075 322.84C590.804 322.756 590.589 322.667 590.431 322.574C590.272 322.481 590.16 322.378 590.095 322.266C590.039 322.145 590.011 322.005 590.011 321.846V321.818C590.011 321.575 590.113 321.375 590.319 321.216C590.533 321.048 590.851 320.964 591.271 320.964C591.691 320.964 592.111 321.053 592.531 321.23C592.951 321.398 593.38 321.631 593.819 321.93L594.939 320.306C594.435 319.905 593.879 319.597 593.273 319.382C592.675 319.167 592.017 319.06 591.299 319.06C590.795 319.06 590.333 319.13 589.913 319.27C589.493 319.41 589.129 319.611 588.821 319.872C588.522 320.133 588.289 320.446 588.121 320.81C587.953 321.165 587.869 321.566 587.869 322.014V322.042C587.869 322.527 587.943 322.933 588.093 323.26C588.251 323.587 588.471 323.862 588.751 324.086C589.031 324.301 589.371 324.483 589.773 324.632C590.174 324.781 590.622 324.917 591.117 325.038C591.527 325.141 591.859 325.239 592.111 325.332C592.372 325.425 592.573 325.519 592.713 325.612C592.862 325.705 592.96 325.808 593.007 325.92C593.063 326.023 593.091 326.144 593.091 326.284V326.312C593.091 326.601 592.965 326.83 592.713 326.998C592.47 327.157 592.125 327.236 591.677 327.236C591.117 327.236 590.599 327.129 590.123 326.914C589.656 326.699 589.199 326.41 588.751 326.046L587.477 327.572C588.065 328.104 588.718 328.501 589.437 328.762C590.155 329.014 590.888 329.14 591.635 329.14C592.167 329.14 592.652 329.075 593.091 328.944C593.529 328.804 593.907 328.608 594.225 328.356C594.542 328.095 594.789 327.777 594.967 327.404C595.144 327.021 595.233 326.587 595.233 326.102ZM599.134 323.736V321.496H596.866V323.736H599.134ZM599.134 329V326.76H596.866V329H599.134ZM480.396 337.2H478.142L476.112 343.836L473.914 337.172H472.066L469.868 343.836L467.838 337.2H465.528L468.874 347.07H470.75L472.962 340.658L475.174 347.07H477.05L480.396 337.2ZM490.281 347V337.2H488.125V341.078H484.149V337.2H481.993V347H484.149V343.066H488.125V347H490.281ZM502.178 347L497.978 337.13H495.99L491.79 347H493.988L494.884 344.802H499.028L499.924 347H502.178ZM498.258 342.898H495.654L496.956 339.72L498.258 342.898ZM511.111 339.188V337.2H502.991V339.188H505.973V347H508.129V339.188H511.111ZM525.87 345.614V341.358H521.614V343.22H523.784V344.62C523.233 345.012 522.557 345.208 521.754 345.208C521.315 345.208 520.914 345.133 520.55 344.984C520.195 344.825 519.883 344.606 519.612 344.326C519.351 344.046 519.145 343.719 518.996 343.346C518.856 342.963 518.786 342.548 518.786 342.1V342.072C518.786 341.652 518.856 341.26 518.996 340.896C519.145 340.523 519.346 340.201 519.598 339.93C519.859 339.65 520.158 339.431 520.494 339.272C520.839 339.104 521.208 339.02 521.6 339.02C521.88 339.02 522.137 339.043 522.37 339.09C522.603 339.137 522.818 339.202 523.014 339.286C523.219 339.37 523.415 339.473 523.602 339.594C523.789 339.715 523.975 339.855 524.162 340.014L525.52 338.376C525.268 338.161 525.007 337.97 524.736 337.802C524.465 337.634 524.176 337.494 523.868 337.382C523.56 337.27 523.224 337.186 522.86 337.13C522.505 337.065 522.109 337.032 521.67 337.032C520.923 337.032 520.237 337.167 519.612 337.438C518.987 337.699 518.445 338.063 517.988 338.53C517.531 338.987 517.171 339.524 516.91 340.14C516.658 340.747 516.532 341.4 516.532 342.1V342.128C516.532 342.856 516.658 343.528 516.91 344.144C517.162 344.76 517.512 345.292 517.96 345.74C518.417 346.188 518.959 346.538 519.584 346.79C520.219 347.042 520.919 347.168 521.684 347.168C522.58 347.168 523.373 347.019 524.064 346.72C524.764 346.412 525.366 346.043 525.87 345.614ZM536.415 347L534.021 343.5C534.646 343.267 535.15 342.903 535.533 342.408C535.925 341.904 536.121 341.255 536.121 340.462V340.434C536.121 339.417 535.794 338.623 535.141 338.054C534.497 337.485 533.591 337.2 532.425 337.2H527.945V347H530.101V343.864H531.795L533.895 347H536.415ZM533.937 340.574C533.937 340.994 533.792 341.33 533.503 341.582C533.223 341.834 532.817 341.96 532.285 341.96H530.101V339.146H532.243C532.775 339.146 533.19 339.263 533.489 339.496C533.787 339.729 533.937 340.079 533.937 340.546V340.574ZM547.61 347L543.41 337.13H541.422L537.222 347H539.42L540.316 344.802H544.46L545.356 347H547.61ZM543.69 342.898H541.086L542.388 339.72L543.69 342.898ZM558.152 342.1V342.072C558.152 341.381 558.026 340.742 557.774 340.154C557.522 339.557 557.163 339.039 556.696 338.6C556.239 338.161 555.688 337.821 555.044 337.578C554.41 337.326 553.71 337.2 552.944 337.2H549.122V347H552.944C553.71 347 554.41 346.874 555.044 346.622C555.688 346.37 556.239 346.025 556.696 345.586C557.163 345.147 557.522 344.629 557.774 344.032C558.026 343.435 558.152 342.791 558.152 342.1ZM555.898 342.128C555.898 342.567 555.824 342.963 555.674 343.318C555.534 343.673 555.334 343.981 555.072 344.242C554.82 344.503 554.512 344.704 554.148 344.844C553.784 344.984 553.383 345.054 552.944 345.054H551.278V339.146H552.944C553.383 339.146 553.784 339.221 554.148 339.37C554.512 339.51 554.82 339.711 555.072 339.972C555.334 340.233 555.534 340.546 555.674 340.91C555.824 341.274 555.898 341.671 555.898 342.1V342.128ZM567.535 347V345.082H562.215V343.024H566.835V341.106H562.215V339.118H567.465V337.2H560.073V347H567.535ZM570.782 341.33L570.712 341.4L571.034 343.668H572.462L572.616 342.814C572.999 342.739 573.358 342.637 573.694 342.506C574.03 342.366 574.32 342.184 574.562 341.96C574.814 341.736 575.01 341.465 575.15 341.148C575.3 340.821 575.374 340.434 575.374 339.986C575.374 339.519 575.29 339.104 575.122 338.74C574.964 338.376 574.735 338.073 574.436 337.83C574.138 337.578 573.778 337.391 573.358 337.27C572.948 337.139 572.49 337.074 571.986 337.074C571.221 337.074 570.558 337.214 569.998 337.494C569.448 337.774 568.967 338.138 568.556 338.586L569.844 340C570.171 339.673 570.502 339.431 570.838 339.272C571.184 339.113 571.552 339.034 571.944 339.034C572.355 339.034 572.672 339.123 572.896 339.3C573.12 339.468 573.232 339.715 573.232 340.042C573.232 340.425 573.046 340.728 572.672 340.952C572.299 341.167 571.669 341.293 570.782 341.33ZM572.84 347V344.76H570.572V347H572.84ZM463.636 365V363.082H458.316V361.024H462.936V359.106H458.316V357.118H463.566V355.2H456.174V365H463.636ZM475.101 365L470.901 355.13H468.913L464.713 365H466.911L467.807 362.802H471.951L472.847 365H475.101ZM471.181 360.898H468.577L469.879 357.72L471.181 360.898ZM483.698 362.102V362.074C483.698 361.645 483.628 361.276 483.488 360.968C483.357 360.66 483.156 360.394 482.886 360.17C482.624 359.937 482.298 359.741 481.906 359.582C481.523 359.414 481.084 359.265 480.59 359.134C480.17 359.022 479.82 358.924 479.54 358.84C479.269 358.756 479.054 358.667 478.896 358.574C478.737 358.481 478.625 358.378 478.56 358.266C478.504 358.145 478.476 358.005 478.476 357.846V357.818C478.476 357.575 478.578 357.375 478.784 357.216C478.998 357.048 479.316 356.964 479.736 356.964C480.156 356.964 480.576 357.053 480.996 357.23C481.416 357.398 481.845 357.631 482.284 357.93L483.404 356.306C482.9 355.905 482.344 355.597 481.738 355.382C481.14 355.167 480.482 355.06 479.764 355.06C479.26 355.06 478.798 355.13 478.378 355.27C477.958 355.41 477.594 355.611 477.285 355.872C476.987 356.133 476.754 356.446 476.586 356.81C476.418 357.165 476.334 357.566 476.334 358.014V358.042C476.334 358.527 476.408 358.933 476.558 359.26C476.716 359.587 476.936 359.862 477.216 360.086C477.496 360.301 477.836 360.483 478.238 360.632C478.639 360.781 479.087 360.917 479.582 361.038C479.992 361.141 480.324 361.239 480.576 361.332C480.837 361.425 481.038 361.519 481.178 361.612C481.327 361.705 481.425 361.808 481.472 361.92C481.528 362.023 481.556 362.144 481.556 362.284V362.312C481.556 362.601 481.43 362.83 481.178 362.998C480.935 363.157 480.59 363.236 480.142 363.236C479.582 363.236 479.064 363.129 478.588 362.914C478.121 362.699 477.664 362.41 477.216 362.046L475.942 363.572C476.53 364.104 477.183 364.501 477.902 364.762C478.62 365.014 479.353 365.14 480.1 365.14C480.632 365.14 481.117 365.075 481.556 364.944C481.994 364.804 482.372 364.608 482.69 364.356C483.007 364.095 483.254 363.777 483.432 363.404C483.609 363.021 483.698 362.587 483.698 362.102ZM494.249 355.2H491.799L489.419 359.134L487.081 355.2H484.561L488.327 361.136V365H490.483V361.094L494.249 355.2ZM507.207 357.188V355.2H499.087V357.188H502.069V365H504.225V357.188H507.207ZM518.847 360.1V360.072C518.847 359.372 518.717 358.719 518.455 358.112C518.203 357.496 517.844 356.964 517.377 356.516C516.92 356.059 516.374 355.699 515.739 355.438C515.105 355.167 514.409 355.032 513.653 355.032C512.897 355.032 512.197 355.167 511.553 355.438C510.919 355.699 510.368 356.063 509.901 356.53C509.444 356.987 509.085 357.524 508.823 358.14C508.562 358.747 508.431 359.4 508.431 360.1V360.128C508.431 360.828 508.557 361.486 508.809 362.102C509.071 362.709 509.43 363.241 509.887 363.698C510.354 364.146 510.905 364.505 511.539 364.776C512.174 365.037 512.869 365.168 513.625 365.168C514.381 365.168 515.077 365.037 515.711 364.776C516.355 364.505 516.906 364.141 517.363 363.684C517.83 363.217 518.194 362.681 518.455 362.074C518.717 361.458 518.847 360.8 518.847 360.1ZM516.593 360.128C516.593 360.548 516.519 360.945 516.369 361.318C516.229 361.682 516.029 362.004 515.767 362.284C515.515 362.564 515.207 362.783 514.843 362.942C514.479 363.101 514.083 363.18 513.653 363.18C513.215 363.18 512.813 363.101 512.449 362.942C512.095 362.774 511.782 362.55 511.511 362.27C511.25 361.99 511.045 361.663 510.895 361.29C510.755 360.917 510.685 360.52 510.685 360.1V360.072C510.685 359.652 510.755 359.26 510.895 358.896C511.045 358.523 511.245 358.196 511.497 357.916C511.759 357.636 512.067 357.417 512.421 357.258C512.785 357.099 513.187 357.02 513.625 357.02C514.055 357.02 514.451 357.104 514.815 357.272C515.179 357.431 515.492 357.65 515.753 357.93C516.024 358.21 516.229 358.537 516.369 358.91C516.519 359.283 516.593 359.68 516.593 360.1V360.128ZM533.861 363.614V359.358H529.605V361.22H531.775V362.62C531.225 363.012 530.548 363.208 529.745 363.208C529.307 363.208 528.905 363.133 528.541 362.984C528.187 362.825 527.874 362.606 527.603 362.326C527.342 362.046 527.137 361.719 526.987 361.346C526.847 360.963 526.777 360.548 526.777 360.1V360.072C526.777 359.652 526.847 359.26 526.987 358.896C527.137 358.523 527.337 358.201 527.589 357.93C527.851 357.65 528.149 357.431 528.485 357.272C528.831 357.104 529.199 357.02 529.591 357.02C529.871 357.02 530.128 357.043 530.361 357.09C530.595 357.137 530.809 357.202 531.005 357.286C531.211 357.37 531.407 357.473 531.593 357.594C531.78 357.715 531.967 357.855 532.153 358.014L533.511 356.376C533.259 356.161 532.998 355.97 532.727 355.802C532.457 355.634 532.167 355.494 531.859 355.382C531.551 355.27 531.215 355.186 530.851 355.13C530.497 355.065 530.1 355.032 529.661 355.032C528.915 355.032 528.229 355.167 527.603 355.438C526.978 355.699 526.437 356.063 525.979 356.53C525.522 356.987 525.163 357.524 524.901 358.14C524.649 358.747 524.523 359.4 524.523 360.1V360.128C524.523 360.856 524.649 361.528 524.901 362.144C525.153 362.76 525.503 363.292 525.951 363.74C526.409 364.188 526.95 364.538 527.575 364.79C528.21 365.042 528.91 365.168 529.675 365.168C530.571 365.168 531.365 365.019 532.055 364.72C532.755 364.412 533.357 364.043 533.861 363.614ZM543.398 365V363.082H538.078V361.024H542.698V359.106H538.078V357.118H543.328V355.2H535.936V365H543.398ZM552.735 357.188V355.2H544.615V357.188H547.597V365H549.753V357.188H552.735ZM566.01 357.188V355.2H557.89V357.188H560.872V365H563.028V357.188H566.01ZM577.65 360.1V360.072C577.65 359.372 577.52 358.719 577.258 358.112C577.006 357.496 576.647 356.964 576.18 356.516C575.723 356.059 575.177 355.699 574.542 355.438C573.908 355.167 573.212 355.032 572.456 355.032C571.7 355.032 571 355.167 570.356 355.438C569.722 355.699 569.171 356.063 568.704 356.53C568.247 356.987 567.888 357.524 567.626 358.14C567.365 358.747 567.234 359.4 567.234 360.1V360.128C567.234 360.828 567.36 361.486 567.612 362.102C567.874 362.709 568.233 363.241 568.69 363.698C569.157 364.146 569.708 364.505 570.342 364.776C570.977 365.037 571.672 365.168 572.428 365.168C573.184 365.168 573.88 365.037 574.514 364.776C575.158 364.505 575.709 364.141 576.166 363.684C576.633 363.217 576.997 362.681 577.258 362.074C577.52 361.458 577.65 360.8 577.65 360.1ZM575.396 360.128C575.396 360.548 575.322 360.945 575.172 361.318C575.032 361.682 574.832 362.004 574.57 362.284C574.318 362.564 574.01 362.783 573.646 362.942C573.282 363.101 572.886 363.18 572.456 363.18C572.018 363.18 571.616 363.101 571.252 362.942C570.898 362.774 570.585 362.55 570.314 362.27C570.053 361.99 569.848 361.663 569.698 361.29C569.558 360.917 569.488 360.52 569.488 360.1V360.072C569.488 359.652 569.558 359.26 569.698 358.896C569.848 358.523 570.048 358.196 570.3 357.916C570.562 357.636 570.87 357.417 571.224 357.258C571.588 357.099 571.99 357.02 572.428 357.02C572.858 357.02 573.254 357.104 573.618 357.272C573.982 357.431 574.295 357.65 574.556 357.93C574.827 358.21 575.032 358.537 575.172 358.91C575.322 359.283 575.396 359.68 575.396 360.1V360.128ZM580.893 359.33L580.823 359.4L581.145 361.668H582.573L582.727 360.814C583.109 360.739 583.469 360.637 583.805 360.506C584.141 360.366 584.43 360.184 584.673 359.96C584.925 359.736 585.121 359.465 585.261 359.148C585.41 358.821 585.485 358.434 585.485 357.986C585.485 357.519 585.401 357.104 585.233 356.74C585.074 356.376 584.845 356.073 584.547 355.83C584.248 355.578 583.889 355.391 583.469 355.27C583.058 355.139 582.601 355.074 582.097 355.074C581.331 355.074 580.669 355.214 580.109 355.494C579.558 355.774 579.077 356.138 578.667 356.586L579.955 358C580.281 357.673 580.613 357.431 580.949 357.272C581.294 357.113 581.663 357.034 582.055 357.034C582.465 357.034 582.783 357.123 583.007 357.3C583.231 357.468 583.343 357.715 583.343 358.042C583.343 358.425 583.156 358.728 582.783 358.952C582.409 359.167 581.779 359.293 580.893 359.33ZM582.951 365V362.76H580.683V365H582.951ZM505.661 380.102V380.074C505.661 379.645 505.591 379.276 505.451 378.968C505.321 378.66 505.12 378.394 504.849 378.17C504.588 377.937 504.261 377.741 503.869 377.582C503.487 377.414 503.048 377.265 502.553 377.134C502.133 377.022 501.783 376.924 501.503 376.84C501.233 376.756 501.018 376.667 500.859 376.574C500.701 376.481 500.589 376.378 500.523 376.266C500.467 376.145 500.439 376.005 500.439 375.846V375.818C500.439 375.575 500.542 375.375 500.747 375.216C500.962 375.048 501.279 374.964 501.699 374.964C502.119 374.964 502.539 375.053 502.959 375.23C503.379 375.398 503.809 375.631 504.247 375.93L505.367 374.306C504.863 373.905 504.308 373.597 503.701 373.382C503.104 373.167 502.446 373.06 501.727 373.06C501.223 373.06 500.761 373.13 500.341 373.27C499.921 373.41 499.557 373.611 499.249 373.872C498.951 374.133 498.717 374.446 498.549 374.81C498.381 375.165 498.297 375.566 498.297 376.014V376.042C498.297 376.527 498.372 376.933 498.521 377.26C498.68 377.587 498.899 377.862 499.179 378.086C499.459 378.301 499.8 378.483 500.201 378.632C500.603 378.781 501.051 378.917 501.545 379.038C501.956 379.141 502.287 379.239 502.539 379.332C502.801 379.425 503.001 379.519 503.141 379.612C503.291 379.705 503.389 379.808 503.435 379.92C503.491 380.023 503.519 380.144 503.519 380.284V380.312C503.519 380.601 503.393 380.83 503.141 380.998C502.899 381.157 502.553 381.236 502.105 381.236C501.545 381.236 501.027 381.129 500.551 380.914C500.085 380.699 499.627 380.41 499.179 380.046L497.905 381.572C498.493 382.104 499.147 382.501 499.865 382.762C500.584 383.014 501.317 383.14 502.063 383.14C502.595 383.14 503.081 383.075 503.519 382.944C503.958 382.804 504.336 382.608 504.653 382.356C504.971 382.095 505.218 381.777 505.395 381.404C505.573 381.021 505.661 380.587 505.661 380.102ZM517.08 383L512.88 373.13H510.892L506.692 383H508.89L509.786 380.802H513.93L514.826 383H517.08ZM513.16 378.898H510.556L511.858 375.72L513.16 378.898ZM526.055 375.16V373.2H518.593V383H520.749V379.206H525.425V377.246H520.749V375.16H526.055ZM535.242 383V381.082H529.922V379.024H534.542V377.106H529.922V375.118H535.172V373.2H527.78V383H535.242ZM538.489 377.33L538.419 377.4L538.741 379.668H540.169L540.323 378.814C540.706 378.739 541.065 378.637 541.401 378.506C541.737 378.366 542.027 378.184 542.269 377.96C542.521 377.736 542.717 377.465 542.857 377.148C543.007 376.821 543.081 376.434 543.081 375.986C543.081 375.519 542.997 375.104 542.829 374.74C542.671 374.376 542.442 374.073 542.143 373.83C541.845 373.578 541.485 373.391 541.065 373.27C540.655 373.139 540.197 373.074 539.693 373.074C538.928 373.074 538.265 373.214 537.705 373.494C537.155 373.774 536.674 374.138 536.263 374.586L537.551 376C537.878 375.673 538.209 375.431 538.545 375.272C538.891 375.113 539.259 375.034 539.651 375.034C540.062 375.034 540.379 375.123 540.603 375.3C540.827 375.468 540.939 375.715 540.939 376.042C540.939 376.425 540.753 376.728 540.379 376.952C540.006 377.167 539.376 377.293 538.489 377.33ZM540.547 383V380.76H538.279V383H540.547Z" fill="#293978"/>
<circle opacity="0.5" cx="134" cy="163" r="12" fill="#FB6B46"/>
<circle opacity="0.5" cx="134" cy="43" r="12" fill="#FB6B46"/>
<circle opacity="0.5" cx="134" cy="283" r="12" fill="#FB6B46"/>
<circle opacity="0.5" cx="331" cy="163" r="12" fill="#FB6B46"/>
<circle opacity="0.5" cx="321" cy="283" r="12" fill="#FB6B46"/>
<circle opacity="0.5" cx="519" cy="163" r="12" fill="#FB6B46"/>
<circle opacity="0.5" cx="519" cy="283" r="12" fill="#FB6B46"/>
<path d="M366.293 284.293C365.902 284.683 365.902 285.317 366.293 285.707L372.657 292.071C373.047 292.462 373.681 292.462 374.071 292.071C374.462 291.681 374.462 291.047 374.071 290.657L368.414 285L374.071 279.343C374.462 278.953 374.462 278.319 374.071 277.929C373.681 277.538 373.047 277.538 372.657 277.929L366.293 284.293ZM475 284L367 284L367 286L475 286L475 284Z" fill="#FB6B46"/>
<path d="M285.707 165.707C286.098 165.317 286.098 164.683 285.707 164.293L279.343 157.929C278.953 157.538 278.319 157.538 277.929 157.929C277.538 158.319 277.538 158.953 277.929 159.343L283.586 165L277.929 170.657C277.538 171.047 277.538 171.681 277.929 172.071C278.319 172.462 278.953 172.462 279.343 172.071L285.707 165.707ZM177 166L285 166L285 164L177 164L177 166Z" fill="#FB6B46"/>
<path d="M176.293 284.293C175.902 284.683 175.902 285.317 176.293 285.707L182.657 292.071C183.047 292.462 183.681 292.462 184.071 292.071C184.462 291.681 184.462 291.047 184.071 290.657L178.414 285L184.071 279.343C184.462 278.953 184.462 278.319 184.071 277.929C183.681 277.538 183.047 277.538 182.657 277.929L176.293 284.293ZM285 284L177 284L177 286L285 286L285 284Z" fill="#FB6B46"/>
<path d="M481.707 165.707C482.098 165.317 482.098 164.683 481.707 164.293L475.343 157.929C474.953 157.538 474.319 157.538 473.929 157.929C473.538 158.319 473.538 158.953 473.929 159.343L479.586 165L473.929 170.657C473.538 171.047 473.538 171.681 473.929 172.071C474.319 172.462 474.953 172.462 475.343 172.071L481.707 165.707ZM373 166L481 166L481 164L373 164L373 166Z" fill="#FB6B46"/>
<path d="M553.293 284.293C552.902 284.683 552.902 285.317 553.293 285.707L559.657 292.071C560.047 292.462 560.681 292.462 561.071 292.071C561.462 291.681 561.462 291.047 561.071 290.657L555.414 285L561.071 279.343C561.462 278.953 561.462 278.319 561.071 277.929C560.681 277.538 560.047 277.538 559.657 277.929L553.293 284.293ZM578 284H554V286H578V284Z" fill="#FB6B46"/>
<mask id="mask0" mask-type="alpha" maskUnits="userSpaceOnUse" x="555" y="123" width="90" height="177">
<rect x="555" y="123" width="89.2332" height="177" fill="#C4C4C4"/>
</mask>
<g mask="url(#mask0)">
<rect x="538.492" y="158.038" width="83.8446" height="127.346" rx="15" stroke="#FB6B46" stroke-width="2"/>
</g>
<mask id="mask1" mask-type="alpha" maskUnits="userSpaceOnUse" x="179" y="0" width="271" height="167">
<rect x="179" width="271" height="167" fill="#C4C4C4"/>
</mask>
<g mask="url(#mask1)">
<rect x="134" y="41" width="294" height="150" rx="15" stroke="#FB6B46" stroke-width="2"/>
</g>
</svg>
